<?xml version="1.0" encoding="UTF-8"?>
<!DOCTYPE svg PUBLIC "-//W3C//DTD SVG 1.1//EN" "http://www.w3.org/Graphics/SVG/1.1/DTD/svg11.dtd">
<!-- Creator: CorelDRAW -->
<svg xmlns="http://www.w3.org/2000/svg" xml:space="preserve" width="4.52823in" height="4.88632in" version="1.1" style="shape-rendering:geometricPrecision; text-rendering:geometricPrecision; image-rendering:optimizeQuality; fill-rule:evenodd; clip-rule:evenodd"
viewBox="0 0 1018.97 1099.55"
 xmlns:xlink="http://www.w3.org/1999/xlink"
 xmlns:xodm="http://www.corel.com/coreldraw/odm/2003">
 <defs>
  <style type="text/css">
   <![CDATA[
    .fil4 {fill:none}
    .fil0 {fill:#FFF212}
    .fil7 {fill:#A8518A}
    .fil6 {fill:black}
    .fil1 {fill:#33CC33}
    .fil2 {fill:red}
    .fil5 {fill:white}
    .fil3 {fill:white}
    .fil8 {fill:red;fill-rule:nonzero}
   ]]>
  </style>
 </defs>
 <g id="Capa_x0020_1">
  <metadata id="CorelCorpID_0Corel-Layer"/>
  <path class="fil0" d="M489.16 402.84c23.84,0 43.16,19.47 43.16,43.48 0,24.01 -19.32,43.48 -43.16,43.48 -23.84,0 -43.16,-19.47 -43.16,-43.48 0,-24.01 19.32,-43.48 43.16,-43.48z"/>
  <path class="fil1" d="M683.36 406.5c-19.01,9.79 -40.26,15.46 -62.57,15.83 -78.13,1.31 -139.75,-62.8 -137.64,-143.21 0.41,-15.64 3.21,-30.73 8.01,-44.92l17.68 0.01 5.05 0c-5.73,14.26 -9.06,29.63 -9.47,45.47 -1.75,66.55 48.33,122.52 116.01,121.38 22.21,-0.37 42.94,-6.84 60.87,-17.72l2.05 23.16z"/>
  <path class="fil2" d="M466.3 234.2c1.43,4.87 3.12,11.95 4.22,20.91 2.22,18.1 -1.48,28.44 -1.48,28.44 0,0 -9.41,-2.96 -13.1,9.05 -3.69,12 -9.39,17.44 -18.07,14.76 -8.68,-2.68 -10.34,-4.16 -14.31,-2.59 -3.97,1.57 -4.24,4.24 -4.42,13.85 -0.18,9.6 -10.71,19.39 -17.73,21.61 -7.02,2.22 -9.37,6.14 -10.3,8.91 -0.92,2.77 0.37,5.17 0.37,5.17 0,0 -15.69,4.24 -34.16,-0.37 -5.74,-1.44 -11.57,-3.46 -16.88,-5.57l8.84 -101.93c0.83,-5.64 3.94,-10.94 9.76,-12.24l107.26 0z"/>
  <path class="fil1" d="M466.1 291.14c0,0 4.99,10.9 -1.11,24.93 -6.1,14.04 -11.63,16.81 -11.63,16.81 0,0 4.07,9.33 10.99,13.58 6.93,4.25 11.46,3.6 12.11,6.92 0.65,3.33 -2.49,9.33 -8.5,7.48 -6,-1.85 -23.36,-14.77 -23.36,-14.77 0,0 -0.46,7.2 -4.8,11.18 -4.34,3.97 -14.4,0.18 -14.4,0.18 0,0 5.45,-1.38 8.31,-8.4 2.86,-7.02 1.76,-11.82 1.76,-11.82 0,0 -4.43,8.86 -14.68,11.82 -10.25,2.95 -21.15,-0.83 -21.15,-0.83 0,0 16.9,-6.56 22.9,-16.81 6,-10.25 5.36,-20.31 5.36,-20.31 0,0 12.46,8.5 24.01,3.05 11.54,-5.45 14.2,-22.99 14.2,-22.99z"/>
  <path class="fil2" d="M523.13 234.21c-6.18,14.23 -9.78,29.72 -10.2,45.69 -1.62,61.6 44.48,113.71 107.36,112.65 22.16,-0.37 42.71,-7.27 60.17,-18.73 -3.85,-43.41 -7.7,-86.83 -11.56,-130.24 -1.71,-4.14 -5.6,-9.17 -10.17,-9.22 -17.24,-0.17 -34.53,-0.09 -51.78,-0.1 -27.94,-0.03 -55.89,-0.04 -83.83,-0.05z"/>
  <path class="fil3" d="M536.58 470.61c0,0 26.95,-45.8 91.59,-38.42 23.95,2.74 43.54,8.26 58.71,14.14 2.42,27.2 4.86,54.4 7.29,81.6 -22.48,5.23 -54.02,10.25 -82.63,6.57 -51.71,-6.65 -74.97,-63.89 -74.97,-63.89zm55.03 -21.15c5.23,0 9.46,4.13 9.46,9.23 0,5.1 -4.24,9.23 -9.46,9.23 -5.23,0 -9.47,-4.13 -9.47,-9.23 0,-5.1 4.24,-9.23 9.47,-9.23zm60.17 -3.51c0,0 6.28,13.66 4.43,36.19 -1.85,22.53 -9.97,33.8 -9.97,33.8 0,0 35.09,-33.24 5.55,-69.99zm-17.02 0c0,0 6.28,13.66 4.43,36.19 -1.85,22.53 -9.97,33.8 -9.97,33.8 0,0 35.09,-33.24 5.55,-69.99zm-17.02 0c0,0 6.28,13.66 4.43,36.19 -1.85,22.53 -9.97,33.8 -9.97,33.8 0,0 35.09,-33.24 5.55,-69.99z"/>
  <path class="fil2" d="M696.61 555.18c-15.44,-6.82 -32.6,-10.19 -50.43,-9.18 -56.65,3.23 -100.02,49.51 -101.57,105.77 49.85,-0.06 99.71,-0.14 149.56,-0.25 8.31,-0.98 10.09,-7.97 9.45,-15.51 -2.27,-26.95 -4.63,-53.89 -7.01,-80.84z"/>
  <path class="fil4" d="M573.2 628.67c1.63,0 2.96,1.35 2.96,3.02 0,1.67 -1.32,3.02 -2.96,3.02 -1.63,0 -2.96,-1.35 -2.96,-3.02 0,-1.67 1.32,-3.02 2.96,-3.02z"/>
  <path class="fil2" d="M611.07 572.4c4.77,0 8.64,3.79 8.64,8.46 0,4.67 -3.87,8.46 -8.64,8.46 -4.77,0 -8.64,-3.79 -8.64,-8.46 0,-4.67 3.87,-8.46 8.64,-8.46z"/>
  <path class="fil2" d="M631.49 593.1c3.1,0 5.62,2.49 5.62,5.56 0,3.07 -2.52,5.56 -5.62,5.56 -3.1,0 -5.62,-2.49 -5.62,-5.56 0,-3.07 2.52,-5.56 5.62,-5.56z"/>
  <path class="fil2" d="M647.05 560.09c7.39,0 13.37,5.59 13.37,12.48 0,6.9 -5.99,12.48 -13.37,12.48 -7.39,0 -13.37,-5.59 -13.37,-12.48 0,-6.9 5.99,-12.48 13.37,-12.48z"/>
  <path class="fil1" d="M526.34 538.31c0,0 5.8,-28.4 -17.51,-31.24 -23.31,-2.84 -26.74,23.43 -12.78,38.34 13.96,14.91 18.11,15.98 18.11,15.98 0,0 -18.11,25.44 7.34,33.37 25.44,7.93 17.16,-31.72 17.16,-31.72 0,0 12.78,12.9 27.22,-0.35 14.44,-13.25 -2.49,-35.5 -16.92,-35.38 -14.44,0.12 -22.6,11 -22.6,11z"/>
  <path class="fil5" d="M476.35 375.96l10.35 -5.09c0,0 6.51,2.49 6.63,11.95 0.12,9.47 0,16.09 0,16.09 0,0 -4.62,1.07 -4.85,-0.35 -0.24,-1.42 0.59,-14.67 -12.13,-22.6z"/>
  <path class="fil4" d="M489.19 402.7c23.85,0 43.19,19.5 43.19,43.55 0,19 -12.08,35.16 -28.91,41.11 -2.33,-3.53 -7.9,-6.02 -14.4,-6.02 -6.46,0 -12,2.45 -14.36,5.95 -16.73,-6 -28.72,-22.11 -28.72,-41.04 0,-24.05 19.34,-43.55 43.19,-43.55z"/>
  <path class="fil4" d="M499.26 488.61c-3.23,0.78 -6.6,1.19 -10.07,1.19 -3.29,0 -6.5,-0.37 -9.58,-1.08 1.62,-2.4 5.42,-4.09 9.86,-4.09 4.37,0 8.12,1.63 9.78,3.97z"/>
  <path class="fil6" d="M564.43 252.48c7.4,0 13.4,2.86 13.4,6.39 0,3.53 -6,6.39 -13.4,6.39 -7.4,0 -13.4,-2.86 -13.4,-6.39 0,-3.53 6,-6.39 13.4,-6.39z"/>
  <path class="fil6" d="M572.76 296.08c6.1,-4.19 12.67,-5.23 14.66,-2.32 2,2.91 -1.33,8.66 -7.43,12.86 -6.1,4.19 -12.67,5.23 -14.66,2.32 -2,-2.91 1.33,-8.67 7.43,-12.86z"/>
  <path class="fil6" d="M603.44 324.66c3.57,-6.48 8.97,-10.36 12.06,-8.66 3.09,1.7 2.7,8.34 -0.87,14.82 -3.57,6.48 -8.97,10.36 -12.06,8.66 -3.09,-1.7 -2.7,-8.34 0.87,-14.82z"/>
  <path class="fil6" d="M643.6 335.96c0.21,-7.4 3.24,-13.32 6.77,-13.22 3.53,0.1 6.22,6.18 6.01,13.58 -0.21,7.4 -3.24,13.32 -6.77,13.22 -3.53,-0.1 -6.22,-6.18 -6.01,-13.58z"/>
  <path class="fil7" d="M444.94 543.08c16.27,-2.14 29.47,-14.42 29.47,-27.43 0,-13.01 -13.19,-21.81 -29.47,-19.67 -16.27,2.14 -29.47,14.42 -29.47,27.43 0,13.01 13.19,21.81 29.47,19.67z"/>
  <path class="fil5" d="M449.9 501.83c5.63,-0.13 10.19,1.99 10.19,4.73 0,2.75 -4.56,5.08 -10.19,5.21 -5.63,0.13 -10.19,-1.99 -10.19,-4.73 0,-2.74 4.56,-5.08 10.19,-5.21z"/>
  <path class="fil7" d="M394.39 595.47c16.27,-2.14 29.47,-14.42 29.47,-27.43 0,-13.01 -13.19,-21.81 -29.47,-19.67 -16.27,2.14 -29.47,14.42 -29.47,27.43 0,13.01 13.19,21.81 29.47,19.67z"/>
  <path class="fil5" d="M399.35 554.22c5.63,-0.13 10.19,1.99 10.19,4.73 0,2.74 -4.56,5.08 -10.19,5.21 -5.63,0.13 -10.19,-1.99 -10.19,-4.73 0,-2.74 4.56,-5.08 10.19,-5.21z"/>
  <path class="fil7" d="M348.47 647.07c16.27,-2.14 29.47,-14.42 29.47,-27.43 0,-13.01 -13.19,-21.81 -29.47,-19.67 -16.27,2.14 -29.47,14.42 -29.47,27.43 0,13.01 13.19,21.81 29.47,19.67z"/>
  <path class="fil5" d="M353.44 605.81c5.63,-0.13 10.19,1.99 10.19,4.73 0,2.74 -4.56,5.08 -10.19,5.21 -5.63,0.13 -10.19,-1.99 -10.19,-4.73 0,-2.75 4.56,-5.08 10.19,-5.21z"/>
  <path class="fil7" d="M417.58 650.85c16.27,-2.14 29.47,-14.42 29.47,-27.43 0,-13.01 -13.19,-21.81 -29.47,-19.67 -16.27,2.14 -29.47,14.42 -29.47,27.43 0,13.01 13.19,21.81 29.47,19.67z"/>
  <path class="fil5" d="M422.55 609.6c5.63,-0.13 10.19,1.99 10.19,4.73 0,2.75 -4.56,5.08 -10.19,5.21 -5.63,0.13 -10.19,-1.99 -10.19,-4.73 0,-2.74 4.56,-5.08 10.19,-5.21z"/>
  <path class="fil7" d="M489.06 651.33c16.27,-2.14 29.47,-14.42 29.47,-27.43 0,-13.01 -13.19,-21.81 -29.47,-19.67 -16.27,2.14 -29.47,14.42 -29.47,27.43 0,13.01 13.19,21.81 29.47,19.67z"/>
  <path class="fil5" d="M494.02 610.07c5.63,-0.13 10.19,1.99 10.19,4.73 0,2.75 -4.56,5.08 -10.19,5.21 -5.63,0.13 -10.19,-1.99 -10.19,-4.73 0,-2.74 4.56,-5.08 10.19,-5.21z"/>
  <path class="fil7" d="M467.76 597.84c16.27,-2.14 29.47,-14.42 29.47,-27.43 0,-13.01 -13.19,-21.81 -29.47,-19.67 -16.27,2.14 -29.47,14.42 -29.47,27.43 0,13.01 13.19,21.81 29.47,19.67z"/>
  <path class="fil5" d="M472.72 556.59c5.63,-0.13 10.19,1.99 10.19,4.73 0,2.75 -4.56,5.08 -10.19,5.21 -5.63,0.13 -10.19,-1.99 -10.19,-4.73 0,-2.74 4.56,-5.08 10.19,-5.21z"/>
  <path class="fil5" d="M320.18 581.97l87.54 -89.97c0,0 4.5,-3.67 5.56,-7.81 1.06,-4.14 15.39,-58.46 15.39,-58.46l-33.73 -33.49 -59.62 15.1 -3.85 44.33 33.52 44.24 -40.67 38.2 -4.15 47.87z"/>
  <path class="fil5" d="M395.89 388.81l36.51 36.04c0,0 2.84,2.19 5.38,-0.24 2.54,-2.43 16.51,-16.45 16.51,-16.45 0,0 3.25,-3.55 0.47,-6.57 -2.78,-3.02 -35.92,-35.09 -35.92,-35.09 0,0 -3.08,-3.02 -6.86,0.06 -3.79,3.08 -15.47,15.95 -15.47,15.95 0,0 -3.61,3.82 -0.62,6.3z"/>
  <path class="fil3" d="M357.87 176.29c10.64,0 21.29,-0.01 31.94,-0.02l0 -56.87c0,-65.66 53.73,-119.39 119.39,-119.39l0 0c65.67,0 119.39,53.73 119.39,119.39l0 56.84c10.24,0.07 20.48,0.15 30.72,0.25 30.76,0.31 56.37,22.51 65.3,51.1 0.95,3.05 1.48,5.73 1.77,8.91 11.73,131.52 23.83,263.1 34.92,394.66 3.39,40.24 -22.93,75.91 -64.04,78.19 -0.79,0.04 -1.47,0.06 -2.26,0.07 -61.89,0.14 -123.77,0.23 -185.66,0.29 -39.92,0.04 -79.84,0.07 -119.76,0.02 -21.74,-0.02 -43.91,0.3 -65.63,-0.33 -38.24,-1.11 -66.8,-31.04 -66.8,-68.75 0,-1.29 0.05,-2.39 0.16,-3.68l34.35 -395.93c0.06,-0.68 0.12,-1.26 0.21,-1.93 4.28,-32.18 28.61,-58.95 61.33,-62.55 1.64,-0.18 3.03,-0.26 4.68,-0.26zm74.48 -0.11c51.22,-0.12 102.48,-0.29 153.69,-0.14l0 -56.64c0,-42.18 -34.66,-76.84 -76.84,-76.84 -42.18,0 -76.84,34.66 -76.84,76.84l0 56.79zm-98.31 68.53l-34.35 395.93c0,0 0,25.49 25.49,26.22 25.49,0.74 369.72,0 369.72,0 0,0 26.59,-1.48 24.01,-32.14 -2.59,-30.66 -34.9,-394.46 -34.9,-394.46 0,0 -6.65,-21.05 -25.12,-21.24 -18.47,-0.18 -301.02,-0.19 -301.02,-0.19 0,0 -20.68,2.22 -23.83,25.87z"/>
  <g id="_1659183855648">
   <path class="fil8" d="M56.25 809.46l-32.03 0 -3.98 8.2c-1.27,2.75 -1.89,5.03 -1.89,6.83 0,2.39 1.03,4.14 3.09,5.28 1.22,0.66 4.21,1.16 8.98,1.5l0 2.15 -30.42 0 0 -2.15c3.27,-0.47 5.99,-1.73 8.08,-3.78 2.12,-2.07 4.74,-6.34 7.83,-12.81l32.7 -66.97 1.29 0 32.99 68.83c3.16,6.59 5.73,10.76 7.76,12.47 1.54,1.31 3.68,2.05 6.49,2.26l0 2.15 -44.25 0 0 -2.15 1.82 0c3.55,0 6.05,-0.47 7.48,-1.4 0.99,-0.65 1.47,-1.62 1.47,-2.87 0,-0.76 -0.12,-1.54 -0.39,-2.34 -0.09,-0.36 -0.76,-1.95 -2.03,-4.72l-4.99 -10.48zm-2.17 -4.56l-13.65 -28.63 -13.98 28.63 27.63 0zm75.13 -29.42l0 7.48c3.22,-3.19 6.34,-5.49 9.3,-6.95 2.97,-1.46 6.15,-2.18 9.55,-2.18 4.1,0 7.48,1.03 10.18,3.13 2.69,2.09 4.49,4.69 5.39,7.77 0.71,2.37 1.08,6.89 1.08,13.57l0 22.57c0,4.46 0.44,7.23 1.31,8.33 0.88,1.1 2.69,1.78 5.46,2.07l0 2.15 -31.91 0 0 -2.15c2.39,-0.3 4.1,-1.2 5.13,-2.73 0.72,-1.03 1.08,-3.59 1.08,-7.67l0 -25.78c0,-4.75 -0.21,-7.76 -0.6,-8.98 -0.42,-1.25 -1.08,-2.2 -2.05,-2.9 -0.97,-0.68 -2.03,-1.02 -3.2,-1.02 -3.85,0 -7.41,2.49 -10.73,7.48l0 31.19c0,4.33 0.44,7.08 1.31,8.22 0.88,1.16 2.51,1.88 4.9,2.18l0 2.15 -31.91 0 0 -2.15c2.65,-0.26 4.51,-1.04 5.64,-2.35 0.76,-0.91 1.13,-3.59 1.13,-8.05l0 -32.84c0,-4.42 -0.44,-7.19 -1.31,-8.26 -0.88,-1.1 -2.69,-1.8 -5.46,-2.14l0 -2.15 25.69 0zm76.84 0l0 7.48c3.22,-3.19 6.33,-5.49 9.3,-6.95 2.97,-1.46 6.15,-2.18 9.55,-2.18 4.1,0 7.49,1.03 10.18,3.13 2.69,2.09 4.49,4.69 5.39,7.77 0.71,2.37 1.08,6.89 1.08,13.57l0 22.57c0,4.46 0.44,7.23 1.31,8.33 0.88,1.1 2.7,1.78 5.46,2.07l0 2.15 -31.91 0 0 -2.15c2.4,-0.3 4.1,-1.2 5.13,-2.73 0.71,-1.03 1.08,-3.59 1.08,-7.67l0 -25.78c0,-4.75 -0.21,-7.76 -0.6,-8.98 -0.41,-1.25 -1.08,-2.2 -2.05,-2.9 -0.97,-0.68 -2.03,-1.02 -3.2,-1.02 -3.84,0 -7.41,2.49 -10.73,7.48l0 31.19c0,4.33 0.44,7.08 1.31,8.22 0.88,1.16 2.51,1.88 4.9,2.18l0 2.15 -31.91 0 0 -2.15c2.65,-0.26 4.51,-1.04 5.64,-2.35 0.76,-0.91 1.13,-3.59 1.13,-8.05l0 -32.84c0,-4.42 -0.44,-7.19 -1.31,-8.26 -0.88,-1.1 -2.69,-1.8 -5.46,-2.14l0 -2.15 25.7 0zm85.82 49.32c-7.69,6.26 -14.62,9.38 -20.72,9.38 -3.61,0 -6.61,-1.08 -9,-3.25 -2.37,-2.15 -3.57,-4.88 -3.57,-8.14 0,-4.42 2.07,-8.39 6.22,-11.92 4.14,-3.53 13.17,-8.22 27.08,-14.07l0 -5.81c0,-4.35 -0.25,-7.1 -0.78,-8.24 -0.5,-1.12 -1.5,-2.11 -2.94,-2.96 -1.45,-0.85 -3.09,-1.27 -4.89,-1.27 -2.94,0 -5.36,0.59 -7.25,1.8 -1.17,0.74 -1.75,1.61 -1.75,2.6 0,0.87 0.62,1.92 1.89,3.21 1.7,1.78 2.56,3.49 2.56,5.14 0,2.01 -0.81,3.74 -2.46,5.15 -1.64,1.42 -3.78,2.14 -6.42,2.14 -2.83,0 -5.21,-0.78 -7.12,-2.35 -1.91,-1.56 -2.88,-3.4 -2.88,-5.49 0,-2.98 1.29,-5.81 3.84,-8.52 2.58,-2.68 6.15,-4.75 10.73,-6.21 4.61,-1.44 9.37,-2.15 14.32,-2.15 5.99,0 10.73,1.16 14.21,3.49 3.5,2.32 5.75,4.84 6.8,7.56 0.62,1.73 0.94,5.71 0.94,11.92l0 22.42c0,2.62 0.12,4.29 0.35,4.96 0.23,0.68 0.55,1.18 1.01,1.52 0.46,0.32 0.97,0.49 1.55,0.49 1.19,0 2.39,-0.74 3.64,-2.22l2.03 1.44c-2.26,3.06 -4.58,5.3 -7,6.68 -2.4,1.39 -5.14,2.09 -8.2,2.09 -3.59,0 -6.42,-0.78 -8.45,-2.32 -2.03,-1.56 -3.25,-3.91 -3.71,-7.06zm0 -4.56l0 -19.27c-5.43,2.94 -9.49,6.07 -12.16,9.4 -1.75,2.22 -2.62,4.48 -2.62,6.74 0,1.9 0.74,3.57 2.23,5.01 1.13,1.12 2.69,1.67 4.72,1.67 2.26,0 4.86,-1.18 7.83,-3.55zm58.71 7.23l0 21.68c0,3 0.26,5.05 0.78,6.13 0.5,1.08 1.31,1.88 2.39,2.37 1.08,0.51 3.2,0.76 6.36,0.76l0 2.16 -36.2 0 0 -2.16c2.85,-0.08 4.97,-0.8 6.35,-2.2 0.92,-0.95 1.38,-3.45 1.38,-7.44l0 -61.24c0,-4.14 -0.53,-6.76 -1.59,-7.93 -1.06,-1.14 -3.11,-1.79 -6.15,-1.96l0 -2.15 26.66 0 0 7.61c2.21,-2.96 4.44,-5.12 6.75,-6.42 3.27,-1.88 6.84,-2.83 10.71,-2.83 4.62,0 8.84,1.33 12.64,4.02 3.8,2.68 6.68,6.38 8.66,11.1 1.98,4.71 2.97,9.78 2.97,15.23 0,5.86 -1.01,11.2 -3.06,16.04 -2.05,4.84 -5.02,8.52 -8.91,11.05 -3.87,2.54 -8.2,3.8 -12.97,3.8 -3.46,0 -6.7,-0.7 -9.72,-2.11 -2.23,-1.06 -4.61,-2.9 -7.07,-5.49zm0 -6.26c3.87,5.01 8.01,7.53 12.43,7.53 2.44,0 4.44,-1.16 6.01,-3.51 2.35,-3.46 3.52,-10.04 3.52,-19.74 0,-9.95 -1.29,-16.76 -3.84,-20.42 -1.73,-2.43 -4.01,-3.63 -6.91,-3.63 -4.54,0 -8.29,3 -11.21,9l0 30.77zm82.13 -47.38c5.46,0 10.55,1.29 15.27,3.89 4.7,2.6 8.29,6.3 10.73,11.07 2.45,4.78 3.66,10 3.66,15.68 0,8.2 -2.26,15.07 -6.79,20.58 -5.48,6.68 -13.03,10.02 -22.66,10.02 -9.46,0 -16.76,-3.04 -21.87,-9.15 -5.11,-6.09 -7.67,-13.17 -7.67,-21.2 0,-8.28 2.6,-15.49 7.83,-21.66 5.23,-6.15 12.39,-9.24 21.51,-9.24zm0.3 4.31c-2.28,0 -4.24,0.8 -5.87,2.39 -1.64,1.58 -2.72,4.71 -3.22,9.38 -0.53,4.69 -0.78,11.18 -0.78,19.51 0,4.42 0.32,8.54 0.95,12.38 0.48,2.92 1.54,5.16 3.15,6.68 1.61,1.52 3.46,2.28 5.5,2.28 2.02,0 3.71,-0.51 5.04,-1.54 1.75,-1.39 2.9,-3.36 3.5,-5.88 0.9,-3.91 1.33,-11.84 1.33,-23.75 0,-6.99 -0.41,-11.81 -1.27,-14.43 -0.85,-2.62 -2.12,-4.52 -3.78,-5.72 -1.15,-0.87 -2.67,-1.29 -4.56,-1.29zm63.76 -28.79l0 72.02c0,4.12 0.53,6.76 1.56,7.93 1.06,1.14 3.11,1.79 6.17,1.96l0 2.15 -34.4 0 0 -2.15c2.85,-0.09 4.97,-0.83 6.35,-2.26 0.92,-0.95 1.38,-3.51 1.38,-7.63l0 -59.98c0,-4.12 -0.53,-6.74 -1.59,-7.9 -1.06,-1.16 -3.11,-1.82 -6.15,-1.99l0 -2.16 26.66 0zm28.76 -1.9c2.93,0 5.39,0.93 7.41,2.81 2.03,1.88 3.04,4.14 3.04,6.78 0,2.66 -1.01,4.9 -3.06,6.76 -2.05,1.86 -4.51,2.79 -7.39,2.79 -2.9,0 -5.34,-0.93 -7.37,-2.79 -2.03,-1.86 -3.04,-4.1 -3.04,-6.76 0,-2.64 1.01,-4.9 3.04,-6.78 2.03,-1.88 4.47,-2.81 7.37,-2.81zm9.49 28.03l0 45.9c0,4.12 0.53,6.76 1.57,7.93 1.06,1.14 3.11,1.79 6.17,1.96l0 2.15 -34.4 0 0 -2.15c2.85,-0.09 4.97,-0.83 6.35,-2.26 0.92,-0.95 1.38,-3.51 1.38,-7.63l0 -33.85c0,-4.14 -0.53,-6.76 -1.59,-7.93 -1.06,-1.14 -3.11,-1.79 -6.15,-1.96l0 -2.15 26.66 0zm53.58 -1.52l0.97 19.78 -2.35 0c-2.71,-5.85 -5.53,-9.85 -8.45,-12 -2.9,-2.14 -5.8,-3.21 -8.7,-3.21 -1.82,0 -3.38,0.57 -4.67,1.69 -1.29,1.14 -1.93,2.45 -1.93,3.93 0,1.1 0.44,2.18 1.34,3.21 1.43,1.69 5.43,4.56 12,8.66 6.58,4.1 10.89,7.59 12.99,10.44 2.07,2.85 3.11,6.07 3.11,9.6 0,3.21 -0.88,6.36 -2.63,9.45 -1.73,3.08 -4.19,5.45 -7.37,7.1 -3.18,1.65 -6.68,2.47 -10.52,2.47 -2.99,0 -7,-0.87 -12,-2.62 -1.36,-0.44 -2.25,-0.68 -2.76,-0.68 -1.47,0 -2.69,1.06 -3.68,3.17l-2.35 0 -1.11 -20.79 2.35 0c2,5.41 4.77,9.47 8.29,12.17 3.5,2.7 6.82,4.06 9.95,4.06 2.17,0 3.91,-0.61 5.27,-1.82 1.36,-1.23 2.05,-2.68 2.05,-4.42 0,-1.99 -0.67,-3.68 -2,-5.14 -1.36,-1.44 -4.35,-3.61 -9,-6.53 -6.86,-4.37 -11.28,-7.69 -13.31,-10 -2.94,-3.38 -4.42,-7.1 -4.42,-11.18 0,-4.46 1.65,-8.48 4.99,-12.07 3.34,-3.61 8.17,-5.41 14.48,-5.41 3.41,0 6.7,0.78 9.88,2.35 1.2,0.63 2.19,0.95 2.95,0.95 0.81,0 1.47,-0.17 1.96,-0.49 0.48,-0.32 1.27,-1.2 2.35,-2.68l2.35 0zm131.13 30.05l-3.45 29.42 -81.1 0 0 -2.15 3.02 0c2.65,0 4.79,-0.44 6.4,-1.31 1.17,-0.59 2.07,-1.58 2.69,-3 0.49,-0.99 0.74,-3.61 0.74,-7.86l0 -55.41c0,-4.33 -0.26,-7.04 -0.74,-8.12 -0.5,-1.08 -1.49,-2.03 -2.99,-2.83 -1.5,-0.82 -3.52,-1.22 -6.1,-1.22l-3.02 0 0 -2.16 48.77 0 0 2.16 -4.01 0c-2.65,0 -4.79,0.44 -6.42,1.31 -1.17,0.59 -2.09,1.59 -2.79,3 -0.48,0.99 -0.74,3.61 -0.74,7.86l0 53.64c0,4.29 0.28,7.04 0.81,8.22 0.53,1.18 1.59,2.05 3.16,2.64 1.13,0.36 3.84,0.55 8.13,0.55l7.6 0c4.83,0 8.86,-0.78 12.08,-2.35 3.22,-1.56 6.03,-4.04 8.38,-7.42 2.35,-3.38 4.58,-8.37 6.68,-14.96l2.9 0zm44.35 20.79c-7.69,6.26 -14.62,9.38 -20.72,9.38 -3.61,0 -6.61,-1.08 -9,-3.25 -2.37,-2.15 -3.57,-4.88 -3.57,-8.14 0,-4.42 2.07,-8.39 6.22,-11.92 4.14,-3.53 13.17,-8.22 27.08,-14.07l0 -5.81c0,-4.35 -0.26,-7.1 -0.78,-8.24 -0.5,-1.12 -1.49,-2.11 -2.94,-2.96 -1.45,-0.85 -3.08,-1.27 -4.88,-1.27 -2.94,0 -5.37,0.59 -7.25,1.8 -1.17,0.74 -1.75,1.61 -1.75,2.6 0,0.87 0.62,1.92 1.89,3.21 1.7,1.78 2.56,3.49 2.56,5.14 0,2.01 -0.81,3.74 -2.46,5.15 -1.64,1.42 -3.78,2.14 -6.42,2.14 -2.83,0 -5.21,-0.78 -7.12,-2.35 -1.91,-1.56 -2.88,-3.4 -2.88,-5.49 0,-2.98 1.29,-5.81 3.84,-8.52 2.58,-2.68 6.15,-4.75 10.73,-6.21 4.61,-1.44 9.37,-2.15 14.32,-2.15 5.99,0 10.73,1.16 14.21,3.49 3.5,2.32 5.75,4.84 6.79,7.56 0.62,1.73 0.94,5.71 0.94,11.92l0 22.42c0,2.62 0.12,4.29 0.35,4.96 0.23,0.68 0.55,1.18 1.01,1.52 0.46,0.32 0.97,0.49 1.54,0.49 1.2,0 2.39,-0.74 3.64,-2.22l2.03 1.44c-2.26,3.06 -4.58,5.3 -7,6.68 -2.39,1.39 -5.13,2.09 -8.2,2.09 -3.59,0 -6.42,-0.78 -8.45,-2.32 -2.03,-1.56 -3.25,-3.91 -3.71,-7.06zm0 -4.56l0 -19.27c-5.43,2.94 -9.48,6.07 -12.16,9.4 -1.75,2.22 -2.63,4.48 -2.63,6.74 0,1.9 0.74,3.57 2.23,5.01 1.13,1.12 2.7,1.67 4.72,1.67 2.26,0 4.86,-1.18 7.83,-3.55zm59.27 -66.06l0 21.3 14.92 0 0 6.08 -14.92 0 0 35.78c0,3.36 0.16,5.52 0.5,6.49 0.32,0.97 0.92,1.75 1.78,2.35 0.85,0.61 1.64,0.91 2.35,0.91 2.92,0 5.66,-2.03 8.26,-6.09l2.03 1.35c-3.64,7.88 -9.56,11.84 -17.73,11.84 -4.01,0 -7.39,-1.01 -10.15,-3.06 -2.76,-2.05 -4.54,-4.33 -5.29,-6.85 -0.44,-1.42 -0.67,-5.22 -0.67,-11.41l0 -31.3 -8.29 0 0 -2.18c5.68,-3.68 10.52,-7.54 14.52,-11.6 3.99,-4.06 7.49,-8.6 10.45,-13.61l2.23 0zm36.11 -6.72c2.93,0 5.39,0.93 7.41,2.81 2.03,1.88 3.04,4.14 3.04,6.78 0,2.66 -1.01,4.9 -3.06,6.76 -2.05,1.86 -4.52,2.79 -7.39,2.79 -2.9,0 -5.34,-0.93 -7.37,-2.79 -2.03,-1.86 -3.04,-4.1 -3.04,-6.76 0,-2.64 1.01,-4.9 3.04,-6.78 2.03,-1.88 4.47,-2.81 7.37,-2.81zm9.48 28.03l0 45.9c0,4.12 0.53,6.76 1.57,7.93 1.06,1.14 3.11,1.79 6.17,1.96l0 2.15 -34.4 0 0 -2.15c2.86,-0.09 4.97,-0.83 6.35,-2.26 0.92,-0.95 1.38,-3.51 1.38,-7.63l0 -33.85c0,-4.14 -0.53,-6.76 -1.59,-7.93 -1.06,-1.14 -3.11,-1.79 -6.15,-1.96l0 -2.15 26.66 0zm39.63 0l0 7.48c3.22,-3.19 6.33,-5.49 9.3,-6.95 2.97,-1.46 6.15,-2.18 9.55,-2.18 4.1,0 7.48,1.03 10.18,3.13 2.69,2.09 4.49,4.69 5.39,7.77 0.71,2.37 1.08,6.89 1.08,13.57l0 22.57c0,4.46 0.44,7.23 1.31,8.33 0.88,1.1 2.69,1.78 5.46,2.07l0 2.15 -31.91 0 0 -2.15c2.4,-0.3 4.1,-1.2 5.14,-2.73 0.71,-1.03 1.08,-3.59 1.08,-7.67l0 -25.78c0,-4.75 -0.21,-7.76 -0.6,-8.98 -0.41,-1.25 -1.08,-2.2 -2.05,-2.9 -0.97,-0.68 -2.03,-1.02 -3.2,-1.02 -3.84,0 -7.41,2.49 -10.73,7.48l0 31.19c0,4.33 0.44,7.08 1.31,8.22 0.88,1.16 2.51,1.88 4.9,2.18l0 2.15 -31.91 0 0 -2.15c2.65,-0.26 4.51,-1.04 5.64,-2.35 0.76,-0.91 1.13,-3.59 1.13,-8.05l0 -32.84c0,-4.42 -0.44,-7.19 -1.31,-8.26 -0.88,-1.1 -2.7,-1.8 -5.46,-2.14l0 -2.15 25.7 0zm80.75 -1.65c5.46,0 10.55,1.29 15.27,3.89 4.7,2.6 8.29,6.3 10.73,11.07 2.44,4.78 3.66,10 3.66,15.68 0,8.2 -2.26,15.07 -6.79,20.58 -5.48,6.68 -13.03,10.02 -22.66,10.02 -9.46,0 -16.76,-3.04 -21.87,-9.15 -5.11,-6.09 -7.67,-13.17 -7.67,-21.2 0,-8.28 2.6,-15.49 7.83,-21.66 5.23,-6.15 12.39,-9.24 21.51,-9.24zm0.3 4.31c-2.28,0 -4.24,0.8 -5.87,2.39 -1.64,1.58 -2.72,4.71 -3.22,9.38 -0.53,4.69 -0.78,11.18 -0.78,19.51 0,4.42 0.32,8.54 0.94,12.38 0.48,2.92 1.54,5.16 3.15,6.68 1.61,1.52 3.46,2.28 5.5,2.28 2.03,0 3.71,-0.51 5.04,-1.54 1.75,-1.39 2.9,-3.36 3.5,-5.88 0.9,-3.91 1.33,-11.84 1.33,-23.75 0,-6.99 -0.41,-11.81 -1.27,-14.43 -0.85,-2.62 -2.12,-4.52 -3.78,-5.72 -1.15,-0.87 -2.67,-1.29 -4.56,-1.29zm-634.78 146.02l25.01 -55.44 37.05 0 0 2.16 -2.97 0c-2.67,0 -4.83,0.44 -6.45,1.33 -1.13,0.59 -2.03,1.56 -2.69,2.96 -0.49,1.02 -0.74,3.63 -0.74,7.88l0 55.41c0,4.33 0.25,7.04 0.74,8.12 0.5,1.08 1.49,2.03 3.04,2.83 1.52,0.82 3.55,1.23 6.1,1.23l2.97 0 0 2.15 -47.66 0 0 -2.15 2.97 0c2.67,0 4.84,-0.44 6.45,-1.31 1.13,-0.59 2.03,-1.58 2.69,-3 0.48,-0.99 0.74,-3.61 0.74,-7.86l0 -62.21 -35.19 76.54 -1.61 0 -35.67 -75.99 0 59.13c0,4.16 0.12,6.72 0.35,7.67 0.6,2.07 1.87,3.76 3.82,5.07 1.96,1.31 5.04,1.96 9.23,1.96l0 2.15 -31.36 0 0 -2.15 0.97 0c2.03,0.04 3.91,-0.26 5.66,-0.91 1.77,-0.66 3.09,-1.52 3.99,-2.6 0.92,-1.08 1.61,-2.6 2.09,-4.56 0.09,-0.46 0.14,-2.58 0.14,-6.38l0 -53.13c0,-4.33 -0.23,-7.04 -0.74,-8.09 -0.48,-1.08 -1.49,-2.03 -3.04,-2.85 -1.54,-0.82 -3.59,-1.22 -6.15,-1.22l-2.92 0 0 -2.16 37.35 0 25.83 55.44zm104.03 20.01c-7.69,6.26 -14.62,9.38 -20.72,9.38 -3.62,0 -6.61,-1.08 -9,-3.25 -2.37,-2.15 -3.57,-4.88 -3.57,-8.14 0,-4.42 2.07,-8.39 6.22,-11.92 4.14,-3.53 13.17,-8.22 27.08,-14.07l0 -5.81c0,-4.35 -0.26,-7.1 -0.78,-8.24 -0.51,-1.12 -1.49,-2.11 -2.95,-2.96 -1.45,-0.85 -3.08,-1.27 -4.88,-1.27 -2.94,0 -5.37,0.59 -7.25,1.8 -1.17,0.74 -1.75,1.61 -1.75,2.6 0,0.87 0.62,1.92 1.89,3.21 1.7,1.78 2.56,3.49 2.56,5.14 0,2.01 -0.81,3.74 -2.46,5.15 -1.64,1.42 -3.78,2.14 -6.42,2.14 -2.83,0 -5.21,-0.78 -7.12,-2.35 -1.91,-1.56 -2.88,-3.4 -2.88,-5.49 0,-2.98 1.29,-5.81 3.84,-8.52 2.58,-2.68 6.15,-4.75 10.73,-6.21 4.61,-1.44 9.37,-2.15 14.32,-2.15 5.99,0 10.73,1.16 14.21,3.49 3.5,2.32 5.76,4.84 6.79,7.56 0.62,1.73 0.94,5.71 0.94,11.92l0 22.42c0,2.62 0.12,4.29 0.35,4.96 0.23,0.68 0.55,1.18 1.01,1.52 0.46,0.32 0.97,0.49 1.54,0.49 1.2,0 2.39,-0.74 3.64,-2.22l2.03 1.44c-2.26,3.06 -4.58,5.3 -7,6.68 -2.39,1.39 -5.13,2.09 -8.19,2.09 -3.59,0 -6.43,-0.78 -8.45,-2.32 -2.03,-1.56 -3.25,-3.91 -3.71,-7.06zm0 -4.56l0 -19.27c-5.44,2.94 -9.49,6.07 -12.16,9.4 -1.75,2.22 -2.63,4.48 -2.63,6.74 0,1.9 0.74,3.57 2.23,5.01 1.13,1.12 2.7,1.67 4.72,1.67 2.26,0 4.86,-1.18 7.83,-3.55zm60.37 -44.76l0.05 13.19c4.14,-5.98 7.81,-9.95 10.93,-11.9 3.13,-1.96 6.15,-2.94 9.05,-2.94 2.51,0 4.53,0.72 6.03,2.14 1.5,1.42 2.26,3.42 2.26,6.02 0,2.75 -0.74,4.9 -2.19,6.43 -1.45,1.52 -3.2,2.28 -5.27,2.28 -2.37,0 -4.42,-0.7 -6.15,-2.09 -1.75,-1.42 -2.79,-2.2 -3.09,-2.34 -0.46,-0.26 -0.97,-0.38 -1.55,-0.38 -1.29,0 -2.53,0.44 -3.68,1.35 -1.84,1.42 -3.22,3.42 -4.17,6.02 -1.42,4 -2.14,8.41 -2.14,13.25l0.05 13.29 0 3.49c0,2.37 0.16,3.89 0.48,4.56 0.53,1.12 1.34,1.95 2.4,2.45 1.08,0.53 2.88,0.85 5.41,0.97l0 2.15 -34.26 0 0 -2.15c2.76,-0.21 4.63,-0.91 5.59,-2.07 0.97,-1.18 1.45,-4.29 1.45,-9.34l0 -32.08c0,-3.36 -0.18,-5.49 -0.55,-6.42 -0.44,-1.18 -1.11,-2.03 -1.96,-2.58 -0.85,-0.55 -2.37,-0.93 -4.54,-1.14l0 -2.15 25.83 0zm60.79 -26.12l0 55.39 14.62 -13.29c3.02,-2.66 4.9,-4.61 5.64,-5.83 0.74,-1.2 1.11,-2.39 1.11,-3.53 0,-1.12 -0.48,-2.07 -1.47,-2.83 -0.99,-0.74 -2.93,-1.29 -5.8,-1.63l0 -2.15 28.37 0 0 2.15c-2.72,0.13 -5.07,0.72 -7.09,1.8 -2.03,1.06 -5.99,4.27 -11.88,9.61l-6.91 6.3 14.85 19.91c5.99,8.12 9.53,12.66 10.66,13.65 1.54,1.42 3.48,2.2 5.8,2.37l0 2.15 -32.58 0 0 -2.15c1.43,0 2.49,-0.26 3.13,-0.74 0.64,-0.51 0.99,-1.03 0.99,-1.63 0,-0.95 -0.94,-2.73 -2.83,-5.28l-12.57 -16.86 -4.03 3.66 0 10.46c0,4.44 0.46,7.21 1.36,8.3 0.9,1.1 2.76,1.8 5.55,2.09l0 2.15 -32.6 0 0 -2.15c2.65,-0.26 4.51,-1.04 5.64,-2.37 0.76,-0.91 1.13,-3.59 1.13,-8.03l0 -58.96c0,-4.42 -0.44,-7.18 -1.29,-8.26 -0.88,-1.1 -2.69,-1.8 -5.48,-2.14l0 -2.16 25.7 0zm104.72 53l-34.68 0c0.42,7.67 2.65,13.74 6.7,18.2 3.11,3.42 6.84,5.14 11.21,5.14 2.71,0 5.15,-0.7 7.37,-2.07 2.21,-1.37 4.58,-3.87 7.09,-7.44l2.3 1.39c-3.41,6.36 -7.21,10.89 -11.33,13.53 -4.15,2.64 -8.94,3.97 -14.39,3.97 -9.35,0 -16.44,-3.3 -21.25,-9.89 -3.86,-5.31 -5.8,-11.9 -5.8,-19.78 0,-9.64 2.85,-17.31 8.54,-23.01 5.69,-5.71 12.37,-8.56 20.01,-8.56 6.38,0 11.93,2.39 16.62,7.19 4.7,4.8 7.23,11.92 7.6,21.34zm-16.58 -4.06c0,-6.64 -0.39,-11.2 -1.17,-13.67 -0.8,-2.47 -2.02,-4.35 -3.68,-5.62 -0.94,-0.74 -2.21,-1.12 -3.8,-1.12 -2.33,0 -4.24,1.06 -5.73,3.15 -2.65,3.68 -3.98,8.71 -3.98,15.11l0 2.16 18.37 0zm49.44 -44.13l0 21.3 14.92 0 0 6.08 -14.92 0 0 35.78c0,3.36 0.16,5.52 0.51,6.49 0.32,0.97 0.92,1.75 1.77,2.35 0.85,0.61 1.64,0.91 2.35,0.91 2.93,0 5.66,-2.03 8.26,-6.09l2.03 1.35c-3.64,7.88 -9.56,11.83 -17.73,11.83 -4.01,0 -7.39,-1.01 -10.16,-3.06 -2.76,-2.05 -4.54,-4.33 -5.29,-6.85 -0.44,-1.42 -0.67,-5.22 -0.67,-11.41l0 -31.3 -8.29 0 0 -2.18c5.68,-3.68 10.52,-7.54 14.53,-11.6 3.98,-4.06 7.48,-8.6 10.45,-13.61l2.23 0zm-517.29 174.65l-32.03 0 -3.98 8.2c-1.27,2.75 -1.89,5.03 -1.89,6.83 0,2.39 1.03,4.14 3.09,5.28 1.22,0.66 4.21,1.16 8.98,1.5l0 2.15 -30.42 0 0 -2.15c3.27,-0.47 5.99,-1.73 8.08,-3.78 2.12,-2.07 4.74,-6.34 7.83,-12.81l32.7 -66.97 1.29 0 33 68.83c3.15,6.59 5.73,10.76 7.76,12.47 1.54,1.31 3.68,2.05 6.49,2.26l0 2.15 -44.25 0 0 -2.15 1.82 0c3.55,0 6.05,-0.47 7.48,-1.4 0.99,-0.65 1.47,-1.62 1.47,-2.87 0,-0.76 -0.12,-1.54 -0.39,-2.34 -0.09,-0.36 -0.76,-1.95 -2.02,-4.71l-5 -10.48zm-2.17 -4.56l-13.65 -28.63 -13.98 28.63 27.63 0zm74.03 -55.54l0 72.02c0,4.12 0.53,6.76 1.56,7.93 1.06,1.14 3.11,1.79 6.17,1.96l0 2.15 -34.4 0 0 -2.15c2.86,-0.09 4.97,-0.83 6.35,-2.26 0.92,-0.95 1.38,-3.51 1.38,-7.63l0 -59.98c0,-4.12 -0.53,-6.74 -1.59,-7.9 -1.06,-1.16 -3.11,-1.82 -6.15,-1.99l0 -2.16 26.66 0zm38.39 0l0 72.02c0,4.12 0.53,6.76 1.56,7.93 1.06,1.14 3.11,1.79 6.17,1.96l0 2.15 -34.4 0 0 -2.15c2.86,-0.09 4.97,-0.83 6.36,-2.26 0.92,-0.95 1.38,-3.51 1.38,-7.63l0 -59.98c0,-4.12 -0.53,-6.74 -1.59,-7.9 -1.06,-1.16 -3.11,-1.82 -6.15,-1.99l0 -2.16 26.67 0zm77.16 86.54l-20.38 -43.05c-3.06,-6.55 -5.32,-10.59 -6.77,-12.09 -1.47,-1.5 -3.22,-2.54 -5.3,-3.13l0 -2.15 33.57 0 0 2.15c-2.19,0.09 -3.76,0.49 -4.66,1.18 -0.9,0.72 -1.33,1.56 -1.33,2.58 0,1.56 1.1,4.69 3.36,9.36l10.8 22.84 7.37 -17.6c2.65,-6.3 3.96,-10.69 3.96,-13.17 0,-1.54 -0.55,-2.77 -1.63,-3.7 -1.11,-0.91 -3.06,-1.42 -5.85,-1.5l0 -2.15 20.95 0 0 2.15c-2.07,0.21 -3.75,0.95 -5.07,2.22 -1.31,1.27 -3.48,5.6 -6.54,13l-17.96 42.99c-4.54,10.72 -7.9,17.31 -10.11,19.78 -3.11,3.47 -6.98,5.2 -11.65,5.2 -3.73,0 -6.77,-0.99 -9.07,-2.96 -2.32,-1.96 -3.48,-4.33 -3.48,-7.1 0,-2.41 0.81,-4.4 2.4,-5.96 1.61,-1.59 3.57,-2.37 5.92,-2.37 2.26,0 4.08,0.66 5.46,1.99 1.36,1.33 2.07,3.4 2.12,6.19 0.05,1.59 0.23,2.6 0.55,3.04 0.39,0.46 0.92,0.7 1.61,0.7 1.06,0 2.21,-0.59 3.43,-1.8 1.79,-1.75 3.89,-5.72 6.33,-11.94l1.96 -4.71zm69.86 -62.07c5.46,0 10.55,1.29 15.27,3.89 4.7,2.6 8.29,6.3 10.73,11.07 2.44,4.78 3.66,10 3.66,15.68 0,8.2 -2.26,15.07 -6.79,20.58 -5.48,6.68 -13.03,10.02 -22.66,10.02 -9.46,0 -16.76,-3.04 -21.87,-9.15 -5.11,-6.09 -7.67,-13.17 -7.67,-21.2 0,-8.28 2.6,-15.49 7.83,-21.66 5.23,-6.15 12.39,-9.24 21.51,-9.24zm0.3 4.31c-2.28,0 -4.24,0.8 -5.87,2.39 -1.64,1.58 -2.72,4.71 -3.23,9.38 -0.53,4.69 -0.78,11.18 -0.78,19.51 0,4.42 0.32,8.54 0.94,12.38 0.48,2.92 1.54,5.16 3.15,6.68 1.61,1.52 3.46,2.28 5.5,2.28 2.03,0 3.71,-0.51 5.04,-1.54 1.75,-1.39 2.9,-3.36 3.5,-5.88 0.9,-3.91 1.33,-11.83 1.33,-23.75 0,-6.99 -0.41,-11.81 -1.27,-14.43 -0.85,-2.62 -2.12,-4.52 -3.78,-5.73 -1.15,-0.87 -2.67,-1.29 -4.56,-1.29zm99.96 -2.66l0 45.39c0,4.44 0.44,7.21 1.34,8.3 0.9,1.1 2.71,1.8 5.43,2.09l0 2.15 -25.7 0 0 -7.73c-3.02,3.3 -6.03,5.68 -9.05,7.16 -3.01,1.48 -6.38,2.22 -10.13,2.22 -3.54,0 -6.7,-0.99 -9.48,-3 -2.76,-2.01 -4.61,-4.35 -5.55,-7.02 -0.94,-2.68 -1.43,-7.37 -1.43,-14.06l0 -22.97c0,-4.42 -0.44,-7.18 -1.31,-8.26 -0.88,-1.1 -2.69,-1.8 -5.46,-2.14l0 -2.15 25.7 0 0 39.58c0,4.12 0.21,6.78 0.64,7.99 0.41,1.2 1.11,2.11 2.03,2.73 0.92,0.61 1.98,0.93 3.2,0.93 1.61,0 3.06,-0.4 4.37,-1.18 1.79,-1.08 3.96,-3.23 6.47,-6.51l0 -30.98c0,-4.42 -0.44,-7.18 -1.31,-8.26 -0.88,-1.1 -2.69,-1.8 -5.46,-2.14l0 -2.15 25.69 0z"/>
   <path class="fil8" d="M634.11 1014.21l0 7.48c3.22,-3.19 6.33,-5.49 9.3,-6.95 2.97,-1.46 6.15,-2.18 9.55,-2.18 4.1,0 7.48,1.03 10.18,3.13 2.69,2.09 4.49,4.69 5.39,7.78 0.71,2.37 1.08,6.89 1.08,13.57l0 22.57c0,4.46 0.44,7.23 1.31,8.33 0.88,1.1 2.7,1.78 5.46,2.07l0 2.15 -31.91 0 0 -2.15c2.4,-0.3 4.1,-1.2 5.13,-2.73 0.71,-1.03 1.08,-3.59 1.08,-7.67l0 -25.78c0,-4.75 -0.21,-7.76 -0.6,-8.98 -0.41,-1.25 -1.08,-2.2 -2.05,-2.9 -0.97,-0.68 -2.03,-1.02 -3.2,-1.02 -3.84,0 -7.41,2.49 -10.73,7.48l0 31.19c0,4.33 0.44,7.08 1.31,8.22 0.88,1.16 2.51,1.88 4.9,2.18l0 2.15 -31.91 0 0 -2.15c2.65,-0.26 4.52,-1.04 5.64,-2.35 0.76,-0.91 1.13,-3.59 1.13,-8.05l0 -32.84c0,-4.42 -0.44,-7.18 -1.31,-8.26 -0.88,-1.1 -2.69,-1.8 -5.46,-2.14l0 -2.15 25.7 0zm104.47 26.88l-34.68 0c0.42,7.67 2.65,13.74 6.7,18.2 3.11,3.42 6.84,5.13 11.21,5.13 2.71,0 5.16,-0.7 7.37,-2.07 2.21,-1.37 4.58,-3.87 7.09,-7.44l2.3 1.39c-3.41,6.36 -7.2,10.89 -11.33,13.53 -4.14,2.64 -8.93,3.97 -14.39,3.97 -9.35,0 -16.44,-3.3 -21.25,-9.89 -3.87,-5.31 -5.8,-11.9 -5.8,-19.78 0,-9.64 2.86,-17.31 8.54,-23.01 5.69,-5.71 12.36,-8.56 20.01,-8.56 6.38,0 11.93,2.39 16.62,7.19 4.7,4.8 7.23,11.92 7.6,21.34zm-16.58 -4.06c0,-6.64 -0.39,-11.2 -1.17,-13.67 -0.8,-2.47 -2.03,-4.35 -3.68,-5.62 -0.94,-0.74 -2.21,-1.12 -3.8,-1.12 -2.33,0 -4.24,1.06 -5.73,3.15 -2.65,3.68 -3.98,8.71 -3.98,15.11l0 2.16 18.37 0zm77.89 4.06l-34.68 0c0.42,7.67 2.65,13.74 6.7,18.2 3.11,3.42 6.84,5.13 11.21,5.13 2.72,0 5.16,-0.7 7.37,-2.07 2.21,-1.37 4.58,-3.87 7.09,-7.44l2.3 1.39c-3.41,6.36 -7.21,10.89 -11.33,13.53 -4.14,2.64 -8.93,3.97 -14.39,3.97 -9.35,0 -16.44,-3.3 -21.25,-9.89 -3.87,-5.31 -5.8,-11.9 -5.8,-19.78 0,-9.64 2.86,-17.31 8.54,-23.01 5.69,-5.71 12.36,-8.56 20.01,-8.56 6.38,0 11.93,2.39 16.62,7.19 4.7,4.8 7.23,11.92 7.6,21.34zm-16.58 -4.06c0,-6.64 -0.39,-11.2 -1.17,-13.67 -0.8,-2.47 -2.03,-4.35 -3.69,-5.62 -0.94,-0.74 -2.21,-1.12 -3.8,-1.12 -2.33,0 -4.24,1.06 -5.73,3.15 -2.65,3.68 -3.98,8.71 -3.98,15.11l0 2.16 18.37 0zm85.63 -48.95l0 66.7c0,4.46 0.14,7.1 0.41,7.92 0.34,1.35 1.03,2.37 2.05,3.02 0.99,0.66 2.76,1.06 5.27,1.23l0 2.15 -26.66 4.69 0 -9.17c-3.18,3.55 -6.01,5.98 -8.49,7.25 -2.49,1.29 -5.3,1.92 -8.43,1.92 -8.01,0 -14.37,-3.3 -19.02,-9.89 -3.75,-5.35 -5.64,-11.92 -5.64,-19.72 0,-6.21 1.17,-11.79 3.5,-16.72 2.32,-4.92 5.5,-8.64 9.58,-11.16 4.05,-2.52 8.4,-3.76 13.05,-3.76 2.99,0 5.67,0.53 7.99,1.61 2.32,1.08 4.81,2.94 7.46,5.62l0 -17.62c0,-4.37 -0.21,-7.02 -0.6,-7.93 -0.55,-1.18 -1.36,-2.05 -2.44,-2.62 -1.08,-0.57 -3.11,-0.86 -6.08,-0.86l0 -2.66 28.04 0zm-18.93 39.31c-3.29,-5.83 -7.34,-8.75 -12.11,-8.75 -1.66,0 -3.02,0.4 -4.1,1.22 -1.64,1.29 -2.99,3.53 -4.05,6.74 -1.04,3.21 -1.57,8.13 -1.57,14.75 0,7.29 0.58,12.68 1.75,16.19 1.15,3.51 2.74,6.02 4.74,7.59 1.03,0.78 2.44,1.18 4.21,1.18 3.94,0 7.64,-2.85 11.12,-8.54l0 -30.39z"/>
  </g>
 </g>
</svg>
