<?xml version="1.0" encoding="UTF-8"?>
<!DOCTYPE svg PUBLIC "-//W3C//DTD SVG 1.1//EN" "http://www.w3.org/Graphics/SVG/1.1/DTD/svg11.dtd">
<!-- Creator: CorelDRAW 2019 (64-Bit) -->
<svg xmlns="http://www.w3.org/2000/svg" xml:space="preserve" width="279.4mm" height="304.8mm" version="1.1" style="shape-rendering:geometricPrecision; text-rendering:geometricPrecision; image-rendering:optimizeQuality; fill-rule:evenodd; clip-rule:evenodd"
viewBox="0 0 27940 30480"
 xmlns:xlink="http://www.w3.org/1999/xlink">
 <defs>
  <style type="text/css">
   <![CDATA[
    .str0 {stroke:black;stroke-width:20;stroke-miterlimit:22.9256}
    .fil3 {fill:black}
    .fil0 {fill:black}
    .fil5 {fill:#626262}
    .fil6 {fill:#747474}
    .fil4 {fill:#848484}
    .fil1 {fill:#FBB829}
    .fil2 {fill:#FEFEFE}
   ]]>
  </style>
 </defs>
 <g id="Capa_x0020_1">
  <metadata id="CorelCorpID_0Corel-Layer"/>
  <g id="_2046060131696">
   <path class="fil0 str0" d="M11751.08 27607.54l-385.02 -51.47c17.8,-99.28 504.44,-897.52 613.73,-1127.81l449.37 59.93c40.67,78.03 243.35,1124.36 257.07,1264.03l-409.21 -56.12 -24.76 -173.7 -417.52 -61.69 -83.66 146.83zm1735.1 -5196.47l-640.59 -5.31c-48.6,-140.7 -19.11,-3054.72 -13.97,-3452.14l5185.08 -2.01 0.84 3436.94c-240.72,25.11 -2930.03,18.22 -2995.47,-9.22l0.04 -1795.69c0.5,-116.16 19.78,-194.02 -39.14,-270.22 -50.48,-153.32 -154.82,-137.25 -327.92,-136.52 -161.02,0.68 -322.14,0.13 -483.17,0.13 -560.96,0 -677.92,-76.25 -676.78,309.88 0.74,246.89 18.83,1847.74 -8.92,1924.16zm-4332.36 -11743.51c240.99,-33.18 2946.42,-10.13 3433.44,-10.15 269.3,-0.01 926.8,-33.25 1150.81,8.21l6.44 917.76c-333.78,24.57 -783.72,2.94 -1137.93,2.94 -425.36,0 -3287.36,23.45 -3451.59,-10.29l-1.17 -908.47zm2957.93 8174.22c70.95,139.56 158.27,81.58 310.31,108.2 28.96,208.42 10.29,3404.53 -7.15,3448.66 -174.98,26.15 -2843.87,7.11 -2873.31,-6.01 -49.43,-40.03 -18.96,-2523.58 -18.96,-2581.31 0,-991.6 -20.77,-7762.42 14.27,-7797.48 43.82,-43.84 3178.03,-6.85 3728.02,-15.79 203.24,-3.31 147,-63.1 147,708.04 0,484.53 40.46,4520.01 -18.09,4610.6 -58.27,52.82 -986.02,-9.08 -1154.09,18.7 -86.08,14.23 -81.93,26.2 -110.7,81.68 -78.5,104.07 -44.62,526.36 -44.62,695.17 0,206.11 -29.26,561.33 27.32,729.54zm346.16 -313.02l-6.86 -761.85 5887.4 -4.82 0.77 766.23 -5881.31 0.44zm1370.68 8600.27c54.06,43.16 14.15,16.94 30.11,-0.1l14.25 -544.84c112.8,-30.14 267.79,-21.38 374.57,6.04 22.2,118 4.14,279.86 1.4,403.65l-9.15 365.75c-6.95,34.47 -7.62,24.01 -17.73,40.87l2.8 398.05c-362.6,50.54 -367.82,-16.26 -512.84,-190.64 -53.65,-64.51 -285.81,-352.28 -341.77,-375.23l-9.12 554.57 -360.51 -0.45 17.52 -1206.29c364.61,-36.41 332.7,-4.39 492.52,185.71 62.67,74.56 256.13,320.64 317.95,362.91zm685 -564.34c215.11,-23 622.31,-106.12 824.92,-59.64 469.41,107.69 603.53,909.35 131.94,1130.3 -137.03,64.2 -611.01,136.28 -796.13,133.53 -36.14,-65.91 -164.94,-1067.94 -160.73,-1204.19zm2895.5 111.37c113.5,-33.07 228.31,-98.51 338.31,-108.19 87.6,424.07 -126.05,598.33 -473.18,689.72 -410.63,108.09 -625.52,-103.46 -736.18,-427.42 -294.72,-862.83 991.66,-1116.87 1124.27,-492.85l-338.44 123.32c-81.37,-94.11 -145.98,-238.9 -335.47,-127.68 -220.81,129.58 -46.51,636.8 178.68,642.2 68.02,1.63 154.12,-34.03 194.71,-76.05 69.59,-72.03 40.42,-125.96 47.3,-223.05zm387.37 -473.9c-188.03,-702.2 1101.11,-1240.51 1331.16,-241.96 157.07,681.8 -1068.06,1224.53 -1331.16,241.96zm-7693.21 642.98c96.81,22.93 502.75,159.05 570.48,206.56l-92.25 270.1c-73.41,-5.41 -864.32,-282.07 -951.24,-328.02 6.18,-124.74 333.58,-975.43 395.33,-1145.59l364.59 117.94c-25.27,242.29 -264.54,625.42 -286.91,879.01zm-706.93 38.14c-85.32,-5.84 -271.38,-108.5 -359.55,-159.81l11.89 -192.73c-82.55,-55.3 -160.96,-79.37 -252.01,-131.62 -173.24,-99.41 -141.42,-31.97 -248.26,56.12l-348.91 -168.62c35.64,-64.62 867.82,-832.75 947.98,-882.77l402.18 196.29 -153.32 1283.14zm4505.01 -1183.95c-448.67,0.03 -1561.69,-54.81 -1891.79,-211.55 -47.53,-258.38 -0.5,-847.77 -0.5,-1139.15l1.05 -1524.21 267.97 -6.32c1067.05,6.75 2168.68,-12.68 3229.93,1.99 32.12,550.34 2.04,1999.45 -4.28,2667 -505.82,129.3 -1029.96,212.19 -1602.38,212.24zm-5894.03 426.24c-82.41,-21.42 -240.05,-147.21 -316.53,-185.17 19.35,-118.96 619.41,-1001.46 664.37,-1038.51l317.02 193.55c-22.8,94.27 -263.64,429.6 -322.14,521.73 -77.87,122.65 -258.06,424.5 -342.72,508.4zm11537.82 -667.95c-65.23,-25.74 -24.16,-19.13 -36.93,18.92 55.2,69.81 330.69,401.36 338.45,493.93l-262.43 188.32c-58.34,-42.14 -685.54,-911.19 -718.55,-979.94 37.61,-55.43 370.7,-302.68 446.58,-321.91 79.06,63.66 492.33,417.77 552.02,432.39 -51.32,-170.02 -229.54,-512.35 -246.53,-676.6 99.89,-60.25 325.73,-262.07 428.85,-288.18l711.72 967.63c-42.24,53.87 -245.05,199.09 -305.9,229.82 -119.26,-99.59 -348.27,-502.3 -442.19,-610.2 31.04,220.21 237.51,534 258.41,760.18l-236.59 158.67 -486.91 -373.03zm-12252.83 -1368.13l119.62 82.01c157.62,129.48 748.31,583.36 798.29,659.81l-124.96 174.46c-43.58,46.29 -17.47,23.28 -58.61,48.25 -117.75,-49.85 -201.6,-175.02 -309.2,-220.93 -123.18,102.97 -477.43,625.16 -579.74,689.18l-287.6 -226.15c27.46,-136.3 504.86,-576.09 545.1,-742.98l-282.5 -218.05c19.18,-85.97 121.37,-204.09 179.6,-245.6zm13548.97 305.28c-60.02,-7.44 -24.13,-10.92 -35.59,20.55 131.02,107.81 328.6,286.13 433.86,415.99 -19.1,53.51 -181.28,222.5 -246.04,249.91 -80.99,-66.04 -800.64,-751.45 -856.38,-848.44l371.2 -385.41 627.15 346.41 -352.29 -614.66c43.97,-83.48 263.19,-305.77 364.92,-378.16 62.25,27.71 64.21,38.71 124.24,96.93l319.86 317.53c138.73,139.34 334.49,301 424.61,424.28 -28.72,65.32 -217.45,248.31 -269.64,270.69 -98.99,-78.03 -410.58,-430.18 -490.39,-470.65 50.24,180.22 268.75,437.55 342.23,624.73 -40.38,82.46 -132.84,165.66 -199.69,215.52 -153.1,-28.92 -408.83,-240.69 -558.05,-285.22zm-14289.36 -254.45c127.54,-55.31 309.16,-310.54 431.2,-374.67 53.79,31.38 200.98,189.57 235.87,254.74 -30.3,48.44 -816.75,805.17 -892.92,824.83 -390.25,-382.77 -153.66,-215 -153.08,-998.22 -114.48,51.19 -294.99,298.88 -426.66,370.52 -60.78,-36.62 -201.9,-183.15 -232.73,-255.05 75.13,-94.97 326.01,-312.55 426.14,-405.39 135.84,-125.95 301.95,-315.23 444.31,-413.55 84.43,30.96 118.53,101.4 175.74,160.95 86.68,90.2 70.95,87.15 53.19,234.23 -23.26,192.74 -56.02,404.59 -61.06,601.61zm-993.42 -1394.24c66.57,126.05 275.23,355.96 305.67,463.39l-211.33 155.89 -328.48 -448.24c-52.77,12.11 -35.19,2.9 -84.88,36.53 -45.37,30.71 -39.85,31.73 -62.61,62.74 47.14,132.96 326.46,422.57 366.66,571.72l-220.54 144.1c-62.91,-44.2 -599.71,-812.52 -618.56,-870.28 91.61,-95.16 573.15,-410.46 740.42,-532.26 70.44,-51.29 175.58,-149.72 262.83,-164.93l602.86 846.45 -230.15 170.06 -388 -531.42c-67.35,22.2 -105.82,55.63 -133.89,96.25zm12832.13 -3817.12c505.06,-62.49 267.69,-83.52 332.1,-1079.2 49.06,15.64 174.08,125.6 220.4,167.59l70.94 75.58 -0.5 5787.87c-110.52,-11.8 -122.17,-49.2 -189.91,-106.66 -62.56,-53.07 -112.03,-92.05 -157.82,-131.23l-777.34 -651.54c-27.13,-22.44 -48.1,-37.89 -74.79,-59 -58.12,-45.97 -51.47,-29.91 -80.75,-103.9 156.6,-29.87 382.78,-6.92 557.47,-8.17 148.75,-1.06 126.36,-64.82 94.04,-442.35 -25.41,-296.78 -2.78,-1860.28 -2.78,-2296.33 0,-283.27 -33.54,-909.27 8.94,-1152.66zm-3851.56 3501.08l-683.97 -2.37c-39.09,-74.73 -25.81,-118.67 -25.81,-202.89 0,-338.89 -18.17,-1417.91 14.06,-1676.96 35.21,-6.06 675.17,-24.09 752.89,-5.73 32.21,7.62 26.8,10.71 42.27,20.9 40.65,45.6 17.71,1462.08 18.12,1739.85 0.18,118.34 -1.18,127.2 -117.56,127.2zm7176.27 489.81c52.23,43.95 64.5,60.94 136.18,82.07l317.96 -445.67c73.07,22.9 163.37,108.06 223.97,139.87 -39.48,160.85 -271.2,342.07 -314.12,492.98 64.76,39.67 67.8,65.04 162.32,88.81l372.41 -528.65c81.74,20.19 166.7,105.51 235.98,147.2 -16.49,84.08 -567.54,829.02 -619.74,875.24 -76.41,-34.49 -942.42,-662.62 -986.36,-716.69l600.66 -847.2c60.11,13.85 197.8,105.95 236.17,171.43 -61.7,120.88 -343.92,443.91 -365.43,540.61zm1674.43 -942.59c-161.72,32.11 -337.56,-13.65 -502.44,2.76 -38.96,53.75 -49.05,74.8 -59.18,132.01 96.49,42.89 293.87,138.69 371.82,209.29 -21.9,75.64 -130.12,278.88 -177.37,329.06 -88.28,-20.23 -434.21,-221.58 -536.38,-276.86 -166.36,-90.03 -365.88,-202.67 -539.14,-290.1 25.62,-89.47 358.88,-695.71 416.83,-768.28 223.03,-279.33 642.62,-143.49 654.91,277.09l556.63 5.05c3.07,69.81 -141.89,313.9 -185.68,379.98zm-19396.99 -408.94c104.69,-64.37 1008.56,-548.39 1087.71,-567.57 225.18,457.52 637.04,987.31 -3.97,1327.69 -582.01,309.06 -791.32,-159.52 -1005.32,-574.88l-78.42 -185.24zm-163.45 -339.83l-130.33 -352.35 1145.54 -459.5 140.16 357.19c-71.89,57.26 -1046.92,446.17 -1155.37,454.66zm19488.86 -897.55c-369.55,-21.43 -453.06,323 -64.2,465.01 454.38,165.93 489.55,-222.53 359.79,-339.42l-73.87 -65.99 112.48 -316.6c606.77,121.4 364.91,1439.43 -541.95,1096.48 -846.24,-320.02 -254.94,-1461.32 326.6,-1185.33l-118.85 345.85zm-19658.92 -938.64l101.28 340.01c-93.51,70.91 -129.9,77.45 -96.25,227.55 18.77,83.76 56.68,193.71 149.49,141.9 87.03,-114.41 -20.44,-489.01 70.94,-662.64 83.45,-158.57 338.36,-249.24 521.95,-104.18 280.11,221.31 385.19,946.08 -13.08,992.5l-101.05 -322.58c44.83,-89.08 106.15,-59.68 78.09,-206.54 -17.71,-92.76 -51.42,-143.01 -147.25,-137.16 -90.07,175.88 55.88,489.3 -74.68,697.8 -142.42,227.44 -693.42,311.16 -789.23,-497.46 -28.21,-238.16 83.87,-456.38 299.79,-469.2zm19441.79 -143.07c124,-0.86 940.48,234.35 1185.7,284.72 14.98,84.59 -59.05,289.37 -76.42,382.98l-1192.58 -294.89 83.3 -372.81zm-18761.62 -216.69c-59.46,45.21 -157.48,52.62 -228.58,38.79l-38.07 -237.75 -52.05 -411.04 -157.57 7.13c-23.17,143.24 74.18,401.12 62.48,570.73l-265.25 43.48 -89.75 -554.67 -177.62 14.05 89.79 679.19 -291.9 40.52 -161.27 -1058.84 1220.48 -187 162.05 1049.61 -72.74 5.8zm20182.4 -676.16l-175.54 34.08 -63.03 415.89c41.6,32.49 25.76,21.46 68.23,44.18 30.36,16.23 51.94,23.06 83.32,34.09 3.74,104.76 -17.67,306.39 -59.49,390.62 -147.39,-30.94 -895.8,-505.01 -1130.97,-593.24 1.46,-129.28 24.58,-384.7 73.42,-473.22l1255.36 -257.61 -51.3 405.21zm-1145.93 -1120.81c252.78,-20.53 698.08,48.63 913.72,2.68l11.25 -611.21 307.66 -3.14 -9.72 1015.16c-153.68,29.85 -1033.19,1.33 -1222.85,-15.79l-0.06 -387.7zm-19182.61 242.86c-17.19,236.26 -423.65,490.16 -688.63,76.12 -153.63,14.77 -367.39,239.9 -515.94,246.57l-5.82 -422.51 442.95 -229.57 0.26 -120.31c-145.86,-42.63 -311.69,24.3 -457.3,-20.52 -12.68,-110.95 -24.98,-291.8 -1.6,-398.04 124.78,-22 1163.36,-44.41 1241.25,-12.91 13.53,134.39 9.77,295.85 13.31,433.75l-28.48 447.42zm17302.66 2623.31c-135.72,-23.41 -2232.18,-1869.96 -2480.09,-2018.57l2.69 -11040.65c76.39,23.11 98.06,62.28 160.64,120.4l405.11 405.74c1265.93,1343.3 2225.17,3229.73 2607.83,5061.05 474.26,2269.67 385.96,4485.4 -381.54,6682.78 -76.42,218.83 -205.67,608.27 -314.64,789.25zm-16155.45 -7499.27l3137.72 2588.03 3.21 8377.48c-70.39,-25.52 -64.08,-25.43 -137.24,-96.8l-348.55 -346.56c-1773.76,-1816.53 -2848.16,-4563.01 -2954.99,-7155.89 -44.82,-1088.08 16.06,-2133.85 238.68,-3193.43 3.01,-14.33 15.05,-72.9 19.97,-89.6 10.17,-34.59 1.62,-14.18 15.54,-42.97 14.56,-30.11 11.15,-22.89 25.66,-40.26zm18764.28 1458.52c93.94,129.45 592.71,950.18 588.7,995.81 -0.59,6.65 -545.12,961.3 -608.03,985.66 -72.35,-104.86 -588.72,-972.27 -587.43,-997.35 1.65,-31.98 557.58,-960.17 606.76,-984.12zm-20658.09 0.53c57.86,69.93 589.64,945.97 591.97,983.2 2.42,38.72 -538.06,937.74 -591.97,998.27 -50.41,-35.87 -595.09,-947.3 -598.38,-984.1 -6.16,-68.87 550.69,-960.7 598.38,-997.37zm-535.27 -997.21c-18.89,-89.41 88.98,-880.67 121.2,-963.09 45.96,-117.56 156.8,-227.82 314.86,-218.65 221.4,12.83 209.42,123.4 292.46,240.01 61.17,-81.47 42.23,-104.99 132.65,-152.93 178.27,-94.5 458.37,-9.58 500.77,257.69 27.9,175.89 -86.22,760.4 -105.28,988.11 -102.97,29.07 -1064.05,-126.96 -1256.66,-151.14zm20746.66 -667.14c-69.95,49.7 -115.56,37.45 -129.54,137.44 -25.65,183.5 138.83,583.84 204.39,-63.44 15.07,-148.73 53.77,-319.67 139.34,-403.04 78.8,-76.76 252.01,-130.76 396.49,-66.1 333.04,149.07 432.24,955.89 46.58,1108.96 -125.99,50.02 -132.35,-16.93 -143.9,-346.98 3.83,-3.83 9.51,-8.11 12.39,-10.52 2.82,-2.38 8.76,-7.46 12.18,-10.34 160.63,-135.2 73.37,-325.73 -33.26,-342.43 -120.83,92.63 -75.99,498.35 -163.38,662.87 -101.68,191.42 -395.61,236.85 -576.12,72.62 -246.7,-224.45 -334.79,-1091.77 179.08,-1110.66 47.78,87.76 53.37,256.09 55.75,371.62zm-290.25 -1332.23c-69.63,44.64 -102.71,49.59 -103.93,153.58 -2.13,180.42 125.5,337.03 186.15,201.01 63.27,-141.92 -139.51,-815.3 345.35,-856.94 512.95,-44.05 729.63,1090.64 215.37,1139.43l-87.94 -376.61c162.1,-71.81 101.22,-347.17 -64.28,-331.96 -99.89,188.51 50.09,501.97 -95.86,734.27 -112.09,178.41 -395.64,218.9 -571.48,57 -237.51,-218.67 -414.13,-1014.19 93.28,-1093.97 23.12,91.54 83.09,267.75 83.34,374.19zm-20135.61 61.85c6.68,-69.81 77.81,-352.75 103.88,-423.58 32.76,-88.96 69.54,-63.69 183.16,-73.65 374.74,-32.86 808.55,-81.51 1187.04,-92.39l-118.25 430.28 -175.13 4.65c-32.45,68.34 -111.53,359.19 -119.73,445.39l151.65 87.21 -107.55 411.74c-84.52,-23.44 -460.92,-321.19 -558.02,-392 -178.87,-130.46 -373.75,-290.2 -547.05,-397.65zm5257.16 -1764.95c96.67,29.05 1065,857.6 1074.36,880.51 -779.28,68.79 -743.35,-230.31 -743.32,668.12 0.04,1072.36 -89.69,1027.75 320.11,1070.46 34.66,132.3 11.72,3494.06 12.38,3729.04 -159.42,-30.73 -501.97,-434.03 -665.1,-507.42l1.57 -5840.71zm5300.56 847.81c-41.78,-67.65 -16.13,-245.36 -16.41,-341.84 -0.5,-170.6 -50.61,-243.12 108.49,-243.15l3784.67 2.24c16.28,516.28 5.34,1106.75 5.69,1631.11l-0.07 5985.38c0,109.56 14.73,117.66 -99.27,117.74l-3652.37 -0.08c-200.05,0 -141.33,20.65 -141.33,-561.73 0,-699.79 -23.69,-4528.23 5.6,-4806.93 242.88,-15.83 328.19,-1.19 328.22,-270.99l-0.03 -1042.62c-0.35,-534.32 -66.77,-404.29 -283.89,-451.8l-39.3 -17.33zm-3735.68 25.05c-34.06,-83.93 -15.39,-211.27 -16.09,-308.96 -1.19,-164.64 -34.41,-197.46 133.51,-197.53l418.08 10.77c34.44,97.88 35.61,408.69 -2.95,504.45 -100.98,18.18 -450.54,27.58 -532.55,-8.73zm13528.75 -1075.97c37.29,41.65 402.45,950.34 420.27,1043.09l-281.82 107.01c-68.94,-181.48 -173.38,-481.47 -262.84,-648.84l-145.93 55.45c8.52,160.3 186.04,422.2 204.5,580.64l-268.05 97.98 -228.43 -549.19 -160.21 57.52c18.46,196.43 204.07,478.38 246.36,689.99 -86.33,31.87 -174.28,93.76 -280.31,110.47 -52.45,-174.04 -139.97,-366.02 -204.12,-531.67 -51.89,-134.01 -184.37,-411.48 -199.42,-532.16l1160 -480.29zm-18706.3 171.8c84.25,10.36 203.5,77.24 297.34,114.37l-413.29 993.75c-86.99,-7.13 -1026.64,-428.59 -1174.41,-501.52l153.61 -375.25c149.13,24.91 738.05,341.81 884.99,362.79l251.76 -594.14zm8657.46 -94.58c-186.68,0.01 -136.7,22.35 -136.7,-487.94 0,-493.89 -47.92,-480.66 136.7,-480.66l4386.71 0c86.98,0 94.82,7.03 95.03,94.51 0.56,256.59 10.62,622.44 -6.52,866.61l-4475.22 7.48zm9314.5 -1433.34c60.83,66.85 416.22,711.56 442.15,791.6 65.55,202.38 -21.77,362.31 -131.17,444.98 -192.14,145.21 -280.07,73.35 -465.58,2.94 -113.42,103.65 -213.61,394.16 -328.76,497.35l-215.39 -405.32c173.03,-319.39 364.81,-407.56 196.31,-554.59 -126.94,57.38 -266.53,168.85 -386.49,218.5 -45.78,-44.14 -183.63,-292.39 -197.2,-362.27l1086.13 -633.19zm-15559.25 545.29c31.25,-126.94 997.52,-1236.15 1191.31,-1293.36l-0.58 2246.71c-109.32,-34.49 -237.17,-168.79 -323.6,-239.16 -108.14,-88.04 -173.73,-146.34 -284.27,-237.16 -177.59,-145.93 -409.67,-362.68 -582.86,-477.03zm-3206.23 461.66c18.36,-79.65 560.63,-1032.62 623.35,-1107.84l261.99 158.14c-15.75,114.39 -140.12,241.82 -185.41,366.84 77.82,91.03 720.26,413.47 802.98,503.75l-209.73 350.55 -814.75 -472.96 -211.05 356.33 -267.38 -154.81zm9657.02 -1460.27c172.86,-49.61 1654.6,-12.48 1958.33,-12.48 395.42,0 1661.08,-19.38 1954.87,4.4l-7.16 514.26c-299.87,22.92 -673.62,4.01 -981.48,4.01 -481.79,0 -2776,28.98 -2925.94,-11.8l1.38 -498.39zm-8649.94 -181.11c135.83,44.22 845.98,649.41 1032.23,740.22 -20.42,80.21 -167.78,285.22 -221.58,339.01 -70.51,-25.74 -956.82,-683.01 -1031.89,-759.75l221.24 -319.48zm16908.12 -512.09c59.15,37.68 47.01,41.67 103.41,116.28 28.95,38.31 57.12,74.51 83.41,109.37 209.31,277.49 449.02,499.25 300.91,789.8 -66.61,130.68 -273.9,313.29 -511.6,249.21 -218.55,-58.93 -256.24,-253.86 -401.27,-387.68 -111.79,38.09 -204.44,176.88 -328.52,230.33 -56.87,-50.72 -221.54,-254.91 -232.92,-328.31l986.58 -779zm-10000.67 -1530.06c380.79,-149.99 1275.49,-213.87 1749.02,-213.82 609.67,0.07 1229.09,59.14 1759.18,207.15l-3.97 1809.71c-163.54,19.25 -1260.36,6.05 -1523.31,6.05 -645.62,0 -586.2,-66.24 -579.72,771.14 3.43,443.85 -331.89,-126.8 -328.65,462.42l-0.83 1198.21c1.3,228.58 99.1,223.22 233.08,227 29.93,0.85 44.4,0.12 73.85,5.73 57.46,10.94 24.23,3.88 44.55,16.32 17.75,19.59 44.27,544.25 -11.32,592.97 -51.72,38.63 -1263.47,35.53 -1413.5,12.25l1.62 -5095.13zm-6044.69 1034.75c31.78,-58.34 315.21,-379.35 373.03,-408.94 44.93,24.84 875.7,809.68 922.78,872.33 -23.75,43.3 -216.18,260.06 -265.73,300.41 -182.38,-122.79 -487.94,-484.77 -561.63,-533.09 65.01,208.02 365.58,536.87 405.43,717.33 -59.38,61.76 -153.91,173.74 -210.97,216.44 -187.81,-43.09 -480.17,-287.47 -683.33,-340.15 26.3,47.11 2.37,13.11 38.97,50.31 85.71,87.15 386.49,310.63 488.43,457.59 -23.24,52.92 -176,216.5 -230.57,265.96 -95.61,-31.47 -372.35,-335.83 -473.49,-429.96 -79.85,-74.33 -419.31,-374.7 -458.71,-453.85l371.78 -409.96c159.42,26.14 479.61,286.95 670.21,333.25l-386.2 -637.67zm1416.64 -1222.96c387.83,-104.63 728.1,284.44 785.23,612.25 83.47,478.97 -639.8,1127.63 -1137.73,653.88 -554.67,-527.75 -164.8,-1126.58 352.5,-1266.13zm12464.35 -258.21c66.39,11.53 831.2,599.43 878.54,670.25 -25.11,76.26 -113.87,180.19 -163.52,236.91 -143.37,-39.91 -418.35,-348.92 -567.35,-413.5l-92.35 137.97c39.22,58.07 402.43,330.44 457.42,354.75 -25.93,93.23 -104.44,196.6 -164.89,247.01 -172.23,-73.68 -332.05,-295.67 -490.97,-337.46l-90.33 141.17c76.76,118.43 459.83,323.05 547.18,446.95l-137.84 207.84c127.84,-10.22 652.1,-111.48 743.96,-160.91 71.08,-166.52 61,-562.74 149.26,-710.82l330.29 322.42c-6.71,148.84 -61.71,260.93 -75.66,396.89l386.98 -85.02c57.92,100.95 272.91,248.71 286.71,323.87l-691.47 139.64c-48.42,150.92 -91.59,514.06 -134.32,708.54l-24.52 76.21c-0.94,-2.71 -3.98,9.53 -9.84,16.54 -494.96,-499.79 -312.75,-219.25 -235.83,-799.29l-437.66 110.64 -290.23 -278.79c-131.02,-123.28 -841.25,-601.46 -915.73,-714.71l742.17 -1037.1zm-11982.67 -140.68c53.5,-56.63 683.17,-424.53 784.71,-453.92 198.6,-57.49 355.67,32.56 438.24,160.38 126.11,195.23 41.65,313.52 -19.44,465.12l482.51 330.43c-53.54,45.98 -316.29,201.04 -389.9,221.49 -133.1,-77.99 -298.01,-230.27 -427.14,-286.61l-116.22 63.3c21.8,113.7 165.33,300.35 211.17,426.58 -38.3,44.18 -274.77,181.32 -350.65,203.06l-613.28 -1129.83zm9977.71 -617.84c6.76,-93.27 83.85,-199.93 118.81,-297.48 197.26,44.64 844.6,434.4 1120.81,538.04 -26.02,117.9 -87,193.67 -124.2,301.95 -130.84,-24.21 -244.27,-137.34 -390.96,-163.56l-400.75 848.35c-94.97,-9.02 -273,-125.06 -367.77,-164.01 39.18,-204.8 388,-730.83 387.13,-891.81l-343.07 -171.48zm-7657.38 -541.18c42.76,56.8 102.09,210 110.21,283.56l-633.6 261.69 53.77 156.37c194.58,-26.68 386.84,-182.7 570.02,-205.03 23.92,83.81 85.25,193.16 85.28,276.28l-472.22 194.71c-60.64,35 -25.27,14.95 -51.1,36.99 14.72,77.31 27.18,109.45 70.09,168.19l647.97 -258.17 103.53 285.1c-152.46,62.81 -927.02,394.16 -1025.04,410.11 -47.29,-67.9 -462.96,-1118.18 -463.27,-1206.63l1004.36 -403.17zm7151.44 3.21l370.48 131.98c-8.25,119.45 -160.05,492.31 -207.75,627.1 -67.94,192 -163.94,417.84 -213.09,609.04l-381.78 -138.91 432.14 -1229.21zm-861.42 362.47l1.08 -37.76c-8.49,57.42 1.29,0.58 -31.75,29.06l-326.22 627.75c-75.31,-4.09 -91.82,-15.54 -158.65,-30.32 -54.43,-12.03 -119.76,-16.57 -148.58,-51.08 -48.69,-88.83 -37.52,-696.62 -44.28,-859.75l-170.2 822.51 -365.99 -83.86 289.92 -1278.24 548.43 140.41c55.58,152.21 14.16,555.54 36.31,756.94 51.19,-33.23 294.38,-574.95 361.87,-669.51l541.01 125.28 -288.3 1278.85 -399.35 -94.58 154.7 -675.7zm-2510.28 -991.46c187.65,-17.45 870.24,43.28 996.3,121.78 204.66,127.44 242.44,427.77 75.38,601.75 -59.15,61.6 -104.56,63.89 -162.11,116.91l225.05 553.25 -440.27 -42.22c-190.03,-256.4 -60.14,-522.42 -351.76,-487.17l-32.56 463.95 -408.99 -25.65 98.96 -1302.6zm-2855.15 336.73c110.13,-56.67 457.25,-98.79 612.1,-130.62 238.45,-49.02 398.18,-1.85 500.4,161.14 104.14,166.08 96.95,415.52 -17.3,558.78 -108.44,135.97 -321.32,152.73 -525.96,190.8 -18.3,135.3 60.86,275.39 51.84,421.44l-391.97 68.4 -229.11 -1269.94zm2497.16 -331.32l7.01 292.71c-140.25,59.14 -490.21,39 -677.84,53.81l2.04 169.56c117,24.28 450.39,-19.13 598.46,-20.9l11.31 298.87 -586.71 37.34 11.26 197.72 701.93 -35.35c11.41,98.04 25.98,207.63 7.31,308.09l-1102.08 59.36c-8.53,-209.59 -94.69,-1189.13 -62.46,-1305.86l1089.77 -55.35zm-256.56 -1049.42c-1895.67,148.26 -3348.75,501.1 -4983.82,1436.8 -1465.62,838.72 -2538.08,1823.88 -3462.71,2950.13 -919.99,1120.59 -1760.44,2549.01 -2309.5,4101.79 -939.9,2658.08 -1138.48,5538.77 -514.85,8385.09 194.09,885.86 456.29,1674.91 770.02,2436.32 431.46,1047.1 1061.28,2171.2 1748.46,3060.42 1189.18,1538.8 2593.42,2785.12 4377.7,3636.82 1556.71,743.07 3245.54,1154.48 5286.36,1095.7 2595.18,-74.74 5101.86,-1183.44 6889.18,-2737.11 574.34,-499.26 1087.8,-1018.85 1581.36,-1625.17 1868.81,-2295.79 3314.3,-5701.39 3162.21,-9659.59 -101.72,-2647.3 -867.25,-5294.98 -2231.39,-7385.09 -209.31,-320.72 -413.55,-621.72 -657.93,-945.05 -313.76,-415.11 -588.81,-715.58 -916.64,-1072.21 -1526.06,-1660.07 -3579.6,-2901.86 -5826.02,-3410.23 -854.95,-193.49 -1981.41,-341.43 -2912.43,-268.62zm534.05 18863.66c136.69,-4.43 663.07,-29.97 742.09,14.16 31.5,73.68 17.8,1594.81 10.69,1803.93 -95.94,29.55 -631.48,17.06 -762.82,10.44 -11.8,-234.41 -28.23,-1690.68 10.04,-1828.53zm668.14 1856.26c116.38,0 117.74,-8.86 117.56,-127.2 -0.41,-277.77 22.53,-1694.25 -18.12,-1739.85 -15.47,-10.19 -10.06,-13.28 -42.27,-20.9 -77.72,-18.36 -717.68,-0.33 -752.89,5.73 -32.23,259.05 -14.06,1338.07 -14.06,1676.96 0,84.22 -13.28,128.16 25.81,202.89l683.97 2.37z"/>
   <path class="fil1" d="M13336.86 1710.12c931.02,-72.81 2057.48,75.13 2912.43,268.62 2246.42,508.37 4299.96,1750.16 5826.02,3410.23 327.83,356.63 602.88,657.1 916.64,1072.21 244.38,323.33 448.62,624.33 657.93,945.05 1364.14,2090.11 2129.67,4737.79 2231.39,7385.09 152.09,3958.2 -1293.4,7363.8 -3162.21,9659.59 -493.56,606.32 -1007.02,1125.91 -1581.36,1625.17 -1787.32,1553.67 -4294,2662.37 -6889.18,2737.11 -2040.82,58.78 -3729.65,-352.63 -5286.36,-1095.7 -1784.28,-851.7 -3188.52,-2098.02 -4377.7,-3636.82 -687.18,-889.22 -1317,-2013.32 -1748.46,-3060.42 -313.73,-761.41 -575.93,-1550.46 -770.02,-2436.32 -623.63,-2846.32 -425.05,-5727.01 514.85,-8385.09 549.06,-1552.78 1389.51,-2981.2 2309.5,-4101.79 924.63,-1126.25 1997.09,-2111.41 3462.71,-2950.13 1635.07,-935.7 3088.15,-1288.54 4983.82,-1436.8zm-156.29 -599.87c-629.51,64.12 -814.95,45.37 -1494.45,175.2 -4697.89,897.59 -8126.37,4420.7 -9697.55,8766.47 -637.26,1762.63 -940.87,3749.89 -878.12,5840.6 59.84,1993.58 534.28,3849.49 1213.71,5483.48 326.85,786.04 744.64,1543.56 1163.85,2197.68 620.62,968.39 1457.41,1966.4 2310.98,2730.81 907.21,812.45 1857.83,1471.94 3004.77,1998.84 1595.22,732.85 3527.21,1224.51 5602.23,1095.87 3747.53,-232.32 6656.52,-1966.73 8822.44,-4613.27 2186.64,-2671.88 3445.78,-6498.11 3254.88,-10131 -152.88,-2909.41 -903.48,-5353.46 -2385.53,-7676.19 -855.91,-1341.43 -1980.22,-2550.73 -3230.95,-3490.84 -1749.65,-1315.12 -3814.06,-2149.95 -6055.09,-2351.86 -448.13,-40.37 -1184.42,-71.29 -1631.17,-25.79z"/>
   <path class="fil1" d="M21495.94 20101.74c108.97,-180.98 238.22,-570.42 314.64,-789.25 767.5,-2197.38 855.8,-4413.11 381.54,-6682.78 -382.66,-1831.32 -1341.9,-3717.75 -2607.83,-5061.05l-405.11 -405.74c-62.58,-58.12 -84.25,-97.29 -160.64,-120.4l-2.69 11040.65c247.91,148.61 2344.37,1995.16 2480.09,2018.57z"/>
   <path class="fil2" d="M11292.95 21182.16l0 -695.08c0,-149.82 4.01,-294.31 155.86,-306.75 158.68,-13 195.01,125.41 195.01,268.14l-0.07 753c0.07,146.19 -19.74,285.98 -177.98,286.81 -172.94,0.92 -172.82,-156.65 -172.82,-306.12zm-1161.97 115.85c-24.37,-207.11 -1.15,-585.45 -1.72,-811.45 -0.3,-120.81 0.26,-257.43 112.78,-296.24 354.59,-122.31 239.3,596.29 240.04,972.67 0.25,128.93 5.68,263.5 -105.47,306.12 -149.11,57.18 -230.87,-45.56 -245.63,-171.1zm1162.05 -3224.39c0,-142.49 20.96,-259.94 173.35,-258.91 146.11,0.98 177.19,121.44 177.29,258.91l0.27 714.39c0.03,154.22 -2.55,315.61 -177.63,314.41 -171.98,-1.17 -173.28,-144.41 -173.35,-295.1l0.07 -733.7zm-1163.42 0c0,-152.15 39.71,-279.62 195.21,-266.6 139.2,11.65 156.35,151.15 156.95,285.91 0.39,257.38 10.61,538.15 0.18,792.73 -12.41,302.62 -352.34,305.29 -352.23,-20.42l-0.11 -791.62zm2307.93 -2394.15c0,-400.52 277.06,-254.49 316.49,-205.79 67.67,83.59 38.45,472.68 38.45,611.25 0,181.54 45.2,479.29 -62.49,587.01 -57.33,57.34 -165.75,62.02 -229.7,1.85 -107.62,-101.27 -62.92,-764.66 -62.75,-994.32zm-1061.65 -231.69c92.4,-79.57 232.66,22.65 257.69,122.57 21.4,85.39 10.17,299.73 10.17,398.74 0,219 62.48,650.33 -91.37,743.45 -120.02,72.65 -228.2,-13.93 -250.86,-111.95 -19.53,-84.47 -8.57,-301.82 -8.57,-399.81 0.01,-246.34 -43.54,-644.07 82.94,-753zm-1246.16 251c0,-105.25 9.96,-203.47 83.58,-247.22 92.87,-55.18 191.76,-10.84 233.21,47.78 63.96,90.44 35.33,465.15 35.33,604.9 0,157.5 36.98,489.27 -54.46,584.05 -53.17,55.12 -168.7,70.73 -233.35,11.39 -108.46,-99.54 -64.33,-780.91 -64.31,-1000.9zm1513.9 -1641.15c-1.4,418.42 -255.49,289.79 -301.23,240.21 -84.35,-91.42 -49.45,-427.12 -49.45,-587.75 0,-148.18 -36.92,-499.28 42.77,-594.97 55.41,-66.52 308.03,-149.47 308.03,208.81l-0.12 733.7zm-1514.02 -733.7c-0.02,-138.6 29.94,-270.95 175.25,-268.19 144.58,2.74 176.98,124.31 176.97,268.19l0.09 733.7c-0.49,148.51 -13.18,294.86 -175.06,293.86 -160.99,-1 -177.11,-141.72 -177.05,-274.55l-0.2 -753.01zm2307.89 -19.3c-0.01,-149.91 25.54,-274.16 187.91,-268.26 151.17,5.5 162.75,155.1 162.71,287.56l-0.16 733.7c-0.06,383.04 -350.31,385.13 -350.51,19.31l0.05 -772.31zm-325.75 5537.15c-56.58,-168.21 -27.32,-523.43 -27.32,-729.54 0,-168.81 -33.88,-591.1 44.62,-695.17 28.77,-55.48 24.62,-67.45 110.7,-81.68 168.07,-27.78 1095.82,34.12 1154.09,-18.7 58.55,-90.59 18.09,-4126.07 18.09,-4610.6 0,-771.14 56.24,-711.35 -147,-708.04 -549.99,8.94 -3684.2,-28.05 -3728.02,15.79 -35.04,35.06 -14.27,6805.88 -14.27,7797.48 0,57.73 -30.47,2541.28 18.96,2581.31 29.44,13.12 2698.33,32.16 2873.31,6.01 17.44,-44.13 36.11,-3240.24 7.15,-3448.66 -152.04,-26.62 -239.36,31.36 -310.31,-108.2z"/>
   <path class="fil2" d="M16709.28 16567.62c-28.4,-125.59 -5.7,-644.64 -6.49,-811.01 -0.58,-121.53 -12.9,-265.04 83.52,-322.7 121.36,-72.56 233.86,6.88 259.04,117.9 30.57,134.82 8.51,628.91 9.05,803.45 0.41,132.41 9.7,277.51 -78.1,331.22 -119.72,73.23 -243.46,-14.66 -267.02,-118.86zm-1961.79 38.62c-45.91,105.18 -178.68,148.4 -273.69,65.37 -79.27,-69.29 -57.75,-234.16 -57.61,-354.98 0.2,-158.62 -25.07,-716.48 21.14,-815.7 43.79,-94.01 178.62,-128.13 266.89,-46.03 81.68,75.98 63.24,216.83 63.05,340.39 -0.24,149.89 19.08,721.94 -19.78,810.95zm814.93 -57.92c-27.12,-187.27 -2.41,-599.49 -3.05,-810.99 -0.39,-127.91 -8.85,-263.94 97.12,-312.87 134.44,-62.08 228.39,36.29 248,145.28 29.98,166.66 5.67,609.04 6.2,804.89 0.33,121.28 13.65,261.55 -91.15,316.15 -134.05,69.85 -238.19,-11.76 -257.12,-142.46zm0.65 -2374.85c-28.38,-181.37 -3.35,-621.57 -3.86,-830.42 -1.13,-461.79 322.67,-338.48 348.35,-134.31 26.43,210.04 3.46,600.7 3.49,829.81 0.02,139.7 -13.47,243.91 -115.44,288.88 -123.65,54.51 -215.2,-43.13 -232.54,-153.96zm-1150.14 0c-28.43,-174.19 -3.29,-626.82 -3.78,-830.49 -1.11,-454.86 315.1,-341.98 350.36,-144.18 31.41,176.16 7.54,615.46 8,820.34 0.3,133.33 2.86,256.41 -102.99,299.61 -139.28,56.83 -233.91,-36.99 -251.59,-145.28zm2628.69 19.31c-30.43,111.14 -133.28,193.36 -257.27,111.74 -87.14,-57.35 -82.28,-189.07 -81.58,-324.11 0.8,-153.37 -18.72,-715.36 12.16,-821.59 28.51,-98.1 141.96,-166.54 255.03,-99.98 92.91,54.68 84.95,193.3 84.48,322.99 -0.62,172.42 20.9,687.8 -12.82,810.95zm-332.42 -2355.54c-25.54,-97.21 -5.71,-665.75 -6.48,-810.98 -0.68,-127.7 -12.78,-266.3 91.17,-317.9 124.58,-61.83 230.64,9.61 253.57,129.58 30.7,160.55 5.91,614.21 6.99,806.28 0.79,142.24 7.33,270.63 -93.83,317.76 -115.03,53.6 -224.38,-21.85 -251.42,-124.74zm-1144.2 0c-29.4,-156.05 -4.89,-622.32 -5.67,-810.98 -2.19,-534.72 306.34,-342.91 341.62,-203.8 29.81,117.57 9.45,642.91 9.89,802.43 0.34,128.06 10.72,269.69 -77.02,328.04 -123.89,82.39 -249.07,-10.82 -268.82,-115.69zm-1152.07 -19.31c-28,-181.75 -2.93,-603.62 -3.77,-811.28 -1.99,-486.72 331.56,-333.29 354.88,-152.95 26.34,203.6 2.9,586.87 3.44,809.9 0.35,143.7 1.04,254.31 -105.06,299.85 -134.97,57.92 -231.57,-29.24 -249.49,-145.52zm-623 -1608.28l39.3 17.33c217.12,47.51 283.54,-82.52 283.89,451.8l0.03 1042.62c-0.03,269.8 -85.34,255.16 -328.22,270.99 -29.29,278.7 -5.6,4107.14 -5.6,4806.93 0,582.38 -58.72,561.73 141.33,561.73l3652.37 0.08c114,-0.08 99.27,-8.18 99.27,-117.74l0.07 -5985.38c-0.35,-524.36 10.59,-1114.83 -5.69,-1631.11l-3784.67 -2.24c-159.1,0.03 -108.99,72.55 -108.49,243.15 0.28,96.48 -25.37,274.19 16.41,341.84z"/>
   <path class="fil1" d="M5340.49 12602.47c-14.51,17.37 -11.1,10.15 -25.66,40.26 -13.92,28.79 -5.37,8.38 -15.54,42.97 -4.92,16.7 -16.96,75.27 -19.97,89.6 -222.62,1059.58 -283.5,2105.35 -238.68,3193.43 106.83,2592.88 1181.23,5339.36 2954.99,7155.89l348.55 346.56c73.16,71.37 66.85,71.28 137.24,96.8l-3.21 -8377.48 -3137.72 -2588.03z"/>
   <path class="fil2" d="M17012.42 20178.16c126.26,-71.62 230.41,31.58 248.33,136.93 17.08,100.39 5.72,293.71 5.73,403.69 0,205.08 65.96,649.35 -98.77,733.25 -127.92,65.15 -228.31,-35.71 -246.63,-137.22 -16.84,-93.34 -5.55,-298.31 -5.55,-402.96 0,-223.3 -62.32,-643.38 96.89,-733.69zm-1260.53 289.62c0,-151.02 8.33,-294.4 162.24,-307.22 163.12,-13.6 189.61,122.92 189.61,268.6l0 733.69c0,157.35 -7.36,298.5 -173.23,297.77 -154.44,-0.69 -178.62,-128.2 -178.62,-278.46l0 -714.38zm-2265.71 1943.29c27.75,-76.42 9.66,-1677.27 8.92,-1924.16 -1.14,-386.13 115.82,-309.88 676.78,-309.88 161.03,0 322.15,0.55 483.17,-0.13 173.1,-0.73 277.44,-16.8 327.92,136.52 58.92,76.2 39.64,154.06 39.14,270.22l-0.04 1795.69c65.44,27.44 2754.75,34.33 2995.47,9.22l-0.84 -3436.94 -5185.08 2.01c-5.14,397.42 -34.63,3311.44 13.97,3452.14l640.59 5.31z"/>
   <path class="fil1" d="M11997.71 5126.03l-1.62 5095.13c150.03,23.28 1361.78,26.38 1413.5,-12.25 55.59,-48.72 29.07,-573.38 11.32,-592.97 -20.32,-12.44 12.91,-5.38 -44.55,-16.32 -29.45,-5.61 -43.92,-4.88 -73.85,-5.73 -133.98,-3.78 -231.78,1.58 -233.08,-227l0.83 -1198.21c-3.24,-589.22 332.08,-18.57 328.65,-462.42 -6.48,-837.38 -65.9,-771.14 579.72,-771.14 262.95,0 1359.77,13.2 1523.31,-6.05l3.97 -1809.71c-530.09,-148.01 -1149.51,-207.08 -1759.18,-207.15 -473.53,-0.05 -1368.23,63.83 -1749.02,213.82z"/>
   <path class="fil1" d="M13901.33 25699.33c572.42,-0.05 1096.56,-82.94 1602.38,-212.24 6.32,-667.55 36.4,-2116.66 4.28,-2667 -1061.25,-14.67 -2162.88,4.76 -3229.93,-1.99l-267.97 6.32 -1.05 1524.21c0,291.38 -47.03,880.77 0.5,1139.15 330.1,156.74 1443.12,211.58 1891.79,211.55z"/>
   <polygon class="fil2" points="12457.91,18528.76 18339.22,18528.32 18338.45,17762.09 12451.05,17766.91 "/>
   <path class="fil2" d="M13744.51 11583.38l-6.44 -917.76c-224.01,-41.46 -881.51,-8.22 -1150.81,-8.21 -487.02,0.02 -3192.45,-23.03 -3433.44,10.15l1.17 908.47c164.23,33.74 3026.23,10.29 3451.59,10.29 354.21,0 804.15,21.63 1137.93,-2.94z"/>
   <polygon class="fil2" points="13436.3,9204.72 17989.22,9204.17 17984.22,8302.06 13426.23,8302.91 "/>
   <path class="fil1" d="M18390.61 18928.96c-42.48,243.39 -8.94,869.39 -8.94,1152.66 0,436.05 -22.63,1999.55 2.78,2296.33 32.32,377.53 54.71,441.29 -94.04,442.35 -174.69,1.25 -400.87,-21.7 -557.47,8.17 29.28,73.99 22.63,57.93 80.75,103.9 26.69,21.11 47.66,36.56 74.79,59l777.34 651.54c45.79,39.18 95.26,78.16 157.82,131.23 67.74,57.46 79.39,94.86 189.91,106.66l0.5 -5787.87 -70.94 -75.58c-46.32,-41.99 -171.34,-151.95 -220.4,-167.59 -64.41,995.68 172.96,1016.71 -332.1,1079.2z"/>
   <path class="fil1" d="M8487.8 15202.55c163.13,73.39 505.68,476.69 665.1,507.42 -0.66,-234.98 22.28,-3596.74 -12.38,-3729.04 -409.8,-42.71 -320.07,1.9 -320.11,-1070.46 -0.03,-898.43 -35.96,-599.33 743.32,-668.12 -9.36,-22.91 -977.69,-851.46 -1074.36,-880.51l-1.57 5840.71z"/>
   <path class="fil2" d="M19091.84 5716.71c74.48,113.25 784.71,591.43 915.73,714.71l290.23 278.79 437.66 -110.64c-76.92,580.04 -259.13,299.5 235.83,799.29 5.86,-7.01 8.9,-19.25 9.84,-16.54l24.52 -76.21c42.73,-194.48 85.9,-557.62 134.32,-708.54l691.47 -139.64c-13.8,-75.16 -228.79,-222.92 -286.71,-323.87l-386.98 85.02c13.95,-135.96 68.95,-248.05 75.66,-396.89l-330.29 -322.42c-88.26,148.08 -78.18,544.3 -149.26,710.82 -91.86,49.43 -616.12,150.69 -743.96,160.91l137.84 -207.84c-87.35,-123.9 -470.42,-328.52 -547.18,-446.95l90.33 -141.17c158.92,41.79 318.74,263.78 490.97,337.46 60.45,-50.41 138.96,-153.78 164.89,-247.01 -54.99,-24.31 -418.2,-296.68 -457.42,-354.75l92.35 -137.97c149,64.58 423.98,373.59 567.35,413.5 49.65,-56.72 138.41,-160.65 163.52,-236.91 -47.34,-70.82 -812.15,-658.72 -878.54,-670.25l-742.17 1037.1z"/>
   <path class="fil2" d="M13738.82 7847.68c149.94,40.78 2444.15,11.8 2925.94,11.8 307.86,0 681.61,18.91 981.48,-4.01l7.16 -514.26c-293.79,-23.78 -1559.45,-4.4 -1954.87,-4.4 -303.73,0 -1785.47,-37.13 -1958.33,12.48l-1.38 498.39z"/>
   <path class="fil2" d="M16431.02 3736.89c24.17,-77.94 32.1,-88.54 79.15,-158.06 13.6,21.83 21.77,18.68 -0.38,87.87l-48.1 78.89 -154.7 675.7 399.35 94.58 288.3 -1278.85 -541.01 -125.28c-67.49,94.56 -310.68,636.28 -361.87,669.51 -22.15,-201.4 19.27,-604.73 -36.31,-756.94l-548.43 -140.41 -289.92 1278.24 365.99 83.86 170.2 -822.51c6.76,163.13 -4.41,770.92 44.28,859.75 28.82,34.51 94.15,39.05 148.58,51.08 66.83,14.78 83.34,26.23 158.65,30.32l326.22 -627.75z"/>
   <path class="fil2" d="M5953.02 6160.78l386.2 637.67c-190.6,-46.3 -510.79,-307.11 -670.21,-333.25l-371.78 409.96c39.4,79.15 378.86,379.52 458.71,453.85 101.14,94.13 377.88,398.49 473.49,429.96 54.57,-49.46 207.33,-213.04 230.57,-265.96 -101.94,-146.96 -402.72,-370.44 -488.43,-457.59 -36.6,-37.2 -12.67,-3.2 -38.97,-50.31 203.16,52.68 495.52,297.06 683.33,340.15 57.06,-42.7 151.59,-154.68 210.97,-216.44 -39.85,-180.46 -340.42,-509.31 -405.43,-717.33 73.69,48.32 379.25,410.3 561.63,533.09 49.55,-40.35 241.98,-257.11 265.73,-300.41 -47.08,-62.65 -877.85,-847.49 -922.78,-872.33 -57.82,29.59 -341.25,350.6 -373.03,408.94z"/>
   <path class="fil2" d="M20805.67 24415.32c-61.15,-20.37 -90.96,-39.89 -142.79,-123.93 84.95,24.82 135.8,42.06 178.38,103.38 149.22,44.53 404.95,256.3 558.05,285.22 66.85,-49.86 159.31,-133.06 199.69,-215.52 -73.48,-187.18 -291.99,-444.51 -342.23,-624.73 79.81,40.47 391.4,392.62 490.39,470.65 52.19,-22.38 240.92,-205.37 269.64,-270.69 -90.12,-123.28 -285.88,-284.94 -424.61,-424.28l-319.86 -317.53c-60.03,-58.22 -61.99,-69.22 -124.24,-96.93 -101.73,72.39 -320.95,294.68 -364.92,378.16l352.29 614.66 -627.15 -346.41 -371.2 385.41c55.74,96.99 775.39,782.4 856.38,848.44 64.76,-27.41 226.94,-196.4 246.04,-249.91 -105.26,-129.86 -302.84,-308.18 -433.86,-415.99z"/>
   <path class="fil2" d="M19508.19 25476.54c-88.14,-51.66 -71.35,-92.19 -148.79,-156.41 44.9,4.28 72.77,29.29 108.28,50.37 67.99,40.36 42.22,10.54 77.44,87.12l486.91 373.03 236.59 -158.67c-20.9,-226.18 -227.37,-539.97 -258.41,-760.18 93.92,107.9 322.93,510.61 442.19,610.2 60.85,-30.73 263.66,-175.95 305.9,-229.82l-711.72 -967.63c-103.12,26.11 -328.96,227.93 -428.85,288.18 16.99,164.25 195.21,506.58 246.53,676.6 -59.69,-14.62 -472.96,-368.73 -552.02,-432.39 -75.88,19.23 -408.97,266.48 -446.58,321.91 33.01,68.75 660.21,937.8 718.55,979.94l262.43 -188.32c-7.76,-92.57 -283.25,-424.12 -338.45,-493.93z"/>
   <path class="fil1" d="M7289.41 8347.9c173.19,114.35 405.27,331.1 582.86,477.03 110.54,90.82 176.13,149.12 284.27,237.16 86.43,70.37 214.28,204.67 323.6,239.16l0.58 -2246.71c-193.79,57.21 -1160.06,1166.42 -1191.31,1293.36z"/>
   <path class="fil2" d="M13870.91 20573.78c-38.27,137.85 -21.84,1594.12 -10.04,1828.53 131.34,6.62 666.88,19.11 762.82,-10.44 7.11,-209.12 20.81,-1730.25 -10.69,-1803.93 -79.02,-44.13 -605.4,-18.59 -742.09,-14.16z"/>
   <path class="fil2" d="M3718.28 12744.71c-7.58,-73.09 10.37,-211.87 23.79,-286.66 21.73,-121.03 78.92,-124.39 193.86,-85.34 44.12,104.54 5.48,282.64 -15.8,402.47l-201.85 -30.47zm-483.26 -59.52c-3.56,-135.35 -5.82,-385.25 151.01,-366.69 151.71,17.94 76.4,257.17 56.59,392.1l-207.6 -25.41zm-323.61 379.12c192.61,24.18 1153.69,180.21 1256.66,151.14 19.06,-227.71 133.18,-812.22 105.28,-988.11 -42.4,-267.27 -322.5,-352.19 -500.77,-257.69 -90.42,47.94 -71.48,71.46 -132.65,152.93 -83.04,-116.61 -71.06,-227.18 -292.46,-240.01 -158.06,-9.17 -268.9,101.09 -314.86,218.65 -32.22,82.42 -140.09,873.68 -121.2,963.09z"/>
   <path class="fil2" d="M14331.78 3091.69c145.92,-30.29 397,-23.17 369.6,152.57 -21.18,135.88 -291.24,104.59 -382.34,58.84l12.74 -211.41zm-479.33 965.04l408.99 25.65 32.56 -463.95c291.62,-35.25 161.73,230.77 351.76,487.17l440.27 42.22 -225.05 -553.25c57.55,-53.02 102.96,-55.31 162.11,-116.91 167.06,-173.98 129.28,-474.31 -75.38,-601.75 -126.06,-78.5 -808.65,-139.23 -996.3,-121.78l-98.96 1302.6z"/>
   <path class="fil2" d="M8356.55 4577.55c81.63,-48.69 321.96,-239.6 379.95,-69.85 56.97,166.73 -264.03,272.01 -284.73,276.14 -46.09,-62.62 -93.24,-132.03 -95.22,-206.29zm-505.21 -38.62l613.28 1129.83c75.88,-21.74 312.35,-158.88 350.65,-203.06 -45.84,-126.23 -189.37,-312.88 -211.17,-426.58l116.22 -63.3c129.13,56.34 294.04,208.62 427.14,286.61 73.61,-20.45 336.36,-175.51 389.9,-221.49l-482.51 -330.43c61.09,-151.6 145.55,-269.89 19.44,-465.12 -82.57,-127.82 -239.64,-217.87 -438.24,-160.38 -101.54,29.39 -731.21,397.29 -784.71,453.92z"/>
   <path class="fil2" d="M22607.76 8409.5c94.91,-33.17 112.06,-82.31 202.25,-86.83 56.83,83.91 232.1,327.88 71,386.45 -142.49,51.81 -245.07,-186.8 -273.25,-299.62zm-845.23 26.3c13.57,69.88 151.42,318.13 197.2,362.27 119.96,-49.65 259.55,-161.12 386.49,-218.5 168.5,147.03 -23.28,235.2 -196.31,554.59l215.39 405.32c115.15,-103.19 215.34,-393.7 328.76,-497.35 185.51,70.41 273.44,142.27 465.58,-2.94 109.4,-82.67 196.72,-242.6 131.17,-444.98 -25.93,-80.04 -381.32,-724.75 -442.15,-791.6l-1086.13 633.19z"/>
   <path class="fil2" d="M3446.68 14061.52c-47.69,36.67 -604.54,928.5 -598.38,997.37 3.29,36.8 547.97,948.23 598.38,984.1 53.91,-60.53 594.39,-959.55 591.97,-998.27 -2.33,-37.23 -534.11,-913.27 -591.97,-983.2z"/>
   <path class="fil2" d="M24104.77 14060.99c-49.18,23.95 -605.11,952.14 -606.76,984.12 -1.29,25.08 515.08,892.49 587.43,997.35 62.91,-24.36 607.44,-979.01 608.03,-985.66 4.01,-45.63 -494.76,-866.36 -588.7,-995.81z"/>
   <path class="fil2" d="M7346.4 5302.17c267.28,-82.92 676.29,563.49 223.41,689.06 -286.95,79.57 -690.31,-544.21 -223.41,-689.06zm23.26 -364.35c-517.3,139.55 -907.17,738.38 -352.5,1266.13 497.93,473.75 1221.2,-174.91 1137.73,-653.88 -57.13,-327.81 -397.4,-716.88 -785.23,-612.25z"/>
   <path class="fil2" d="M6551.9 24140.32c5.04,-197.02 37.8,-408.87 61.06,-601.61 17.76,-147.08 33.49,-144.03 -53.19,-234.23 -57.21,-59.55 -91.31,-129.99 -175.74,-160.95 -142.36,98.32 -308.47,287.6 -444.31,413.55 -100.13,92.84 -351.01,310.42 -426.14,405.39 30.83,71.9 171.95,218.43 232.73,255.05 131.67,-71.64 312.18,-319.33 426.66,-370.52 -0.58,783.22 -237.17,615.45 153.08,998.22 76.17,-19.66 862.62,-776.39 892.92,-824.83 -34.89,-65.17 -182.08,-223.36 -235.87,-254.74 -122.04,64.13 -303.66,319.36 -431.2,374.67z"/>
   <path class="fil2" d="M12503.65 2814.89c-32.23,116.73 53.93,1096.27 62.46,1305.86l1102.08 -59.36c18.67,-100.46 4.1,-210.05 -7.31,-308.09l-701.93 35.35 -11.26 -197.72 586.71 -37.34 -11.31 -298.87c-148.07,1.77 -481.46,45.18 -598.46,20.9l-2.04 -169.56c187.63,-14.81 537.59,5.33 677.84,-53.81l-7.01 -292.71 -1089.77 55.35z"/>
   <path class="fil2" d="M14222.04 27400.4l5.24 -793.7 -325.95 -2c-21.45,88 -12.49,197.89 -14.85,292.54 -2.67,106.79 10.24,220.9 -30.48,285.78l-27.41 -53.99c-61.82,-42.27 -255.28,-288.35 -317.95,-362.91 -159.82,-190.1 -127.91,-222.12 -492.52,-185.71l-17.52 1206.29 360.51 0.45 9.12 -554.57c55.96,22.95 288.12,310.72 341.77,375.23 145.02,174.38 150.24,241.18 512.84,190.64l-2.8 -398.05z"/>
   <path class="fil2" d="M22392.86 21877.24c1.08,-86.12 113.29,-340.21 253.75,-285.21 151.65,59.37 -22.46,278.3 -63.23,378.7l-190.52 -93.49zm996.89 100.02c43.79,-66.08 188.75,-310.17 185.68,-379.98l-556.63 -5.05c-12.29,-420.58 -431.88,-556.42 -654.91,-277.09 -57.95,72.57 -391.21,678.81 -416.83,768.28 173.26,87.43 372.78,200.07 539.14,290.1 102.17,55.28 448.1,256.63 536.38,276.86 47.25,-50.18 155.47,-253.42 177.37,-329.06 -77.95,-70.6 -275.33,-166.4 -371.82,-209.29 10.13,-57.21 20.22,-78.26 59.18,-132.01 164.88,-16.41 340.72,29.35 502.44,-2.76z"/>
   <path class="fil2" d="M9167.31 3783.08c0.31,88.45 415.98,1138.73 463.27,1206.63 98.02,-15.95 872.58,-347.3 1025.04,-410.11l-103.53 -285.1 -647.97 258.17c-42.91,-58.74 -55.37,-90.88 -70.09,-168.19 25.83,-22.04 -9.54,-1.99 51.1,-36.99l472.22 -194.71c-0.03,-83.12 -61.36,-192.47 -85.28,-276.28 -183.18,22.33 -375.44,178.35 -570.02,205.03l-53.77 -156.37 633.6 -261.69c-8.12,-73.56 -67.45,-226.76 -110.21,-283.56l-1004.36 403.17z"/>
   <path class="fil2" d="M22423 9639.02c15.05,120.68 147.53,398.15 199.42,532.16 64.15,165.65 151.67,357.63 204.12,531.67 106.03,-16.71 193.98,-78.6 280.31,-110.47 -42.29,-211.61 -227.9,-493.56 -246.36,-689.99l160.21 -57.52 228.43 549.19 268.05 -97.98c-18.46,-158.44 -195.98,-420.34 -204.5,-580.64l145.93 -55.45c89.46,167.37 193.9,467.36 262.84,648.84l281.82 -107.01c-17.82,-92.75 -382.98,-1001.44 -420.27,-1043.09l-1160 480.29z"/>
   <path class="fil2" d="M23658.07 12397.17c-2.38,-115.53 -7.97,-283.86 -55.75,-371.62 -513.87,18.89 -425.78,886.21 -179.08,1110.66 180.51,164.23 474.44,118.8 576.12,-72.62 87.39,-164.52 42.55,-570.24 163.38,-662.87 106.63,16.7 193.89,207.23 33.26,342.43 -3.42,2.88 -9.36,7.96 -12.18,10.34 -2.88,2.41 -8.56,6.69 -12.39,10.52 11.55,330.05 17.91,397 143.9,346.98 385.66,-153.07 286.46,-959.89 -46.58,-1108.96 -144.48,-64.66 -317.69,-10.66 -396.49,66.1 -85.57,83.37 -124.27,254.31 -139.34,403.04 -65.56,647.28 -230.04,246.94 -204.39,63.44 13.98,-99.99 59.59,-87.74 129.54,-137.44z"/>
   <path class="fil2" d="M23367.82 11064.94c-0.25,-106.44 -60.22,-282.65 -83.34,-374.19 -507.41,79.78 -330.79,875.3 -93.28,1093.97 175.84,161.9 459.39,121.41 571.48,-57 145.95,-232.3 -4.03,-545.76 95.86,-734.27 165.5,-15.21 226.38,260.15 64.28,331.96l87.94 376.61c514.26,-48.79 297.58,-1183.48 -215.37,-1139.43 -484.86,41.64 -282.08,715.02 -345.35,856.94 -60.65,136.02 -188.28,-20.59 -186.15,-201.01 1.22,-103.99 34.3,-108.94 103.93,-153.58z"/>
   <path class="fil2" d="M4436.74 21780.7l551.66 -291.58c315.55,412.52 -253.05,603.55 -403.99,525.47 -54.49,-28.2 -134.06,-141.16 -147.67,-233.89zm-365.56 -27.14c214,415.36 423.31,883.94 1005.32,574.88 641.01,-340.38 229.15,-870.17 3.97,-1327.69 -79.15,19.18 -983.02,503.2 -1087.71,567.57l78.42 185.24z"/>
   <path class="fil2" d="M18348.96 25754.75c200.5,-77.27 291.44,88.9 358.53,222.59 87.06,173.5 56.81,347.76 -119.86,410.51 -217.04,77.1 -301.44,-83.69 -373.98,-227.97 -99.97,-198.85 -56.99,-331.01 135.31,-405.13zm-552.5 447.41c263.1,982.57 1488.23,439.84 1331.16,-241.96 -230.05,-998.55 -1519.19,-460.24 -1331.16,241.96z"/>
   <path class="fil2" d="M3923.28 16997.92c13.12,125.57 53.55,368.72 -108.86,364.3 -149.44,-4.07 -123.27,-238.03 -109.37,-365.56l218.23 1.26zm-497.18 30.81l-0.26 120.31 -442.95 229.57 5.82 422.51c148.55,-6.67 362.31,-231.8 515.94,-246.57 264.98,414.04 671.44,160.14 688.63,-76.12 15.3,-255.06 9.63,-609.19 -12.34,-871.32l-1200.79 20.42 11.56 363.92c73.51,12.05 147.95,5.76 223.07,2.87 201.52,-7.75 185.7,-29.42 211.32,34.41z"/>
   <path class="fil2" d="M14938.81 26814.26c286.03,-29.53 378.38,-18.63 412.64,275.86 29.09,249.98 -85.8,373.89 -340.47,339.15l-72.17 -615.01zm-425.22 -249.57c-4.21,136.25 124.59,1138.28 160.73,1204.19 185.12,2.75 659.1,-69.33 796.13,-133.53 471.59,-220.95 337.47,-1022.61 -131.94,-1130.3 -202.61,-46.48 -609.81,36.64 -824.92,59.64z"/>
   <path class="fil2" d="M4026.41 11236.13c-67.84,-25.95 -127.54,-72.29 -192.16,-114.38 -32.53,-21.19 -60.28,-37.88 -94.77,-59.44 -65.52,-40.95 -53.09,-24.6 -84.49,-78l441.14 -5.45c-8.11,86.29 -26.42,192.72 -69.72,257.27zm-794.2 -109.34c173.3,107.45 368.18,267.19 547.05,397.65 97.1,70.81 473.5,368.56 558.02,392l107.55 -411.74 -151.65 -87.21c8.2,-86.2 87.28,-377.05 119.73,-445.39l175.13 -4.65 118.25 -430.28c-378.49,10.88 -812.3,59.53 -1187.04,92.39 -113.62,9.96 -150.4,-15.31 -183.16,73.65 -26.07,70.83 -97.2,353.77 -103.88,423.58z"/>
   <path class="fil2" d="M4072.77 18833.58c44.92,48.27 37.79,129.52 55.43,222.23l211.22 -23.27 72.74 -5.8 -162.05 -1049.61 -1220.48 187 161.27 1058.84 291.9 -40.52 -89.79 -679.19 177.62 -14.05 89.75 554.67 265.25 -43.48c11.7,-169.61 -85.65,-427.49 -62.48,-570.73l157.57 -7.13 52.05 411.04z"/>
   <path class="fil2" d="M5558.48 22746.08c28.07,-40.62 66.54,-74.05 133.89,-96.25l388 531.42 230.15 -170.06 -602.86 -846.45c-87.25,15.21 -192.39,113.64 -262.83,164.93 -167.27,121.8 -648.81,437.1 -740.42,532.26 18.85,57.76 555.65,826.08 618.56,870.28l220.54 -144.1c-40.2,-149.15 -319.52,-438.76 -366.66,-571.72 22.76,-31.01 17.24,-32.03 62.61,-62.74 49.69,-33.63 32.11,-24.42 84.88,-36.53l328.48 448.24 211.33 -155.89c-30.44,-107.43 -239.1,-337.34 -305.67,-463.39z"/>
   <path class="fil2" d="M21715.32 22919.85c21.51,-96.7 303.73,-419.73 365.43,-540.61 -38.37,-65.48 -176.06,-157.58 -236.17,-171.43l-600.66 847.2c43.94,54.07 909.95,682.2 986.36,716.69 52.2,-46.22 603.25,-791.16 619.74,-875.24 -69.28,-41.69 -154.24,-127.01 -235.98,-147.2l-372.41 528.65c-94.52,-23.77 -97.56,-49.14 -162.32,-88.81 42.92,-150.91 274.64,-332.13 314.12,-492.98 -60.6,-31.81 -150.9,-116.97 -223.97,-139.87l-317.96 445.67c-71.68,-21.13 -83.95,-38.12 -136.18,-82.07z"/>
   <path class="fil2" d="M3659.25 19392.3c-215.92,12.82 -328,231.04 -299.79,469.2 95.81,808.62 646.81,724.9 789.23,497.46 130.56,-208.5 -15.39,-521.92 74.68,-697.8 95.83,-5.85 129.54,44.4 147.25,137.16 28.06,146.86 -33.26,117.46 -78.09,206.54l101.05 322.58c398.27,-46.42 293.19,-771.19 13.08,-992.5 -183.59,-145.06 -438.5,-54.39 -521.95,104.18 -91.38,173.63 16.09,548.23 -70.94,662.64 -92.81,51.81 -130.72,-58.14 -149.49,-141.9 -33.65,-150.1 2.74,-156.64 96.25,-227.55l-101.28 -340.01z"/>
   <path class="fil2" d="M21819.53 7338.55c35.57,-61.78 147.74,-140.61 198.17,-157.68 71.1,68.27 207.16,211.5 77.09,312.3 -143.74,111.39 -215.06,-81.06 -275.26,-154.62zm-807.73 96.54c11.38,73.4 176.05,277.59 232.92,328.31 124.08,-53.45 216.73,-192.24 328.52,-230.33 145.03,133.82 182.72,328.75 401.27,387.68 237.7,64.08 444.99,-118.53 511.6,-249.21 148.11,-290.55 -91.6,-512.31 -300.91,-789.8 -26.29,-34.86 -54.46,-71.06 -83.41,-109.37 -56.4,-74.61 -44.26,-78.6 -103.41,-116.28l-986.58 779z"/>
   <path class="fil2" d="M11550.31 3310.28c126.38,-31.85 291.33,-91.64 314.6,75.09 20.75,148.77 -136.84,187.19 -273.12,177.99l-41.48 -253.08zm-454.05 -219.42l229.11 1269.94 391.97 -68.4c9.02,-146.05 -70.14,-286.14 -51.84,-421.44 204.64,-38.07 417.52,-54.83 525.96,-190.8 114.25,-143.26 121.44,-392.7 17.3,-558.78 -102.22,-162.99 -261.95,-210.16 -500.4,-161.14 -154.85,31.83 -501.97,73.95 -612.1,130.62z"/>
   <path class="fil2" d="M24051.87 18435.48c-2.04,47.66 -5.22,91.94 -11.99,139.32l-31.74 104.7c-75.02,-16.91 -339.8,-140.64 -381.95,-188.41l425.68 -55.61zm521.25 -484.31l-1255.36 257.61c-48.84,88.52 -71.96,343.94 -73.42,473.22 235.17,88.23 983.58,562.3 1130.97,593.24 41.82,-84.23 63.23,-285.86 59.49,-390.62 -31.38,-11.03 -52.96,-17.86 -83.32,-34.09 -42.47,-22.72 -26.63,-11.69 -68.23,-44.18l63.03 -415.89 175.54 -34.08 51.3 -405.21z"/>
   <path class="fil2" d="M8890.56 26124.93c31.42,-63.33 88.42,-108.18 145.24,-169.5 45.14,-48.71 80.3,-102.27 154.46,-136.14l-76.83 410.88c-76.49,-7.8 -173.95,-49.81 -222.87,-105.24zm659.08 -524.79l-402.18 -196.29c-80.16,50.02 -912.34,818.15 -947.98,882.77l348.91 168.62c106.84,-88.09 75.02,-155.53 248.26,-56.12 91.05,52.25 169.46,76.32 252.01,131.62l-11.89 192.73c88.17,51.31 274.23,153.97 359.55,159.81l153.32 -1283.14z"/>
   <path class="fil2" d="M11968.11 27205.78c7.76,-81.97 146.94,-336.69 189.88,-398.01l52.9 430.96 -242.78 -32.95zm-133.37 254.93l417.52 61.69 24.76 173.7 409.21 56.12c-13.72,-139.67 -216.4,-1186 -257.07,-1264.03l-449.37 -59.93c-109.29,230.29 -595.93,1028.53 -613.73,1127.81l385.02 51.47 83.66 -146.83z"/>
   <path class="fil2" d="M23437.02 19985.09c-581.54,-275.99 -1172.84,865.31 -326.6,1185.33 906.86,342.95 1148.72,-975.08 541.95,-1096.48l-112.48 316.6 73.87 65.99c129.76,116.89 94.59,505.35 -359.79,339.42 -388.86,-142.01 -305.35,-486.44 64.2,-465.01l118.85 -345.85z"/>
   <path class="fil2" d="M17409.09 26676.06c-6.88,97.09 22.29,151.02 -47.3,223.05 -40.59,42.02 -126.69,77.68 -194.71,76.05 -225.19,-5.4 -399.49,-512.62 -178.68,-642.2 189.49,-111.22 254.1,33.57 335.47,127.68l338.44 -123.32c-132.61,-624.02 -1418.99,-369.98 -1124.27,492.85 110.66,323.96 325.55,535.51 736.18,427.42 347.13,-91.39 560.78,-265.65 473.18,-689.72 -110,9.68 -224.81,75.12 -338.31,108.19z"/>
   <path class="fil2" d="M4083.18 8809.56l267.38 154.81 211.05 -356.33 814.75 472.96 209.73 -350.55c-82.72,-90.28 -725.16,-412.72 -802.98,-503.75 45.29,-125.02 169.66,-252.45 185.41,-366.84l-261.99 -158.14c-62.72,75.22 -604.99,1028.19 -623.35,1107.84z"/>
   <path class="fil2" d="M17829.05 3921.09l343.07 171.48c0.87,160.98 -347.95,687.01 -387.13,891.81 94.77,38.95 272.8,154.99 367.77,164.01l400.75 -848.35c146.69,26.22 260.12,139.35 390.96,163.56 37.2,-108.28 98.18,-184.05 124.2,-301.95 -276.21,-103.64 -923.55,-493.4 -1120.81,-538.04 -34.96,97.55 -112.05,204.21 -118.81,297.48z"/>
   <path class="fil2" d="M4624.94 9924.67c-146.94,-20.98 -735.86,-337.88 -884.99,-362.79l-153.61 375.25c147.77,72.93 1087.42,494.39 1174.41,501.52l413.29 -993.75c-93.84,-37.13 -213.09,-104.01 -297.34,-114.37l-251.76 594.14z"/>
   <path class="fil2" d="M7395.19 24553.14c-40.24,166.89 -517.64,606.68 -545.1,742.98l287.6 226.15c102.31,-64.02 456.56,-586.21 579.74,-689.18 107.6,45.91 191.45,171.08 309.2,220.93 41.14,-24.97 15.03,-1.96 58.61,-48.25l124.96 -174.46c-49.98,-76.45 -640.67,-530.33 -798.29,-659.81l-119.62 -82.01c-58.23,41.51 -160.42,159.63 -179.6,245.6l282.5 218.05z"/>
   <path class="fil2" d="M23375.95 17623.27c189.66,17.12 1069.17,45.64 1222.85,15.79l9.72 -1015.16 -307.66 3.14 -11.25 611.21c-215.64,45.95 -660.94,-23.21 -913.72,-2.68l0.06 387.7z"/>
   <path class="fil2" d="M10103.25 26845.14c22.37,-253.59 261.64,-636.72 286.91,-879.01l-364.59 -117.94c-61.75,170.16 -389.15,1020.85 -395.33,1145.59 86.92,45.95 877.83,322.61 951.24,328.02l92.25 -270.1c-67.73,-47.51 -473.67,-183.63 -570.48,-206.56z"/>
   <path class="fil2" d="M16890.97 4612.33l381.78 138.91c49.15,-191.2 145.15,-417.04 213.09,-609.04 47.7,-134.79 199.5,-507.65 207.75,-627.1l-370.48 -131.98 -432.14 1229.21z"/>
   <path class="fil2" d="M4869.02 7487.66c75.07,76.74 961.38,734.01 1031.89,759.75 53.8,-53.79 201.16,-258.8 221.58,-339.01 -186.25,-90.81 -896.4,-696 -1032.23,-740.22l-221.24 319.48z"/>
   <path class="fil2" d="M8007.3 26125.57c84.66,-83.9 264.85,-385.75 342.72,-508.4 58.5,-92.13 299.34,-427.46 322.14,-521.73l-317.02 -193.55c-44.96,37.05 -645.02,919.55 -664.37,1038.51 76.48,37.96 234.12,163.75 316.53,185.17z"/>
   <path class="fil2" d="M3829.31 21228.49c108.45,-8.49 1083.48,-397.4 1155.37,-454.66l-140.16 -357.19 -1145.54 459.5 130.33 352.35z"/>
   <path class="fil2" d="M23017.74 19622.04l1192.58 294.89c17.37,-93.61 91.4,-298.39 76.42,-382.98 -245.22,-50.37 -1061.7,-285.58 -1185.7,-284.72l-83.3 372.81z"/>
   <path class="fil3" d="M14412.93 14173.47c17.68,108.29 112.31,202.11 251.59,145.28 105.85,-43.2 103.29,-166.28 102.99,-299.61 -0.46,-204.88 23.41,-644.18 -8,-820.34 -35.26,-197.8 -351.47,-310.68 -350.36,144.18 0.49,203.67 -24.65,656.3 3.78,830.49z"/>
   <path class="fil3" d="M10130.98 21298.01c14.76,125.54 96.52,228.28 245.63,171.1 111.15,-42.62 105.72,-177.19 105.47,-306.12 -0.74,-376.38 114.55,-1094.98 -240.04,-972.67 -112.52,38.81 -113.08,175.43 -112.78,296.24 0.57,226 -22.65,604.34 1.72,811.45z"/>
   <path class="fil3" d="M12437.54 15679.47c-0.17,229.66 -44.87,893.05 62.75,994.32 63.95,60.17 172.37,55.49 229.7,-1.85 107.69,-107.72 62.49,-405.47 62.49,-587.01 0,-138.57 29.22,-527.66 -38.45,-611.25 -39.43,-48.7 -316.49,-194.73 -316.49,205.79z"/>
   <path class="fil3" d="M14412.93 11817.93c17.92,116.28 114.52,203.44 249.49,145.52 106.1,-45.54 105.41,-156.15 105.06,-299.85 -0.54,-223.03 22.9,-606.3 -3.44,-809.9 -23.32,-180.34 -356.87,-333.77 -354.88,152.95 0.84,207.66 -24.23,629.53 3.77,811.28z"/>
   <path class="fil3" d="M17012.42 20178.16c-159.21,90.31 -96.89,510.39 -96.89,733.69 0,104.65 -11.29,309.62 5.55,402.96 18.32,101.51 118.71,202.37 246.63,137.22 164.73,-83.9 98.77,-528.17 98.77,-733.25 -0.01,-109.98 11.35,-303.3 -5.73,-403.69 -17.92,-105.35 -122.07,-208.55 -248.33,-136.93z"/>
   <path class="fil3" d="M15562.42 16548.32c18.93,130.7 123.07,212.31 257.12,142.46 104.8,-54.6 91.48,-194.87 91.15,-316.15 -0.53,-195.85 23.78,-638.23 -6.2,-804.89 -19.61,-108.99 -113.56,-207.36 -248,-145.28 -105.97,48.93 -97.51,184.96 -97.12,312.87 0.64,211.5 -24.07,623.72 3.05,810.99z"/>
   <path class="fil3" d="M10129.73 15698.78c-0.02,219.99 -44.15,901.36 64.31,1000.9 64.65,59.34 180.18,43.73 233.35,-11.39 91.44,-94.78 54.46,-426.55 54.46,-584.05 0,-139.75 28.63,-514.46 -35.33,-604.9 -41.45,-58.62 -140.34,-102.96 -233.21,-47.78 -73.62,43.75 -83.58,141.97 -83.58,247.22z"/>
   <path class="fil3" d="M15563.07 14173.47c17.34,110.83 108.89,208.47 232.54,153.96 101.97,-44.97 115.46,-149.18 115.44,-288.88 -0.03,-229.11 22.94,-619.77 -3.49,-829.81 -25.68,-204.17 -349.48,-327.48 -348.35,134.31 0.51,208.85 -24.52,649.05 3.86,830.42z"/>
   <path class="fil3" d="M16709.28 16567.62c23.56,104.2 147.3,192.09 267.02,118.86 87.8,-53.71 78.51,-198.81 78.1,-331.22 -0.54,-174.54 21.52,-668.63 -9.05,-803.45 -25.18,-111.02 -137.68,-190.46 -259.04,-117.9 -96.42,57.66 -84.1,201.17 -83.52,322.7 0.79,166.37 -21.91,685.42 6.49,811.01z"/>
   <path class="fil3" d="M11375.89 15447.78c-126.48,108.93 -82.93,506.66 -82.94,753 0,97.99 -10.96,315.34 8.57,399.81 22.66,98.02 130.84,184.6 250.86,111.95 153.85,-93.12 91.37,-524.45 91.37,-743.45 0,-99.01 11.23,-313.35 -10.17,-398.74 -25.03,-99.92 -165.29,-202.14 -257.69,-122.57z"/>
   <path class="fil3" d="M14747.49 16606.24c38.86,-89.01 19.54,-661.06 19.78,-810.95 0.19,-123.56 18.63,-264.41 -63.05,-340.39 -88.27,-82.1 -223.1,-47.98 -266.89,46.03 -46.21,99.22 -20.94,657.08 -21.14,815.7 -0.14,120.82 -21.66,285.69 57.61,354.98 95.01,83.03 227.78,39.81 273.69,-65.37z"/>
   <path class="fil3" d="M15565 11837.24c19.75,104.87 144.93,198.08 268.82,115.69 87.74,-58.35 77.36,-199.98 77.02,-328.04 -0.44,-159.52 19.92,-684.86 -9.89,-802.43 -35.28,-139.11 -343.81,-330.92 -341.62,203.8 0.78,188.66 -23.73,654.93 5.67,810.98z"/>
   <path class="fil3" d="M16709.2 11837.24c27.04,102.89 136.39,178.34 251.42,124.74 101.16,-47.13 94.62,-175.52 93.83,-317.76 -1.08,-192.07 23.71,-645.73 -6.99,-806.28 -22.93,-119.97 -128.99,-191.41 -253.57,-129.58 -103.95,51.6 -91.85,190.2 -91.17,317.9 0.77,145.23 -19.06,713.77 6.48,810.98z"/>
   <path class="fil3" d="M17041.62 14192.78c33.72,-123.15 12.2,-638.53 12.82,-810.95 0.47,-129.69 8.43,-268.31 -84.48,-322.99 -113.07,-66.56 -226.52,1.88 -255.03,99.98 -30.88,106.23 -11.36,668.22 -12.16,821.59 -0.7,135.04 -5.56,266.76 81.58,324.11 123.99,81.62 226.84,-0.6 257.27,-111.74z"/>
   <path class="fil3" d="M11292.95 21182.16c0,149.47 -0.12,307.04 172.82,306.12 158.24,-0.83 178.05,-140.62 177.98,-286.81l0.07 -753c0,-142.73 -36.33,-281.14 -195.01,-268.14 -151.85,12.44 -155.86,156.93 -155.86,306.75l0 695.08z"/>
   <path class="fil3" d="M10129.61 18073.62l0.11 791.62c-0.11,325.71 339.82,323.04 352.23,20.42 10.43,-254.58 0.21,-535.35 -0.18,-792.73 -0.6,-134.76 -17.75,-274.26 -156.95,-285.91 -155.5,-13.02 -195.21,114.45 -195.21,266.6z"/>
   <path class="fil3" d="M15751.89 20467.78l0 714.38c0,150.26 24.18,277.77 178.62,278.46 165.87,0.73 173.23,-140.42 173.23,-297.77l0 -733.69c0,-145.68 -26.49,-282.2 -189.61,-268.6 -153.91,12.82 -162.24,156.2 -162.24,307.22z"/>
   <path class="fil3" d="M11643.63 14057.63l0.12 -733.7c0,-358.28 -252.62,-275.33 -308.03,-208.81 -79.69,95.69 -42.77,446.79 -42.77,594.97 0,160.63 -34.9,496.33 49.45,587.75 45.74,49.58 299.83,178.21 301.23,-240.21z"/>
   <path class="fil3" d="M10129.61 13323.93l0.2 753.01c-0.06,132.83 16.06,273.55 177.05,274.55 161.88,1 174.57,-145.35 175.06,-293.86l-0.09 -733.7c0.01,-143.88 -32.39,-265.45 -176.97,-268.19 -145.31,-2.76 -175.27,129.59 -175.25,268.19z"/>
   <path class="fil3" d="M12437.5 13304.63l-0.05 772.31c0.2,365.82 350.45,363.73 350.51,-19.31l0.16 -733.7c0.04,-132.46 -11.54,-282.06 -162.71,-287.56 -162.37,-5.9 -187.92,118.35 -187.91,268.26z"/>
   <path class="fil3" d="M11293.03 18073.62l-0.07 733.7c0.07,150.69 1.37,293.93 173.35,295.1 175.08,1.2 177.66,-160.19 177.63,-314.41l-0.27 -714.39c-0.1,-137.47 -31.18,-257.93 -177.29,-258.91 -152.39,-1.03 -173.35,116.42 -173.35,258.91z"/>
   <path class="fil0" d="M13426.23 8302.91l4557.99 -0.85 5 902.11 -4552.92 0.55 -10.07 -901.81zm107.93 933.04l4475.22 -7.48c17.14,-244.17 7.08,-610.02 6.52,-866.61 -0.21,-87.48 -8.05,-94.51 -95.03,-94.51l-4386.71 0c-184.62,0 -136.7,-13.23 -136.7,480.66 0,510.29 -49.98,487.95 136.7,487.94z"/>
   <path class="fil3" d="M7346.4 5302.17c-466.9,144.85 -63.54,768.63 223.41,689.06 452.88,-125.57 43.87,-771.98 -223.41,-689.06z"/>
   <path class="fil3" d="M18348.96 25754.75c-192.3,74.12 -235.28,206.28 -135.31,405.13 72.54,144.28 156.94,305.07 373.98,227.97 176.67,-62.75 206.92,-237.01 119.86,-410.51 -67.09,-133.69 -158.03,-299.86 -358.53,-222.59z"/>
   <path class="fil2" d="M10422.89 10217.98c191.94,0 155.91,22.9 155.75,-176.35l-11.63 -281.12 -492.09 1.86 0.09 452.69 347.88 2.92z"/>
   <path class="fil3" d="M4436.74 21780.7c13.61,92.73 93.18,205.69 147.67,233.89 150.94,78.08 719.54,-112.95 403.99,-525.47l-551.66 291.58z"/>
   <path class="fil3" d="M14938.81 26814.26l72.17 615.01c254.67,34.74 369.56,-89.17 340.47,-339.15 -34.26,-294.49 -126.61,-305.39 -412.64,-275.86z"/>
   <path class="fil3" d="M14319.04 3303.1c91.1,45.75 361.16,77.04 382.34,-58.84 27.4,-175.74 -223.68,-182.86 -369.6,-152.57l-12.74 211.41z"/>
   <path class="fil3" d="M8356.55 4577.55c1.98,74.26 49.13,143.67 95.22,206.29 20.7,-4.13 341.7,-109.41 284.73,-276.14 -57.99,-169.75 -298.32,21.16 -379.95,69.85z"/>
   <path class="fil3" d="M22607.76 8409.5c28.18,112.82 130.76,351.43 273.25,299.62 161.1,-58.57 -14.17,-302.54 -71,-386.45 -90.19,4.52 -107.34,53.66 -202.25,86.83z"/>
   <path class="fil3" d="M3718.28 12744.71l201.85 30.47c21.28,-119.83 59.92,-297.93 15.8,-402.47 -114.94,-39.05 -172.13,-35.69 -193.86,85.34 -13.42,74.79 -31.37,213.57 -23.79,286.66z"/>
   <path class="fil3" d="M3235.02 12685.19l207.6 25.41c19.81,-134.93 95.12,-374.16 -56.59,-392.1 -156.83,-18.56 -154.57,231.34 -151.01,366.69z"/>
   <path class="fil3" d="M3923.28 16997.92l-218.23 -1.26c-13.9,127.53 -40.07,361.49 109.37,365.56 162.41,4.42 121.98,-238.73 108.86,-364.3z"/>
   <path class="fil3" d="M22392.86 21877.24l190.52 93.49c40.77,-100.4 214.88,-319.33 63.23,-378.7 -140.46,-55 -252.67,199.09 -253.75,285.21z"/>
   <path class="fil3" d="M11550.31 3310.28l41.48 253.08c136.28,9.2 293.87,-29.22 273.12,-177.99 -23.27,-166.73 -188.22,-106.94 -314.6,-75.09z"/>
   <path class="fil3" d="M21819.53 7338.55c60.2,73.56 131.52,266.01 275.26,154.62 130.07,-100.8 -5.99,-244.03 -77.09,-312.3 -50.43,17.07 -162.6,95.9 -198.17,157.68z"/>
   <path class="fil4" d="M3426.1 17028.73c-25.62,-63.83 -9.8,-42.16 -211.32,-34.41 -75.12,2.89 -149.56,9.18 -223.07,-2.87l-11.56 -363.92 1200.79 -20.42c21.97,262.13 27.64,616.26 12.34,871.32l28.48 -447.42c-3.54,-137.9 0.22,-299.36 -13.31,-433.75 -77.89,-31.5 -1116.47,-9.09 -1241.25,12.91 -23.38,106.24 -11.08,287.09 1.6,398.04 145.61,44.82 311.44,-22.11 457.3,20.52z"/>
   <path class="fil5" d="M10422.89 10217.98l-347.88 -2.92 -0.09 -452.69 492.09 -1.86 11.63 281.12c0.16,199.25 36.19,176.35 -155.75,176.35zm-368.64 16.72c82.01,36.31 431.57,26.91 532.55,8.73 38.56,-95.76 37.39,-406.57 2.95,-504.45l-418.08 -10.77c-167.92,0.07 -134.7,32.89 -133.51,197.53 0.7,97.69 -17.97,225.03 16.09,308.96z"/>
   <path class="fil3" d="M4026.41 11236.13c43.3,-64.55 61.61,-170.98 69.72,-257.27l-441.14 5.45c31.4,53.4 18.97,37.05 84.49,78 34.49,21.56 62.24,38.25 94.77,59.44 64.62,42.09 124.32,88.43 192.16,114.38z"/>
   <path class="fil3" d="M8890.56 26124.93c48.92,55.43 146.38,97.44 222.87,105.24l76.83 -410.88c-74.16,33.87 -109.32,87.43 -154.46,136.14 -56.82,61.32 -113.82,106.17 -145.24,169.5z"/>
   <path class="fil3" d="M23626.19 18491.09c42.15,47.77 306.93,171.5 381.95,188.41l31.74 -104.7c6.77,-47.38 9.95,-91.66 11.99,-139.32l-425.68 55.61z"/>
   <path class="fil3" d="M11968.11 27205.78l242.78 32.95 -52.9 -430.96c-42.94,61.32 -182.12,316.04 -189.88,398.01z"/>
   <path class="fil6" d="M13828.59 27129.03l27.41 53.99c40.72,-64.88 27.81,-178.99 30.48,-285.78 2.36,-94.65 -6.6,-204.54 14.85,-292.54l325.95 2 -5.24 793.7c10.11,-16.86 10.78,-6.4 17.73,-40.87l9.15 -365.75c2.74,-123.79 20.8,-285.65 -1.4,-403.65 -106.78,-27.42 -261.77,-36.18 -374.57,-6.04l-14.25 544.84c-15.96,17.04 23.95,43.26 -30.11,0.1z"/>
   <path class="fil6" d="M4339.42 19032.54l-211.22 23.27c-17.64,-92.71 -10.51,-173.96 -55.43,-222.23l38.07 237.75c71.1,13.83 169.12,6.42 228.58,-38.79z"/>
   <path class="fil6" d="M19508.19 25476.54c12.77,-38.05 -28.3,-44.66 36.93,-18.92 -35.22,-76.58 -9.45,-46.76 -77.44,-87.12 -35.51,-21.08 -63.38,-46.09 -108.28,-50.37 77.44,64.22 60.65,104.75 148.79,156.41z"/>
   <path class="fil6" d="M20805.67 24415.32c11.46,-31.47 -24.43,-27.99 35.59,-20.55 -42.58,-61.32 -93.43,-78.56 -178.38,-103.38 51.83,84.04 81.64,103.56 142.79,123.93z"/>
   <path class="fil4" d="M16431.02 3736.89c33.04,-28.48 23.26,28.36 31.75,-29.06l-1.08 37.76 48.1 -78.89c22.15,-69.19 13.98,-66.04 0.38,-87.87 -47.05,69.52 -54.98,80.12 -79.15,158.06z"/>
  </g>
 </g>
</svg>
