<?xml version="1.0" encoding="UTF-8"?>
<!DOCTYPE svg PUBLIC "-//W3C//DTD SVG 1.1//EN" "http://www.w3.org/Graphics/SVG/1.1/DTD/svg11.dtd">
<!-- Creator: CorelDRAW -->
<svg xmlns="http://www.w3.org/2000/svg" xml:space="preserve" width="14.5162in" height="4.74795in" version="1.1" style="shape-rendering:geometricPrecision; text-rendering:geometricPrecision; image-rendering:optimizeQuality; fill-rule:evenodd; clip-rule:evenodd"
viewBox="0 0 6533.13 2136.86"
 xmlns:xlink="http://www.w3.org/1999/xlink"
 xmlns:xodm="http://www.corel.com/coreldraw/odm/2003">
 <defs>
  <style type="text/css">
   <![CDATA[
    .fil2 {fill:#606062;fill-rule:nonzero}
    .fil1 {fill:#C23541;fill-rule:nonzero}
    .fil3 {fill:#C23541;fill-rule:nonzero}
    .fil0 {fill:#343F6B;fill-rule:nonzero}
   ]]>
  </style>
 </defs>
 <g id="Capa_x0020_1">
  <metadata id="CorelCorpID_0Corel-Layer"/>
  <g id="_1659727865408">
   <polygon class="fil0" points="211.15,196.22 869.3,196.22 808.65,419.35 413.31,419.35 386.35,518.67 753.62,518.67 698.58,721.71 331.32,721.71 262.81,977.18 -0,977.18 "/>
   <path class="fil0" d="M1300.57 567.74c44.17,0 77.5,-8.72 99.98,-26.22 22.46,-17.47 33.68,-38.5 33.68,-63.04 0,-16.35 -5.61,-30.1 -16.84,-41.26 -14.99,-14.89 -40.83,-22.33 -77.52,-22.33l-93.2 0 -41.56 152.85 95.46 0zm-257.2 -371.51l306.62 0c72.62,0 132.52,7.45 179.7,22.31 47.15,14.87 83.85,35.33 110.07,61.35 21.68,21.59 37.41,46.31 47.15,74.19 9.73,27.91 14.61,57.46 14.61,88.72 0,30.5 -4.12,59.68 -12.33,87.57 -8.28,27.88 -21.18,53.76 -38.77,77.54 -17.61,23.82 -40.25,45.03 -67.96,63.6 -27.68,18.59 -61.04,33.84 -99.94,45.73l108.97 259.94 -283.03 0 -87.61 -223.13 -65.16 0 -60.65 223.13 -262.81 0 211.15 -780.95z"/>
   <polygon class="fil0" points="1956.47,196.22 2626.98,196.22 2568.57,410.42 2156.39,410.42 2135.04,489.65 2519.15,489.65 2468.62,678.19 2084.52,678.19 2060.92,762.97 2478.72,762.97 2421.44,977.18 1745.32,977.18 "/>
   <polygon class="fil0" points="2824.62,196.22 3495.13,196.22 3436.75,410.42 3024.55,410.42 3003.19,489.65 3387.3,489.65 3336.78,678.19 2952.67,678.19 2929.09,762.97 3346.88,762.97 3289.6,977.18 2613.47,977.18 "/>
   <path class="fil0" d="M3852.29 749.59c40.44,0 76.93,-5.58 109.5,-16.73 32.58,-11.15 58.98,-26.79 79.17,-46.87 16.45,-16.35 29.91,-36.6 40.43,-60.78 10.48,-24.17 15.74,-48.15 15.74,-71.97 0,-21.56 -2.84,-39.42 -8.42,-53.57 -5.61,-14.12 -13.67,-26.37 -24.15,-36.81 -12.72,-12.64 -29.21,-22.31 -49.42,-29.01 -20.21,-6.68 -46.05,-10.02 -77.49,-10.02l-43.77 0 -87.64 325.76 46.07 0zm-159.49 -553.38l278.52 0c76.39,0 139.27,9.32 188.7,27.92 49.42,18.6 89.07,42.77 119.05,72.5 56.88,56.53 85.34,132.77 85.34,228.7 0,58.76 -10.87,114.21 -32.55,166.23 -21.74,52.09 -53.93,99.31 -96.6,141.71 -47.18,46.86 -104.84,82.55 -172.96,107.08 -68.14,24.56 -147.9,36.81 -239.25,36.81l-341.41 0 211.15 -780.95z"/>
   <polygon class="fil0" points="5648.12,196.22 5907.55,196.22 6001.89,470.67 6244.48,196.22 6533.13,196.22 6321.97,977.18 6060.3,977.18 6164.75,590.06 5908.69,867.86 5904.18,867.86 5798.6,590.06 5694.17,977.18 5436.97,977.18 "/>
   <path class="fil0" d="M5458.22 61.88c-73.91,29.34 -77.84,36.64 -62.28,114.11 -29.51,-73.38 -36.88,-77.33 -114.91,-61.87 73.87,-29.34 77.87,-36.64 62.29,-114.12 29.53,73.36 36.87,77.33 114.9,61.88z"/>
   <path class="fil1" d="M4993.41 214.37c50.11,0 90.67,40.32 90.67,90.06 0,49.71 -40.55,90.02 -90.67,90.02 -50.04,0 -90.63,-40.31 -90.63,-90.02 0,-49.75 40.59,-90.06 90.63,-90.06zm-129.06 365.55c0,0 -181.8,-31.41 -218.7,-248.67 0,0 118.22,359.2 595.97,-82.17 -77.64,-70.75 -180.96,-114.09 -294.61,-114.09 -240.77,0 -436.01,193.89 -436.01,433.09 0,214.11 156.48,391.73 361.98,426.71l94.09 -197.65 -274.04 104.69 171.32 -321.91z"/>
   <path class="fil0" d="M5292.11 303.52l45.75 -148.11 -381.33 539.65 263.47 -107.29 -392.65 551.5 173.23 -141.47c215.51,-26.23 382.43,-208.53 382.43,-429.7 0,-99.68 -33.99,-191.4 -90.9,-264.58z"/>
   <path class="fil2" d="M290.32 1259.2l212.58 0 -9.27 52.06 -145.42 0 -13.75 76.45 130.45 0 -9.26 51.83 -130.53 0 -15.82 89.87 148.82 0 -9.26 51.91 -215.51 0 56.96 -322.12zm332.84 0l-48.17 270.21 140.01 0 -9.26 51.91 -206.71 0 56.96 -322.12 67.16 0zm184.78 0l212.58 0 -9.27 52.06 -145.42 0 -13.75 76.45 130.45 0 -9.26 51.83 -130.53 0 -15.82 89.87 148.82 0 -9.26 51.91 -215.51 0 56.96 -322.12zm427.39 258.09l16.3 48.76c-37.21,12.88 -73.41,19.32 -108.54,19.32 -39.06,0 -67.23,-7.74 -84.6,-23.16 -17.37,-15.4 -26.01,-40.64 -26.01,-75.68 0,-17.87 2.32,-40.1 7.03,-66.7 6.79,-39.57 15.9,-70.93 27.32,-94.16 11.5,-23.23 26.86,-40.87 46.16,-52.98 19.6,-12.04 46.93,-18.02 82.05,-18.02 8.65,0 20.69,0.84 36.13,2.45 15.44,1.68 27.94,3.45 37.44,5.44 3.55,0.84 7.79,1.99 12.5,3.37 4.78,1.3 8.64,2.38 11.58,3.22 2.93,0.85 4.63,1.23 5.1,1.23l-20.38 46.32c-8.87,-2.23 -20.3,-4.37 -34.19,-6.29 -18.38,-2.53 -35.2,-3.83 -50.41,-3.83 -19.6,0 -34.35,3.53 -44.3,10.66 -9.96,7.13 -18.22,19.55 -24.86,37.18 -6.17,14.96 -12.5,39.8 -18.99,74.61 -5.17,29.06 -7.72,50.53 -7.72,64.41 0,7.36 0.62,13.42 1.78,18.09 1.24,4.75 3.55,8.9 7.03,12.34 3.47,3.52 8.41,6.14 14.75,7.67 6.32,1.61 14.51,2.38 24.62,2.38 30.87,0 60.97,-5.52 90.22,-16.64zm98.34 -258.09l253.48 0 -9.26 52.06 -93.63 0 -47.71 270.06 -67.15 0 48.16 -270.06 -93.16 0 9.26 -52.06zm298.02 0l149.28 0c24.4,0 42.92,6.13 55.5,18.56 12.58,12.34 18.91,30.52 18.91,54.66 0,9.28 -0.93,19.86 -2.7,31.67 -4.87,26.84 -13.59,47.77 -26.17,62.88 -12.58,15.18 -29.48,25 -50.79,29.67l45.46 124.68 -74.57 0 -37.13 -121.53 -46.16 0 -21.92 121.53 -66.68 0 56.96 -322.12zm57.9 52.06l-17.6 97.08 64.45 0c27.87,0 44.85,-16.25 50.86,-48.77 1.08,-6.59 1.54,-11.66 1.54,-15.25 0,-22.01 -11.57,-33.05 -34.81,-33.05l-64.45 0zm302.81 -52.06l-57.43 322.12 -66.68 0 56.96 -322.12 67.16 0zm225.47 258.09l16.29 48.76c-37.21,12.88 -73.41,19.32 -108.54,19.32 -39.06,0 -67.23,-7.74 -84.6,-23.16 -17.37,-15.4 -26.01,-40.64 -26.01,-75.68 0,-17.87 2.32,-40.1 7.03,-66.7 6.79,-39.57 15.9,-70.93 27.32,-94.16 11.5,-23.23 26.86,-40.87 46.16,-52.98 19.6,-12.04 46.93,-18.02 82.05,-18.02 8.65,0 20.69,0.84 36.13,2.45 15.44,1.68 27.94,3.45 37.44,5.44 3.55,0.84 7.8,1.99 12.5,3.37 4.78,1.3 8.64,2.38 11.58,3.22 2.93,0.85 4.63,1.23 5.1,1.23l-20.38 46.32c-8.87,-2.23 -20.3,-4.37 -34.19,-6.29 -18.38,-2.53 -35.2,-3.83 -50.41,-3.83 -19.6,0 -34.35,3.53 -44.3,10.66 -9.96,7.13 -18.22,19.55 -24.86,37.18 -6.17,14.96 -12.5,39.8 -18.99,74.61 -5.17,29.06 -7.72,50.53 -7.72,64.41 0,7.36 0.62,13.42 1.78,18.09 1.24,4.75 3.56,8.9 7.03,12.34 3.47,3.52 8.41,6.14 14.74,7.67 6.32,1.61 14.51,2.38 24.62,2.38 30.87,0 60.97,-5.52 90.23,-16.64zm389.57 0l16.29 48.76c-37.21,12.88 -73.41,19.32 -108.53,19.32 -39.06,0 -67.23,-7.74 -84.6,-23.16 -17.37,-15.4 -26.01,-40.64 -26.01,-75.68 0,-17.87 2.32,-40.1 7.03,-66.7 6.79,-39.57 15.9,-70.93 27.32,-94.16 11.5,-23.23 26.86,-40.87 46.16,-52.98 19.6,-12.04 46.93,-18.02 82.05,-18.02 8.65,0 20.69,0.84 36.13,2.45 15.44,1.68 27.94,3.45 37.44,5.44 3.55,0.84 7.8,1.99 12.5,3.37 4.78,1.3 8.64,2.38 11.58,3.22 2.93,0.85 4.63,1.23 5.1,1.23l-20.38 46.32c-8.87,-2.23 -20.3,-4.37 -34.19,-6.29 -18.38,-2.53 -35.21,-3.83 -50.41,-3.83 -19.6,0 -34.35,3.53 -44.3,10.66 -9.96,7.13 -18.21,19.55 -24.86,37.18 -6.17,14.96 -12.5,39.8 -18.99,74.61 -5.17,29.06 -7.72,50.53 -7.72,64.41 0,7.36 0.62,13.42 1.78,18.09 1.24,4.75 3.55,8.9 7.03,12.34 3.47,3.52 8.41,6.14 14.75,7.67 6.32,1.61 14.51,2.38 24.62,2.38 30.87,0 60.97,-5.52 90.22,-16.64zm69.01 -46.93l18.52 -104.28c5.71,-33.66 22.54,-60.65 50.41,-80.97 27.94,-20.24 61.82,-30.44 101.81,-30.44 40.06,0 70.7,8.58 91.93,25.76 21.15,17.1 31.73,39.87 31.73,68.16 0,8.52 -0.62,15.87 -1.78,22.01l-18.52 104.43c-5.64,33.43 -22.39,60.2 -50.48,80.44 -28.02,20.24 -61.98,30.36 -101.97,30.36 -39.21,0 -69.55,-8.66 -91.16,-25.99 -21.54,-17.25 -32.34,-40.03 -32.34,-68.17 0,-8.36 0.62,-15.49 1.86,-21.32zm207.32 2.46l18.61 -104.43c1.15,-5.44 1.77,-11.43 1.77,-18.02 0,-15.1 -4.93,-26.23 -14.82,-33.2 -9.88,-7.06 -25.7,-10.59 -47.62,-10.59 -45.77,0 -72.47,20.63 -80.04,61.8l-18.53 104.43c-1.39,5.21 -2.01,10.73 -2.01,16.4 0,14.8 5.02,26 15.14,33.43 10.11,7.52 25.94,11.27 47.47,11.27 46,0 72.71,-20.4 80.04,-61.11zm415.66 -213.62l-56.82 322.12 -71.86 0 -79.2 -208.02 -37.51 208.02 -66.69 0 56.97 -322.12 71.7 0 78.89 210.25 37.97 -210.25 66.54 0zm43.38 0l253.48 0 -9.26 52.06 -93.63 0 -47.71 270.06 -67.15 0 48.17 -270.06 -93.16 0 9.26 -52.06zm298.02 0l149.28 0c24.4,0 42.92,6.13 55.5,18.56 12.58,12.34 18.91,30.52 18.91,54.66 0,9.28 -0.93,19.86 -2.7,31.67 -4.87,26.84 -13.59,47.77 -26.17,62.88 -12.58,15.18 -29.48,25 -50.79,29.67l45.46 124.68 -74.56 0 -37.13 -121.53 -46.16 0 -21.92 121.53 -66.68 0 56.96 -322.12zm57.9 52.06l-17.6 97.08 64.45 0c27.87,0 44.85,-16.25 50.86,-48.77 1.08,-6.59 1.54,-11.66 1.54,-15.25 0,-22.01 -11.57,-33.05 -34.81,-33.05l-64.45 0zm400.07 -52.06l58.35 322.12 -68.54 0 -12.43 -77.29 -107.83 0 -39.84 77.29 -70.54 0 172.75 -322.12 68.08 0zm-47.24 83.35l-57.89 110.49 75.95 0 -18.06 -110.49zm356.14 174.75l16.29 48.76c-37.21,12.88 -73.41,19.32 -108.53,19.32 -39.06,0 -67.23,-7.74 -84.6,-23.16 -17.37,-15.4 -26.01,-40.64 -26.01,-75.68 0,-17.87 2.32,-40.1 7.03,-66.7 6.79,-39.57 15.9,-70.93 27.32,-94.16 11.5,-23.23 26.86,-40.87 46.16,-52.98 19.6,-12.04 46.93,-18.02 82.05,-18.02 8.65,0 20.69,0.84 36.13,2.45 15.44,1.68 27.94,3.45 37.44,5.44 3.55,0.84 7.8,1.99 12.5,3.37 4.78,1.3 8.64,2.38 11.58,3.22 2.93,0.85 4.63,1.23 5.09,1.23l-20.38 46.32c-8.87,-2.23 -20.3,-4.37 -34.19,-6.29 -18.38,-2.53 -35.21,-3.83 -50.41,-3.83 -19.6,0 -34.35,3.53 -44.3,10.66 -9.96,7.13 -18.21,19.55 -24.86,37.18 -6.17,14.96 -12.5,39.8 -18.99,74.61 -5.17,29.06 -7.72,50.53 -7.72,64.41 0,7.36 0.62,13.42 1.78,18.09 1.24,4.75 3.55,8.9 7.03,12.34 3.47,3.52 8.41,6.14 14.75,7.67 6.32,1.61 14.51,2.38 24.62,2.38 30.87,0 60.97,-5.52 90.22,-16.64zm98.34 -258.09l253.48 0 -9.26 52.06 -93.63 0 -47.71 270.06 -67.15 0 48.17 -270.06 -93.16 0 9.26 -52.06zm241.75 211.16l18.52 -104.28c5.71,-33.66 22.54,-60.65 50.41,-80.97 27.94,-20.24 61.83,-30.44 101.81,-30.44 40.06,0 70.7,8.58 91.93,25.76 21.15,17.1 31.73,39.87 31.73,68.16 0,8.52 -0.62,15.87 -1.78,22.01l-18.52 104.43c-5.64,33.43 -22.39,60.2 -50.48,80.44 -28.02,20.24 -61.98,30.36 -101.96,30.36 -39.21,0 -69.55,-8.66 -91.16,-25.99 -21.54,-17.25 -32.34,-40.03 -32.34,-68.17 0,-8.36 0.62,-15.49 1.85,-21.32zm207.33 2.46l18.6 -104.43c1.15,-5.44 1.77,-11.43 1.77,-18.02 0,-15.1 -4.93,-26.23 -14.82,-33.2 -9.88,-7.06 -25.7,-10.59 -47.62,-10.59 -45.77,0 -72.48,20.63 -80.04,61.8l-18.53 104.43c-1.39,5.21 -2.01,10.73 -2.01,16.4 0,14.8 5.02,26 15.14,33.43 10.11,7.52 25.94,11.27 47.47,11.27 46,0 72.71,-20.4 80.04,-61.11zm162.78 -213.62l149.28 0c24.4,0 42.92,6.13 55.5,18.56 12.58,12.34 18.91,30.52 18.91,54.66 0,9.28 -0.93,19.86 -2.7,31.67 -4.87,26.84 -13.59,47.77 -26.17,62.88 -12.58,15.18 -29.48,25 -50.79,29.67l45.46 124.68 -74.56 0 -37.13 -121.53 -46.16 0 -21.92 121.53 -66.68 0 56.96 -322.12zm57.9 52.06l-17.6 97.08 64.45 0c27.86,0 44.85,-16.25 50.86,-48.77 1.08,-6.59 1.54,-11.66 1.54,-15.25 0,-22.01 -11.57,-33.05 -34.81,-33.05l-64.45 0zm288.14 207.42l-79.35 113.17 -62.91 0 68.08 -113.17 74.18 0zm161.01 -259.47l-48.16 270.21 140.01 0 -9.26 51.91 -206.71 0 56.96 -322.12 67.16 0zm251.94 0l-48.16 270.21 140.01 0 -9.26 51.91 -206.71 0 56.96 -322.12 67.16 0zm337.62 258.09l16.29 48.76c-37.21,12.88 -73.41,19.32 -108.54,19.32 -39.06,0 -67.23,-7.74 -84.6,-23.16 -17.37,-15.4 -26.01,-40.64 -26.01,-75.68 0,-17.87 2.32,-40.1 7.03,-66.7 6.79,-39.57 15.9,-70.93 27.32,-94.16 11.5,-23.23 26.86,-40.87 46.16,-52.98 19.6,-12.04 46.93,-18.02 82.05,-18.02 8.65,0 20.69,0.84 36.13,2.45 15.44,1.68 27.94,3.45 37.44,5.44 3.55,0.84 7.8,1.99 12.5,3.37 4.78,1.3 8.64,2.38 11.58,3.22 2.93,0.85 4.63,1.23 5.1,1.23l-20.38 46.32c-8.87,-2.23 -20.3,-4.37 -34.19,-6.29 -18.38,-2.53 -35.2,-3.83 -50.41,-3.83 -19.6,0 -34.35,3.53 -44.3,10.66 -9.96,7.13 -18.22,19.55 -24.86,37.18 -6.17,14.96 -12.5,39.8 -18.99,74.61 -5.17,29.06 -7.72,50.53 -7.72,64.41 0,7.36 0.62,13.42 1.78,18.09 1.24,4.75 3.56,8.9 7.03,12.34 3.47,3.52 8.41,6.14 14.75,7.67 6.32,1.61 14.51,2.38 24.62,2.38 30.87,0 60.97,-5.52 90.23,-16.64z"/>
   <g>
    <path class="fil3" d="M1281.85 2084.63c0,2.75 -0.09,5.15 -0.27,7.29 -0.18,2.04 -0.44,3.82 -0.89,5.42 -0.44,1.51 -0.98,2.93 -1.69,4.17 -0.71,1.16 -1.95,2.66 -3.64,4.35 -1.78,1.78 -5.42,4.44 -10.93,7.99 -5.6,3.55 -12.53,7.01 -20.78,10.39 -8.26,3.38 -17.68,6.22 -28.34,8.53 -10.74,2.4 -22.38,3.56 -35.08,3.56 -21.85,0 -41.66,-3.64 -59.24,-10.93 -17.59,-7.28 -32.69,-18.03 -45.03,-32.33 -12.44,-14.21 -22.03,-31.8 -28.69,-52.67 -6.66,-20.96 -10.04,-45.03 -10.04,-72.3 0,-27.98 3.64,-52.85 10.84,-74.79 7.19,-21.85 17.32,-40.42 30.38,-55.61 13.06,-15.19 28.6,-26.73 46.81,-34.73 18.12,-7.99 38.28,-11.99 60.31,-11.99 9.77,0 19.27,0.89 28.42,2.66 9.24,1.87 17.76,4.09 25.58,6.84 7.82,2.75 14.74,5.95 20.87,9.59 6.04,3.55 10.3,6.58 12.61,8.88 2.4,2.31 3.91,4.09 4.62,5.33 0.71,1.16 1.24,2.57 1.69,4.26 0.44,1.69 0.8,3.64 1.07,5.86 0.27,2.31 0.36,4.97 0.36,8.08 0,3.55 -0.18,6.48 -0.53,8.88 -0.36,2.49 -0.89,4.53 -1.6,6.22 -0.62,1.6 -1.51,2.84 -2.49,3.64 -0.89,0.8 -2.13,1.16 -3.46,1.16 -2.49,0 -5.86,-1.69 -10.31,-5.06 -4.35,-3.38 -9.95,-7.11 -16.88,-11.19 -6.93,-4.09 -15.28,-7.82 -25.14,-11.19 -9.95,-3.37 -21.76,-5.06 -35.53,-5.06 -15.1,0 -28.78,3.02 -41.04,8.97 -12.35,6.04 -22.92,14.83 -31.62,26.47 -8.71,11.64 -15.54,25.85 -20.34,42.64 -4.79,16.79 -7.19,35.97 -7.19,57.47 0,21.41 2.31,40.33 6.93,56.76 4.62,16.43 11.28,30.2 19.9,41.21 8.61,11.01 19.27,19.36 31.8,25.05 12.61,5.6 26.82,8.44 42.72,8.44 13.41,0 25.23,-1.69 35.26,-4.97 10.04,-3.29 18.56,-6.93 25.58,-11.02 7.11,-4.09 12.88,-7.73 17.41,-11.01 4.62,-3.29 8.17,-4.97 10.75,-4.97 1.24,0 2.31,0.27 3.2,0.8 0.89,0.54 1.51,1.51 2.04,2.93 0.53,1.51 0.98,3.55 1.24,6.13 0.27,2.57 0.35,5.86 0.35,9.86zm271.89 -78.96c0,19.1 -2.49,36.69 -7.55,52.76 -4.97,15.99 -12.52,29.84 -22.47,41.48 -9.95,11.64 -22.47,20.7 -37.39,27.18 -15.01,6.49 -32.42,9.77 -52.14,9.77 -19.27,0 -36.06,-2.84 -50.36,-8.61 -14.3,-5.69 -26.2,-14.04 -35.71,-24.96 -9.5,-10.93 -16.61,-24.25 -21.32,-39.79 -4.71,-15.63 -7.02,-33.31 -7.02,-53.12 0,-19.1 2.49,-36.69 7.37,-52.67 4.98,-16.08 12.44,-29.93 22.38,-41.57 9.95,-11.64 22.38,-20.61 37.31,-27.09 14.92,-6.39 32.33,-9.59 52.23,-9.59 19.27,0 36.06,2.84 50.36,8.62 14.3,5.68 26.2,14.03 35.71,24.96 9.5,10.93 16.7,24.16 21.49,39.79 4.71,15.64 7.11,33.22 7.11,52.85zm-44.77 2.75c0,-12.7 -1.16,-24.69 -3.55,-35.97 -2.31,-11.28 -6.22,-21.14 -11.64,-29.67 -5.33,-8.53 -12.7,-15.28 -21.94,-20.16 -9.15,-4.97 -20.7,-7.46 -34.46,-7.46 -12.7,0 -23.63,2.22 -32.77,6.75 -9.15,4.53 -16.61,10.93 -22.56,19.19 -5.95,8.26 -10.31,18.03 -13.15,29.31 -2.93,11.28 -4.35,23.63 -4.35,36.95 0,12.88 1.16,24.96 3.56,36.24 2.31,11.28 6.22,21.14 11.72,29.58 5.51,8.35 12.88,15.1 22.03,19.99 9.24,4.97 20.78,7.46 34.55,7.46 12.52,0 23.36,-2.22 32.6,-6.75 9.24,-4.53 16.79,-10.83 22.74,-19.01 5.95,-8.17 10.3,-17.94 13.06,-29.23 2.75,-11.28 4.18,-23.71 4.18,-37.22zm455.84 117.16c0,1.42 -0.35,2.57 -1.06,3.55 -0.71,0.89 -1.78,1.78 -3.37,2.49 -1.51,0.62 -3.73,1.15 -6.49,1.51 -2.75,0.36 -6.22,0.54 -10.39,0.54 -4.35,0 -7.91,-0.18 -10.66,-0.54 -2.75,-0.36 -4.97,-0.89 -6.66,-1.51 -1.6,-0.71 -2.75,-1.6 -3.46,-2.49 -0.71,-0.98 -1.06,-2.13 -1.06,-3.55l0 -142.39c0,-9.95 -0.89,-19.01 -2.58,-27.09 -1.78,-8.17 -4.53,-15.19 -8.35,-21.14 -3.82,-5.86 -8.62,-10.39 -14.48,-13.5 -5.86,-3.11 -12.79,-4.71 -20.79,-4.71 -9.86,0 -19.81,3.82 -29.67,11.46 -9.95,7.64 -20.96,18.83 -32.86,33.58l0 163.79c0,1.42 -0.35,2.57 -1.06,3.55 -0.71,0.89 -1.87,1.78 -3.55,2.49 -1.6,0.62 -3.82,1.15 -6.66,1.51 -2.75,0.36 -6.22,0.54 -10.39,0.54 -4.08,0 -7.46,-0.18 -10.39,-0.54 -2.84,-0.36 -5.15,-0.89 -6.75,-1.51 -1.69,-0.71 -2.84,-1.6 -3.46,-2.49 -0.62,-0.98 -0.89,-2.13 -0.89,-3.55l0 -142.39c0,-9.95 -0.98,-19.01 -2.84,-27.09 -1.96,-8.17 -4.8,-15.19 -8.62,-21.14 -3.82,-5.86 -8.62,-10.39 -14.39,-13.5 -5.86,-3.11 -12.7,-4.71 -20.7,-4.71 -9.86,0 -19.9,3.82 -29.93,11.46 -10.04,7.64 -20.96,18.83 -32.77,33.58l0 163.79c0,1.42 -0.35,2.57 -1.07,3.55 -0.71,0.89 -1.78,1.78 -3.38,2.49 -1.6,0.62 -3.73,1.15 -6.57,1.51 -2.75,0.36 -6.31,0.54 -10.66,0.54 -4.26,0 -7.73,-0.18 -10.48,-0.54 -2.84,-0.36 -5.06,-0.89 -6.66,-1.51 -1.69,-0.71 -2.84,-1.6 -3.46,-2.49 -0.62,-0.98 -0.89,-2.13 -0.89,-3.55l0 -234.32c0,-1.42 0.27,-2.58 0.8,-3.55 0.53,-0.89 1.51,-1.78 3.11,-2.58 1.6,-0.8 3.55,-1.33 6.04,-1.6 2.4,-0.27 5.68,-0.36 9.68,-0.36 3.82,0 7.02,0.09 9.51,0.36 2.58,0.27 4.53,0.8 5.95,1.6 1.33,0.8 2.4,1.69 3.02,2.58 0.53,0.97 0.89,2.13 0.89,3.55l0 31c13.15,-14.83 26.02,-25.67 38.46,-32.51 12.35,-6.84 24.96,-10.31 37.57,-10.31 9.77,0 18.48,1.16 26.2,3.38 7.73,2.31 14.57,5.42 20.43,9.51 5.95,4.08 11.01,8.97 15.1,14.66 4.18,5.6 7.64,11.9 10.48,18.92 7.82,-8.53 15.19,-15.72 22.21,-21.67 7.02,-5.95 13.77,-10.66 20.25,-14.39 6.48,-3.64 12.79,-6.31 18.92,-7.91 6.22,-1.69 12.34,-2.49 18.56,-2.49 15.1,0 27.71,2.66 37.93,7.91 10.21,5.33 18.48,12.44 24.87,21.23 6.31,8.88 10.75,19.28 13.5,31.18 2.66,11.9 4,24.43 4,37.66l0 148.16zm425.73 0c0,1.42 -0.35,2.57 -1.06,3.55 -0.71,0.89 -1.78,1.78 -3.37,2.49 -1.51,0.62 -3.73,1.15 -6.49,1.51 -2.75,0.36 -6.22,0.54 -10.39,0.54 -4.35,0 -7.91,-0.18 -10.66,-0.54 -2.75,-0.36 -4.97,-0.89 -6.66,-1.51 -1.6,-0.71 -2.76,-1.6 -3.46,-2.49 -0.71,-0.98 -1.06,-2.13 -1.06,-3.55l0 -142.39c0,-9.95 -0.89,-19.01 -2.58,-27.09 -1.78,-8.17 -4.53,-15.19 -8.35,-21.14 -3.82,-5.86 -8.62,-10.39 -14.48,-13.5 -5.86,-3.11 -12.79,-4.71 -20.79,-4.71 -9.86,0 -19.81,3.82 -29.67,11.46 -9.95,7.64 -20.96,18.83 -32.86,33.58l0 163.79c0,1.42 -0.35,2.57 -1.06,3.55 -0.71,0.89 -1.87,1.78 -3.55,2.49 -1.6,0.62 -3.82,1.15 -6.66,1.51 -2.75,0.36 -6.22,0.54 -10.39,0.54 -4.08,0 -7.46,-0.18 -10.39,-0.54 -2.84,-0.36 -5.15,-0.89 -6.75,-1.51 -1.69,-0.71 -2.84,-1.6 -3.46,-2.49 -0.62,-0.98 -0.89,-2.13 -0.89,-3.55l0 -142.39c0,-9.95 -0.98,-19.01 -2.84,-27.09 -1.96,-8.17 -4.8,-15.19 -8.62,-21.14 -3.82,-5.86 -8.62,-10.39 -14.39,-13.5 -5.86,-3.11 -12.7,-4.71 -20.7,-4.71 -9.86,0 -19.9,3.82 -29.93,11.46 -10.04,7.64 -20.96,18.83 -32.77,33.58l0 163.79c0,1.42 -0.35,2.57 -1.07,3.55 -0.71,0.89 -1.78,1.78 -3.38,2.49 -1.6,0.62 -3.73,1.15 -6.57,1.51 -2.75,0.36 -6.31,0.54 -10.66,0.54 -4.26,0 -7.73,-0.18 -10.48,-0.54 -2.84,-0.36 -5.06,-0.89 -6.66,-1.51 -1.69,-0.71 -2.84,-1.6 -3.46,-2.49 -0.62,-0.98 -0.89,-2.13 -0.89,-3.55l0 -234.32c0,-1.42 0.27,-2.58 0.8,-3.55 0.53,-0.89 1.51,-1.78 3.11,-2.58 1.6,-0.8 3.55,-1.33 6.04,-1.6 2.4,-0.27 5.68,-0.36 9.68,-0.36 3.82,0 7.02,0.09 9.51,0.36 2.58,0.27 4.53,0.8 5.95,1.6 1.33,0.8 2.4,1.69 3.02,2.58 0.53,0.97 0.89,2.13 0.89,3.55l0 31c13.15,-14.83 26.03,-25.67 38.46,-32.51 12.34,-6.84 24.96,-10.31 37.57,-10.31 9.77,0 18.48,1.16 26.2,3.38 7.73,2.31 14.57,5.42 20.43,9.51 5.95,4.08 11.01,8.97 15.1,14.66 4.18,5.6 7.64,11.9 10.48,18.92 7.82,-8.53 15.19,-15.72 22.21,-21.67 7.02,-5.95 13.77,-10.66 20.25,-14.39 6.48,-3.64 12.79,-6.31 18.92,-7.91 6.22,-1.69 12.35,-2.49 18.57,-2.49 15.1,0 27.71,2.66 37.93,7.91 10.21,5.33 18.48,12.44 24.87,21.23 6.31,8.88 10.75,19.28 13.5,31.18 2.66,11.9 4,24.43 4,37.66l0 148.16zm277.57 -127.38c0,6.75 -1.69,11.55 -5.06,14.48 -3.38,2.84 -7.29,4.26 -11.64,4.26l-153.84 0c0,13.06 1.33,24.78 3.91,35.18 2.57,10.48 6.93,19.45 13.06,26.91 6.04,7.46 13.94,13.15 23.63,17.14 9.77,4 21.67,6.04 35.71,6.04 11.1,0 21.05,-0.89 29.67,-2.75 8.7,-1.78 16.26,-3.82 22.56,-6.04 6.31,-2.22 11.55,-4.26 15.63,-6.04 4.08,-1.87 7.11,-2.75 9.24,-2.75 1.25,0 2.31,0.27 3.29,0.89 0.89,0.62 1.69,1.51 2.13,2.75 0.53,1.16 0.98,2.84 1.25,4.98 0.27,2.22 0.35,4.8 0.35,7.91 0,2.22 -0.09,4.17 -0.27,5.86 -0.18,1.6 -0.36,3.11 -0.62,4.35 -0.27,1.33 -0.71,2.49 -1.33,3.55 -0.62,0.98 -1.33,1.95 -2.31,2.93 -0.98,0.98 -3.82,2.49 -8.44,4.62 -4.71,2.22 -10.75,4.26 -18.21,6.39 -7.46,2.04 -16.08,3.91 -25.85,5.51 -9.77,1.69 -20.16,2.49 -31.26,2.49 -19.28,0 -36.06,-2.66 -50.54,-8.08 -14.48,-5.33 -26.65,-13.32 -36.51,-23.89 -9.86,-10.66 -17.32,-23.89 -22.3,-39.88 -5.06,-15.9 -7.55,-34.46 -7.55,-55.69 0,-20.07 2.57,-38.19 7.81,-54.27 5.15,-15.99 12.7,-29.67 22.47,-40.86 9.77,-11.19 21.67,-19.72 35.53,-25.76 13.86,-5.95 29.4,-8.97 46.55,-8.97 18.39,0 34.02,2.93 46.9,8.88 12.97,5.86 23.54,13.86 31.89,23.81 8.26,9.95 14.39,21.67 18.29,35.17 3.91,13.41 5.86,27.8 5.86,43.08l0 7.82zm-43.17 -12.7c0.53,-22.56 -4.44,-40.33 -15.01,-53.2 -10.57,-12.88 -26.12,-19.28 -46.81,-19.28 -10.66,0 -19.98,1.96 -27.98,5.95 -7.99,4 -14.66,9.33 -20.07,15.99 -5.42,6.57 -9.59,14.3 -12.53,23 -2.93,8.79 -4.62,17.94 -4.97,27.54l127.37 0zm245.95 -79.05c0,3.82 -0.09,7.02 -0.27,9.59 -0.18,2.58 -0.53,4.62 -1.06,6.13 -0.45,1.51 -1.16,2.58 -1.95,3.38 -0.71,0.8 -1.78,1.16 -3.2,1.16 -1.42,0 -3.11,-0.36 -5.06,-1.16 -2.04,-0.8 -4.26,-1.6 -6.75,-2.31 -2.49,-0.8 -5.33,-1.51 -8.44,-2.22 -3.11,-0.71 -6.49,-1.07 -10.13,-1.07 -4.35,0 -8.61,0.89 -12.79,2.58 -4.09,1.78 -8.53,4.62 -13.06,8.7 -4.62,4 -9.42,9.33 -14.48,15.9 -4.98,6.66 -10.57,14.74 -16.61,24.34l0 154.11c0,1.42 -0.35,2.57 -1.07,3.55 -0.71,0.89 -1.78,1.78 -3.38,2.49 -1.6,0.62 -3.73,1.15 -6.57,1.51 -2.75,0.36 -6.31,0.54 -10.66,0.54 -4.26,0 -7.73,-0.18 -10.48,-0.54 -2.84,-0.36 -5.06,-0.89 -6.66,-1.51 -1.69,-0.71 -2.84,-1.6 -3.46,-2.49 -0.62,-0.98 -0.89,-2.13 -0.89,-3.55l0 -234.32c0,-1.42 0.27,-2.58 0.8,-3.55 0.53,-0.89 1.51,-1.78 3.11,-2.58 1.6,-0.8 3.55,-1.33 6.04,-1.6 2.4,-0.27 5.68,-0.36 9.68,-0.36 3.82,0 7.02,0.09 9.51,0.36 2.58,0.27 4.53,0.8 5.95,1.6 1.33,0.8 2.4,1.69 3.02,2.58 0.53,0.97 0.89,2.13 0.89,3.55l0 34.11c6.39,-9.41 12.44,-17.05 18.03,-23 5.68,-5.86 11.01,-10.57 15.99,-13.95 5.06,-3.37 10.04,-5.68 14.92,-7.01 4.97,-1.33 9.95,-1.96 15.01,-1.96 2.22,0 4.8,0.09 7.64,0.36 2.84,0.27 5.86,0.8 8.97,1.42 3.11,0.71 5.95,1.51 8.44,2.4 2.49,0.89 4.26,1.69 5.33,2.58 1.06,0.89 1.77,1.69 2.04,2.49 0.35,0.8 0.71,1.78 0.98,2.93 0.27,1.24 0.44,3.02 0.53,5.33 0.09,2.4 0.09,5.51 0.09,9.5zm209.45 183.07c0,2.93 -0.09,5.51 -0.27,7.64 -0.18,2.22 -0.44,4 -0.89,5.51 -0.44,1.51 -0.98,2.75 -1.6,3.91 -0.62,1.15 -1.95,2.84 -4.17,4.97 -2.13,2.22 -5.86,4.88 -11.01,8.17 -5.24,3.2 -11.1,6.13 -17.59,8.62 -6.58,2.58 -13.59,4.62 -21.23,6.13 -7.64,1.6 -15.54,2.4 -23.71,2.4 -16.88,0 -31.8,-2.75 -44.77,-8.35 -13.06,-5.51 -23.98,-13.59 -32.69,-24.25 -8.79,-10.66 -15.46,-23.8 -20.07,-39.26 -4.62,-15.54 -6.93,-33.4 -6.93,-53.74 0,-23.01 2.84,-42.81 8.44,-59.42 5.69,-16.52 13.41,-30.11 23.19,-40.68 9.86,-10.57 21.41,-18.39 34.64,-23.54 13.32,-5.06 27.71,-7.64 43.17,-7.64 7.46,0 14.66,0.71 21.67,2.13 7.11,1.33 13.5,3.2 19.45,5.42 5.86,2.31 11.19,4.89 15.72,7.91 4.62,2.93 7.99,5.51 10.03,7.55 2.13,2.13 3.55,3.82 4.35,4.98 0.71,1.24 1.42,2.66 1.95,4.35 0.45,1.6 0.8,3.46 0.98,5.6 0.18,2.04 0.27,4.71 0.27,7.81 0,6.75 -0.8,11.46 -2.31,14.21 -1.6,2.66 -3.46,4 -5.77,4 -2.58,0 -5.6,-1.42 -8.97,-4.35 -3.38,-2.84 -7.64,-6.04 -12.88,-9.5 -5.24,-3.46 -11.55,-6.66 -18.92,-9.5 -7.37,-2.93 -16.08,-4.35 -26.11,-4.35 -20.69,0 -36.59,7.91 -47.61,23.81 -11.01,15.81 -16.52,38.81 -16.52,68.93 0,15.01 1.42,28.25 4.26,39.62 2.93,11.28 7.11,20.79 12.7,28.42 5.51,7.55 12.35,13.23 20.43,16.96 8.08,3.73 17.32,5.6 27.71,5.6 9.95,0 18.65,-1.6 26.11,-4.71 7.46,-3.11 13.86,-6.58 19.36,-10.39 5.51,-3.73 10.12,-7.11 13.86,-10.13 3.73,-3.11 6.57,-4.62 8.7,-4.62 1.15,0 2.22,0.35 3.11,1.06 0.89,0.71 1.6,1.87 2.22,3.46 0.62,1.69 1.06,3.73 1.33,6.31 0.27,2.49 0.36,5.51 0.36,8.97zm100.1 36.06c0,1.42 -0.35,2.57 -1.07,3.55 -0.71,0.89 -1.78,1.78 -3.38,2.49 -1.6,0.62 -3.73,1.15 -6.57,1.51 -2.75,0.36 -6.31,0.54 -10.66,0.54 -4.26,0 -7.73,-0.18 -10.48,-0.54 -2.84,-0.36 -5.06,-0.89 -6.66,-1.51 -1.69,-0.71 -2.84,-1.6 -3.46,-2.49 -0.62,-0.98 -0.89,-2.13 -0.89,-3.55l0 -234.32c0,-1.24 0.27,-2.4 0.89,-3.37 0.62,-1.06 1.77,-1.96 3.46,-2.66 1.6,-0.62 3.82,-1.15 6.66,-1.51 2.75,-0.35 6.22,-0.53 10.48,-0.53 4.35,0 7.91,0.18 10.66,0.53 2.84,0.36 4.97,0.89 6.57,1.51 1.6,0.71 2.66,1.6 3.38,2.66 0.71,0.98 1.07,2.13 1.07,3.37l0 234.32zm4.79 -313.28c0,10.13 -1.95,16.97 -5.77,20.61 -3.82,3.64 -10.84,5.51 -21.14,5.51 -10.13,0 -17.05,-1.78 -20.79,-5.33 -3.73,-3.55 -5.6,-10.3 -5.6,-20.25 0,-10.12 1.96,-16.97 5.77,-20.61 3.82,-3.64 10.84,-5.51 21.14,-5.51 10.13,0 17.05,1.78 20.78,5.33 3.73,3.55 5.6,10.3 5.6,20.25zm250.75 313.55c0,2.04 -0.71,3.64 -2.04,4.71 -1.42,1.07 -3.29,1.78 -5.77,2.31 -2.4,0.53 -5.95,0.8 -10.66,0.8 -4.44,0 -8.08,-0.27 -10.75,-0.8 -2.66,-0.53 -4.62,-1.24 -5.86,-2.31 -1.25,-1.06 -1.87,-2.57 -1.87,-4.71l0 -23.45c-10.22,10.93 -21.59,19.45 -34.2,25.49 -12.61,5.95 -25.94,8.97 -39.97,8.97 -12.35,0 -23.54,-1.6 -33.49,-4.8 -9.95,-3.2 -18.48,-7.91 -25.5,-13.95 -7.01,-6.04 -12.52,-13.59 -16.43,-22.38 -3.91,-8.88 -5.86,-18.92 -5.86,-30.2 0,-13.23 2.66,-24.69 8.08,-34.37 5.33,-9.77 13.06,-17.85 23.19,-24.25 10.04,-6.39 22.38,-11.28 36.95,-14.48 14.57,-3.2 31,-4.79 49.21,-4.79l32.33 0 0 -18.3c0,-8.97 -0.98,-16.96 -2.84,-23.98 -1.96,-6.93 -4.98,-12.7 -9.24,-17.32 -4.26,-4.62 -9.77,-8.08 -16.52,-10.39 -6.75,-2.4 -15.1,-3.56 -24.96,-3.56 -10.57,0 -20.07,1.25 -28.42,3.82 -8.44,2.58 -15.81,5.33 -22.12,8.44 -6.31,3.11 -11.64,5.86 -15.9,8.44 -4.17,2.57 -7.37,3.82 -9.41,3.82 -1.42,0 -2.66,-0.36 -3.64,-1.06 -1.07,-0.62 -1.95,-1.69 -2.75,-3.11 -0.8,-1.33 -1.33,-3.11 -1.69,-5.24 -0.35,-2.22 -0.53,-4.53 -0.53,-7.2 0,-4.26 0.27,-7.73 0.89,-10.21 0.62,-2.49 2.13,-4.88 4.44,-7.11 2.31,-2.22 6.39,-4.89 12.08,-7.99 5.68,-3.02 12.34,-5.86 19.81,-8.44 7.37,-2.49 15.54,-4.62 24.43,-6.31 8.79,-1.69 17.76,-2.49 26.73,-2.49 16.79,0 31.09,1.87 42.9,5.69 11.81,3.82 21.32,9.5 28.6,16.88 7.28,7.37 12.52,16.52 15.81,27.45 3.29,10.93 4.98,23.71 4.98,38.28l0 158.11zm-42.64 -107.3l-36.69 0c-11.72,0 -21.94,0.98 -30.64,3.02 -8.62,1.95 -15.81,4.97 -21.59,8.88 -5.69,3.91 -9.86,8.53 -12.61,14.03 -2.66,5.51 -4,11.81 -4,18.92 0,12.17 3.82,21.85 11.55,29.04 7.73,7.19 18.48,10.84 32.42,10.84 11.19,0 21.67,-2.84 31.26,-8.61 9.59,-5.69 19.72,-14.48 30.29,-26.29l0 -49.83zm164.68 107.03c0,1.42 -0.35,2.57 -1.07,3.55 -0.71,0.89 -1.78,1.78 -3.38,2.49 -1.6,0.62 -3.73,1.15 -6.57,1.51 -2.75,0.36 -6.31,0.54 -10.66,0.54 -4.26,0 -7.73,-0.18 -10.48,-0.54 -2.84,-0.36 -5.06,-0.89 -6.66,-1.51 -1.69,-0.71 -2.84,-1.6 -3.46,-2.49 -0.62,-0.98 -0.89,-2.13 -0.89,-3.55l0 -347.57c0,-1.42 0.27,-2.66 0.89,-3.64 0.62,-1.06 1.77,-1.95 3.46,-2.66 1.6,-0.62 3.82,-1.16 6.66,-1.51 2.76,-0.35 6.22,-0.53 10.48,-0.53 4.35,0 7.91,0.18 10.66,0.53 2.84,0.35 4.97,0.89 6.57,1.51 1.6,0.71 2.66,1.6 3.38,2.66 0.71,0.98 1.07,2.22 1.07,3.64l0 347.57z"/>
    <path class="fil3" d="M3745.73 2043.41c0,-9.5 1.33,-18.56 3.91,-27.18 2.66,-8.61 6.75,-16.96 12.26,-24.96 5.6,-8.08 12.79,-15.9 21.76,-23.45 8.88,-7.55 19.72,-15.19 32.33,-22.74 -6.93,-9.42 -12.88,-17.94 -17.76,-25.58 -4.98,-7.64 -9.06,-14.74 -12.26,-21.32 -3.2,-6.57 -5.51,-12.88 -6.93,-18.83 -1.33,-6.04 -2.04,-12.08 -2.04,-18.12 0,-10.74 1.78,-21.05 5.51,-30.82 3.64,-9.77 9.41,-18.47 17.5,-26.02 8.08,-7.55 18.48,-13.5 31.09,-17.94 12.7,-4.44 28.07,-6.66 46.1,-6.66 15.28,0 28.51,1.69 39.7,4.97 11.19,3.29 20.43,7.99 27.8,14.04 7.37,6.04 12.97,13.41 16.7,21.94 3.73,8.61 5.6,18.21 5.6,28.78 0,10.22 -1.69,19.63 -4.98,28.16 -3.29,8.44 -8.62,16.7 -15.9,24.69 -7.28,7.99 -16.61,15.9 -27.98,23.81 -11.37,7.9 -25.05,16.16 -41.21,24.87 5.86,7.11 12.35,14.57 19.28,22.21 6.93,7.73 14.12,15.54 21.67,23.36 7.55,7.81 15.28,15.45 23.19,23 7.9,7.55 15.63,14.83 23.27,21.76 3.46,-4.71 6.66,-10.04 9.41,-16.08 2.75,-5.95 5.15,-12.26 7.28,-18.92 2.04,-6.75 3.64,-13.5 4.71,-20.52 0.98,-6.93 1.51,-13.95 1.51,-21.05l0 -9.41c0,-1.69 0.35,-3.11 0.89,-4.26 0.62,-1.15 1.69,-2.04 3.02,-2.84 1.42,-0.8 3.46,-1.33 6.13,-1.69 2.66,-0.35 6.22,-0.53 10.57,-0.53 3.82,0 7.02,0.09 9.68,0.27 2.75,0.18 4.98,0.53 6.66,1.15 1.78,0.62 3.02,1.6 3.82,2.84 0.71,1.33 1.15,3.11 1.15,5.33l0 6.57c0,9.68 -0.8,19.28 -2.49,28.6 -1.69,9.41 -3.91,18.56 -6.75,27.44 -2.84,8.97 -6.4,17.5 -10.66,25.67 -4.26,8.17 -8.97,15.72 -14.21,22.65 7.82,6.13 14.66,11.28 20.43,15.45 5.86,4.09 10.75,7.46 14.83,10.04 4.09,2.58 7.46,4.35 10.13,5.42 2.75,0.98 4.89,1.51 6.66,1.51 1.78,0 3.38,-0.09 4.98,-0.27 1.51,-0.18 2.75,0.09 3.73,0.8 0.98,0.71 1.69,2.04 2.22,4.17 0.54,2.04 0.8,5.33 0.8,9.68 0,4.26 -0.09,7.82 -0.27,10.39 -0.18,2.58 -0.45,4.53 -0.89,5.86 -0.44,1.33 -1.24,2.4 -2.22,3.29 -1.06,0.89 -2.93,1.6 -5.77,2.31 -2.75,0.71 -6.39,1.07 -10.93,1.07 -3.46,0 -7.28,-0.63 -11.46,-1.78 -4.09,-1.24 -8.97,-3.37 -14.57,-6.39 -5.51,-3.02 -11.99,-7.11 -19.36,-12.26 -7.37,-5.15 -15.99,-11.72 -25.85,-19.63 -7.28,5.86 -15.01,11.37 -23.09,16.43 -8.08,4.98 -16.61,9.33 -25.76,12.88 -9.06,3.55 -18.65,6.3 -28.6,8.26 -9.95,2.04 -20.78,3.02 -32.42,3.02 -10.93,0 -21.32,-0.98 -31.09,-2.84 -9.77,-1.95 -18.83,-4.71 -27.18,-8.26 -8.35,-3.55 -15.81,-7.99 -22.38,-13.32 -6.57,-5.42 -12.17,-11.55 -16.79,-18.39 -4.62,-6.84 -8.17,-14.57 -10.66,-23.01 -2.49,-8.53 -3.82,-17.76 -3.82,-27.62zm76.83 -185.73c0,4.71 0.62,9.51 1.96,14.39 1.24,4.89 3.29,9.95 5.95,15.28 2.66,5.24 5.95,10.93 9.86,17.05 3.91,6.04 8.62,12.88 13.94,20.34 12.7,-7.1 23.27,-13.68 31.89,-19.72 8.62,-5.95 15.46,-11.72 20.7,-17.32 5.15,-5.6 8.97,-11.1 11.28,-16.7 2.4,-5.51 3.56,-11.46 3.56,-17.67 0,-5.06 -0.89,-9.95 -2.75,-14.48 -1.78,-4.62 -4.71,-8.71 -8.71,-12.26 -4,-3.55 -9.06,-6.39 -15.1,-8.53 -6.04,-2.04 -13.32,-3.11 -21.85,-3.11 -9.24,0 -16.97,1.16 -23.27,3.55 -6.39,2.31 -11.55,5.42 -15.63,9.33 -4.09,3.91 -7.11,8.53 -8.97,13.68 -1.95,5.24 -2.84,10.66 -2.84,16.17zm-30.2 181.38c0,9.06 1.51,17.32 4.53,24.78 3.02,7.46 7.55,13.94 13.41,19.45 5.86,5.42 13.24,9.68 22.12,12.79 8.88,3.02 19.1,4.53 30.73,4.53 7.11,0 14.04,-0.71 20.78,-2.22 6.75,-1.51 13.24,-3.46 19.36,-6.04 6.22,-2.49 12.08,-5.6 17.59,-9.15 5.6,-3.55 10.66,-7.37 15.37,-11.37 -9.06,-7.82 -18.03,-15.99 -26.91,-24.34 -8.97,-8.44 -17.59,-16.88 -25.94,-25.4 -8.35,-8.53 -16.34,-16.97 -24.07,-25.4 -7.73,-8.44 -14.75,-16.61 -21.23,-24.61 -8.62,5.6 -15.9,11.1 -21.67,16.61 -5.86,5.42 -10.48,10.93 -14.04,16.34 -3.55,5.51 -6.13,11.01 -7.73,16.61 -1.51,5.51 -2.31,11.37 -2.31,17.41zm678.7 86.25c0,1.42 -0.27,2.58 -0.8,3.64 -0.53,1.06 -1.6,1.96 -3.38,2.66 -1.69,0.62 -4.17,1.15 -7.28,1.51 -3.11,0.36 -7.28,0.54 -12.43,0.54 -4.53,0 -8.26,-0.18 -11.1,-0.54 -2.84,-0.36 -5.15,-0.89 -6.93,-1.69 -1.69,-0.8 -3.02,-1.87 -4,-3.29 -0.98,-1.33 -1.78,-3.11 -2.49,-5.15l-30.91 -79.5c-3.64,-9.06 -7.46,-17.32 -11.37,-24.87 -3.91,-7.55 -8.53,-14.04 -13.94,-19.54 -5.33,-5.51 -11.72,-9.68 -19.01,-12.79 -7.29,-3.02 -16.08,-4.53 -26.29,-4.53l-29.93 0 0 143.54c0,1.42 -0.36,2.58 -1.15,3.64 -0.8,1.06 -2.04,1.87 -3.64,2.49 -1.69,0.62 -3.91,1.15 -6.75,1.6 -2.93,0.44 -6.49,0.62 -10.84,0.62 -4.35,0 -7.91,-0.18 -10.84,-0.62 -2.84,-0.44 -5.15,-0.98 -6.84,-1.6 -1.78,-0.62 -2.93,-1.42 -3.64,-2.49 -0.71,-0.98 -1.06,-2.22 -1.06,-3.64l0 -311.86c0,-6.75 1.78,-11.46 5.33,-14.21 3.55,-2.66 7.37,-4 11.37,-4l71.59 0c8.53,0 15.55,0.18 21.23,0.62 5.6,0.44 10.66,0.98 15.19,1.42 13.06,2.31 24.52,5.86 34.56,10.66 9.95,4.89 18.3,11.02 25.05,18.48 6.84,7.46 11.9,15.99 15.28,25.67 3.38,9.59 5.06,20.25 5.06,31.89 0,11.19 -1.51,21.32 -4.53,30.29 -3.11,8.88 -7.46,16.79 -13.15,23.63 -5.77,6.84 -12.61,12.79 -20.61,17.85 -7.99,4.98 -16.88,9.24 -26.82,12.7 5.6,2.49 10.57,5.51 15.1,9.24 4.53,3.73 8.7,8.26 12.61,13.41 3.91,5.24 7.64,11.28 11.1,18.03 3.46,6.75 6.93,14.39 10.39,22.92l30.2 74.26c2.4,6.22 4,10.66 4.62,13.15 0.71,2.48 1.06,4.44 1.06,5.86zm-67.42 -236.81c0,-13.15 -2.93,-24.34 -8.88,-33.49 -5.86,-9.06 -15.72,-15.63 -29.67,-19.63 -4.35,-1.24 -9.24,-2.04 -14.66,-2.58 -5.51,-0.53 -12.61,-0.8 -21.5,-0.8l-37.75 0 0 113.52 43.7 0c11.81,0 22.03,-1.42 30.64,-4.26 8.53,-2.93 15.72,-6.93 21.41,-11.99 5.77,-5.15 9.95,-11.19 12.7,-18.12 2.66,-6.93 4,-14.48 4,-22.65zm317.28 109.7c0,6.75 -1.69,11.55 -5.06,14.48 -3.38,2.84 -7.29,4.26 -11.64,4.26l-153.84 0c0,13.06 1.33,24.78 3.91,35.18 2.57,10.48 6.93,19.45 13.06,26.91 6.04,7.46 13.94,13.15 23.63,17.14 9.77,4 21.67,6.04 35.71,6.04 11.1,0 21.05,-0.89 29.67,-2.75 8.7,-1.78 16.26,-3.82 22.56,-6.04 6.31,-2.22 11.55,-4.26 15.63,-6.04 4.08,-1.87 7.11,-2.75 9.24,-2.75 1.25,0 2.31,0.27 3.29,0.89 0.89,0.62 1.69,1.51 2.13,2.75 0.53,1.16 0.98,2.84 1.25,4.98 0.27,2.22 0.35,4.8 0.35,7.91 0,2.22 -0.09,4.17 -0.27,5.86 -0.18,1.6 -0.36,3.11 -0.62,4.35 -0.27,1.33 -0.71,2.49 -1.33,3.55 -0.62,0.98 -1.33,1.95 -2.31,2.93 -0.98,0.98 -3.82,2.49 -8.44,4.62 -4.71,2.22 -10.75,4.26 -18.21,6.39 -7.46,2.04 -16.08,3.91 -25.85,5.51 -9.77,1.69 -20.16,2.49 -31.27,2.49 -19.27,0 -36.06,-2.66 -50.54,-8.08 -14.48,-5.33 -26.65,-13.32 -36.51,-23.89 -9.86,-10.66 -17.32,-23.89 -22.3,-39.88 -5.06,-15.9 -7.55,-34.46 -7.55,-55.69 0,-20.07 2.57,-38.19 7.81,-54.27 5.15,-15.99 12.7,-29.67 22.47,-40.86 9.77,-11.19 21.67,-19.72 35.53,-25.76 13.86,-5.95 29.4,-8.97 46.55,-8.97 18.39,0 34.02,2.93 46.9,8.88 12.97,5.86 23.54,13.86 31.89,23.81 8.26,9.95 14.39,21.67 18.3,35.17 3.91,13.41 5.86,27.8 5.86,43.08l0 7.82zm-43.17 -12.7c0.53,-22.56 -4.44,-40.33 -15.01,-53.2 -10.57,-12.88 -26.12,-19.28 -46.81,-19.28 -10.66,0 -19.99,1.96 -27.98,5.95 -7.99,4 -14.66,9.33 -20.07,15.99 -5.42,6.57 -9.59,14.3 -12.53,23 -2.93,8.79 -4.62,17.94 -4.97,27.54l127.37 0zm256.08 76.12c0,11.99 -2.22,22.65 -6.66,32.06 -4.44,9.33 -10.66,17.23 -18.83,23.63 -8.17,6.39 -17.86,11.28 -29.14,14.57 -11.28,3.29 -23.71,4.98 -37.21,4.98 -8.35,0 -16.26,-0.62 -23.81,-1.95 -7.55,-1.24 -14.3,-2.84 -20.34,-4.89 -5.95,-1.95 -11.01,-4 -15.19,-6.13 -4.18,-2.13 -7.2,-4.09 -9.06,-5.77 -1.95,-1.69 -3.38,-4.17 -4.17,-7.28 -0.89,-3.11 -1.33,-7.37 -1.33,-12.79 0,-3.29 0.18,-6.04 0.53,-8.26 0.35,-2.31 0.8,-4.09 1.24,-5.51 0.53,-1.42 1.33,-2.4 2.22,-3.02 0.98,-0.62 2.04,-0.89 3.29,-0.89 1.87,0 4.71,1.15 8.44,3.55 3.73,2.31 8.35,4.89 13.77,7.64 5.42,2.75 11.9,5.33 19.36,7.64 7.46,2.4 15.99,3.56 25.67,3.56 7.28,0 13.86,-0.8 19.72,-2.4 5.95,-1.51 11.01,-3.82 15.37,-6.93 4.35,-3.02 7.64,-6.93 10.04,-11.64 2.31,-4.71 3.46,-10.3 3.46,-16.79 0,-6.57 -1.69,-12.17 -5.06,-16.61 -3.38,-4.53 -7.82,-8.53 -13.32,-11.99 -5.6,-3.46 -11.81,-6.57 -18.74,-9.24 -6.93,-2.66 -14.04,-5.51 -21.41,-8.44 -7.28,-3.02 -14.48,-6.31 -21.49,-10.04 -7.02,-3.73 -13.24,-8.26 -18.83,-13.68 -5.51,-5.42 -9.95,-11.81 -13.32,-19.28 -3.38,-7.46 -5.06,-16.34 -5.06,-26.82 0,-9.15 1.77,-17.94 5.33,-26.38 3.55,-8.44 8.88,-15.81 15.99,-22.12 7.2,-6.31 16.08,-11.46 26.74,-15.28 10.66,-3.82 23.09,-5.69 37.39,-5.69 6.22,0 12.44,0.53 18.74,1.6 6.22,1.06 11.81,2.49 16.88,4.09 5.06,1.6 9.33,3.37 12.88,5.24 3.55,1.95 6.31,3.55 8.08,5.06 1.87,1.42 3.02,2.66 3.64,3.64 0.62,1.06 1.06,2.22 1.33,3.55 0.27,1.25 0.53,2.84 0.8,4.71 0.27,1.95 0.36,4.26 0.36,7.02 0,2.93 -0.09,5.51 -0.36,7.64 -0.27,2.13 -0.71,3.91 -1.33,5.24 -0.62,1.42 -1.33,2.4 -2.22,3.02 -0.89,0.62 -1.87,0.89 -2.84,0.89 -1.6,0 -3.82,-0.98 -6.84,-2.93 -2.93,-1.86 -6.75,-3.91 -11.46,-6.13 -4.71,-2.22 -10.21,-4.26 -16.52,-6.13 -6.31,-1.96 -13.59,-2.93 -21.76,-2.93 -7.28,0 -13.77,0.8 -19.27,2.49 -5.6,1.6 -10.13,3.91 -13.68,6.93 -3.55,3.02 -6.31,6.57 -8.08,10.75 -1.86,4.09 -2.75,8.61 -2.75,13.41 0,6.75 1.78,12.44 5.24,17.05 3.46,4.62 7.91,8.62 13.5,12.08 5.51,3.47 11.9,6.58 19.01,9.42 7.11,2.75 14.3,5.6 21.67,8.53 7.37,3.02 14.66,6.31 21.85,9.95 7.2,3.64 13.59,8.08 19.1,13.24 5.6,5.24 10.04,11.46 13.41,18.74 3.38,7.28 5.06,15.99 5.06,26.02zm104.54 63.95c0,1.42 -0.36,2.57 -1.07,3.55 -0.71,0.89 -1.77,1.78 -3.37,2.49 -1.6,0.62 -3.73,1.15 -6.57,1.51 -2.75,0.36 -6.31,0.54 -10.66,0.54 -4.26,0 -7.73,-0.18 -10.48,-0.54 -2.84,-0.36 -5.06,-0.89 -6.66,-1.51 -1.69,-0.71 -2.84,-1.6 -3.46,-2.49 -0.62,-0.98 -0.89,-2.13 -0.89,-3.55l0 -234.32c0,-1.24 0.27,-2.4 0.89,-3.37 0.62,-1.06 1.78,-1.96 3.46,-2.66 1.6,-0.62 3.82,-1.15 6.66,-1.51 2.75,-0.35 6.22,-0.53 10.48,-0.53 4.35,0 7.91,0.18 10.66,0.53 2.84,0.36 4.97,0.89 6.57,1.51 1.6,0.71 2.66,1.6 3.37,2.66 0.71,0.98 1.07,2.13 1.07,3.37l0 234.32zm4.79 -313.28c0,10.13 -1.95,16.97 -5.77,20.61 -3.82,3.64 -10.84,5.51 -21.14,5.51 -10.13,0 -17.05,-1.78 -20.79,-5.33 -3.73,-3.55 -5.6,-10.3 -5.6,-20.25 0,-10.12 1.95,-16.97 5.77,-20.61 3.82,-3.64 10.84,-5.51 21.14,-5.51 10.13,0 17.05,1.78 20.78,5.33 3.73,3.55 5.6,10.3 5.6,20.25zm274.73 313.28c0,1.42 -0.27,2.57 -0.89,3.64 -0.62,1.06 -1.69,1.87 -3.11,2.49 -1.51,0.62 -3.46,1.06 -5.86,1.42 -2.49,0.36 -5.42,0.54 -8.88,0.54 -3.64,0 -6.66,-0.18 -9.06,-0.54 -2.49,-0.36 -4.44,-0.8 -6.04,-1.42 -1.51,-0.62 -2.66,-1.42 -3.38,-2.49 -0.62,-1.06 -0.98,-2.31 -0.98,-3.64l0 -31.18c-12.34,13.41 -25.14,23.8 -38.37,31.27 -13.32,7.46 -27.8,11.19 -43.61,11.19 -17.14,0 -31.8,-3.38 -43.88,-10.04 -12.17,-6.66 -22.03,-15.72 -29.58,-27.09 -7.46,-11.37 -12.97,-24.69 -16.43,-40.06 -3.46,-15.37 -5.24,-31.53 -5.24,-48.5 0,-20.16 2.13,-38.37 6.48,-54.54 4.35,-16.25 10.75,-30.11 19.27,-41.57 8.44,-11.46 19.01,-20.25 31.62,-26.38 12.53,-6.13 27,-9.24 43.53,-9.24 13.68,0 26.2,3.02 37.57,8.97 11.37,6.04 22.56,14.83 33.66,26.47l0 -135.81c0,-1.24 0.27,-2.4 0.89,-3.55 0.62,-1.16 1.78,-1.95 3.55,-2.58 1.69,-0.62 3.91,-1.15 6.57,-1.6 2.75,-0.44 6.13,-0.62 10.31,-0.62 4.35,0 7.9,0.18 10.66,0.62 2.75,0.45 4.97,0.98 6.48,1.6 1.6,0.62 2.75,1.42 3.55,2.58 0.8,1.15 1.16,2.31 1.16,3.55l0 346.5zm-43.17 -164.95c-11.55,-14.48 -22.74,-25.49 -33.58,-33.04 -10.84,-7.55 -22.12,-11.37 -33.84,-11.37 -10.93,0 -20.16,2.58 -27.8,7.82 -7.64,5.24 -13.77,12.08 -18.56,20.61 -4.71,8.44 -8.17,18.12 -10.31,28.87 -2.22,10.75 -3.29,21.67 -3.29,32.78 0,11.81 0.89,23.36 2.75,34.64 1.78,11.28 4.97,21.32 9.41,30.11 4.53,8.79 10.48,15.81 17.94,21.14 7.37,5.24 16.79,7.91 27.98,7.91 5.68,0 11.19,-0.8 16.52,-2.31 5.24,-1.6 10.66,-4.18 16.17,-7.82 5.51,-3.64 11.37,-8.35 17.41,-14.21 6.04,-5.77 12.44,-12.88 19.19,-21.41l0 -93.71zm322.08 37.57c0,6.75 -1.69,11.55 -5.06,14.48 -3.38,2.84 -7.28,4.26 -11.64,4.26l-153.84 0c0,13.06 1.33,24.78 3.91,35.18 2.58,10.48 6.93,19.45 13.06,26.91 6.04,7.46 13.94,13.15 23.63,17.14 9.77,4 21.67,6.04 35.71,6.04 11.1,0 21.05,-0.89 29.67,-2.75 8.7,-1.78 16.26,-3.82 22.56,-6.04 6.31,-2.22 11.55,-4.26 15.64,-6.04 4.08,-1.87 7.1,-2.75 9.24,-2.75 1.24,0 2.31,0.27 3.29,0.89 0.89,0.62 1.69,1.51 2.13,2.75 0.53,1.16 0.98,2.84 1.24,4.98 0.27,2.22 0.36,4.8 0.36,7.91 0,2.22 -0.09,4.17 -0.27,5.86 -0.18,1.6 -0.36,3.11 -0.63,4.35 -0.27,1.33 -0.71,2.49 -1.33,3.55 -0.62,0.98 -1.33,1.95 -2.31,2.93 -0.98,0.98 -3.82,2.49 -8.44,4.62 -4.71,2.22 -10.75,4.26 -18.21,6.39 -7.46,2.04 -16.08,3.91 -25.85,5.51 -9.77,1.69 -20.16,2.49 -31.27,2.49 -19.27,0 -36.06,-2.66 -50.54,-8.08 -14.48,-5.33 -26.65,-13.32 -36.51,-23.89 -9.86,-10.66 -17.32,-23.89 -22.29,-39.88 -5.06,-15.9 -7.55,-34.46 -7.55,-55.69 0,-20.07 2.57,-38.19 7.81,-54.27 5.15,-15.99 12.7,-29.67 22.47,-40.86 9.77,-11.19 21.67,-19.72 35.53,-25.76 13.86,-5.95 29.4,-8.97 46.55,-8.97 18.39,0 34.02,2.93 46.9,8.88 12.97,5.86 23.54,13.86 31.89,23.81 8.26,9.95 14.39,21.67 18.3,35.17 3.91,13.41 5.86,27.8 5.86,43.08l0 7.82zm-43.17 -12.7c0.53,-22.56 -4.44,-40.33 -15.01,-53.2 -10.57,-12.88 -26.12,-19.28 -46.81,-19.28 -10.66,0 -19.99,1.96 -27.98,5.95 -7.99,4 -14.66,9.33 -20.07,15.99 -5.42,6.57 -9.59,14.3 -12.53,23 -2.93,8.79 -4.62,17.94 -4.97,27.54l127.37 0zm310.44 140.08c0,1.42 -0.35,2.57 -1.06,3.55 -0.71,0.89 -1.78,1.78 -3.38,2.49 -1.6,0.62 -3.73,1.15 -6.57,1.51 -2.75,0.36 -6.22,0.54 -10.39,0.54 -4.44,0 -7.99,-0.18 -10.75,-0.54 -2.84,-0.36 -4.98,-0.89 -6.57,-1.51 -1.6,-0.71 -2.66,-1.6 -3.38,-2.49 -0.71,-0.98 -1.06,-2.13 -1.06,-3.55l0 -137.23c0,-13.32 -1.07,-24.16 -3.11,-32.24 -2.04,-8.17 -5.06,-15.19 -9.06,-21.14 -4,-5.86 -9.06,-10.39 -15.37,-13.5 -6.3,-3.11 -13.59,-4.71 -21.85,-4.71 -10.75,0 -21.41,3.82 -32.06,11.46 -10.75,7.64 -21.94,18.83 -33.66,33.58l0 163.79c0,1.42 -0.35,2.57 -1.07,3.55 -0.71,0.89 -1.78,1.78 -3.38,2.49 -1.6,0.62 -3.73,1.15 -6.57,1.51 -2.75,0.36 -6.31,0.54 -10.66,0.54 -4.26,0 -7.73,-0.18 -10.48,-0.54 -2.84,-0.36 -5.06,-0.89 -6.66,-1.51 -1.69,-0.71 -2.84,-1.6 -3.46,-2.49 -0.62,-0.98 -0.89,-2.13 -0.89,-3.55l0 -234.32c0,-1.42 0.27,-2.58 0.8,-3.55 0.53,-0.89 1.51,-1.78 3.11,-2.58 1.6,-0.8 3.55,-1.33 6.04,-1.6 2.4,-0.27 5.68,-0.36 9.68,-0.36 3.82,0 7.02,0.09 9.51,0.36 2.58,0.27 4.53,0.8 5.95,1.6 1.33,0.8 2.4,1.69 3.02,2.58 0.53,0.97 0.89,2.13 0.89,3.55l0 31c13.15,-14.83 26.2,-25.67 39.35,-32.51 13.06,-6.84 26.2,-10.31 39.53,-10.31 15.54,0 28.69,2.66 39.35,7.91 10.66,5.33 19.28,12.44 25.85,21.23 6.57,8.88 11.28,19.28 14.12,31.18 2.84,11.9 4.26,26.2 4.26,42.81l0 143.01zm277.57 -240.8c5.15,0 8.7,1.15 10.66,3.55 1.86,2.31 2.84,5.68 2.84,10.22l0 227.03c0,1.42 -0.35,2.57 -1.07,3.55 -0.71,0.89 -1.86,1.78 -3.46,2.49 -1.69,0.62 -3.91,1.15 -6.66,1.51 -2.76,0.36 -6.13,0.54 -10.13,0.54 -4.35,0 -7.91,-0.18 -10.66,-0.54 -2.75,-0.36 -4.97,-0.89 -6.66,-1.51 -1.6,-0.71 -2.75,-1.6 -3.46,-2.49 -0.71,-0.98 -1.07,-2.13 -1.07,-3.55l0 -205.09 -120.98 0 0 130.3c0,16.08 2.4,28.25 7.2,36.42 4.71,8.26 13.32,12.35 25.58,12.35 4,0 7.55,-0.36 10.75,-1.15 3.11,-0.8 5.86,-1.6 8.26,-2.49 2.49,-0.89 4.53,-1.69 6.31,-2.49 1.69,-0.8 3.29,-1.15 4.71,-1.15 0.8,0 1.69,0.18 2.4,0.62 0.8,0.44 1.42,1.24 1.87,2.49 0.44,1.24 0.8,2.84 1.16,4.98 0.36,2.04 0.53,4.71 0.53,7.81 0,5.06 -0.36,8.97 -1.07,11.81 -0.71,2.93 -1.69,5.06 -3.11,6.57 -1.42,1.51 -3.46,2.84 -6.22,4 -2.84,1.24 -6.04,2.22 -9.59,3.02 -3.55,0.8 -7.28,1.42 -11.28,1.95 -4,0.53 -8.08,0.8 -12.08,0.8 -12.17,0 -22.56,-1.6 -31.27,-4.8 -8.7,-3.2 -15.81,-8.08 -21.4,-14.57 -5.51,-6.49 -9.59,-14.75 -12.08,-24.69 -2.58,-9.95 -3.82,-21.67 -3.82,-35.18l0 -136.61 -32.96 0c-2.58,0 -4.71,-1.42 -6.31,-4.18 -1.51,-2.75 -2.31,-7.28 -2.31,-13.59 0,-3.29 0.18,-6.04 0.62,-8.26 0.44,-2.31 1.07,-4.17 1.69,-5.68 0.71,-1.42 1.69,-2.49 2.75,-3.11 1.15,-0.62 2.4,-0.89 3.82,-0.89l32.69 0 0 -55.6c0,-1.24 0.27,-2.4 0.89,-3.38 0.62,-1.07 1.78,-1.95 3.46,-2.75 1.6,-0.8 3.82,-1.33 6.66,-1.69 2.75,-0.35 6.22,-0.53 10.48,-0.53 4.35,0 7.9,0.18 10.66,0.53 2.84,0.36 4.97,0.89 6.57,1.69 1.6,0.8 2.66,1.69 3.38,2.75 0.71,0.98 1.06,2.13 1.06,3.38l0 55.6 150.65 0zm18.3 -72.48c0,10.13 -1.95,16.97 -5.77,20.61 -3.82,3.64 -10.83,5.51 -21.14,5.51 -10.13,0 -17.05,-1.78 -20.79,-5.33 -3.73,-3.55 -5.6,-10.3 -5.6,-20.25 0,-10.12 1.95,-16.97 5.78,-20.61 3.82,-3.64 10.83,-5.51 21.14,-5.51 10.13,0 17.05,1.78 20.78,5.33 3.73,3.55 5.6,10.3 5.6,20.25zm251.11 313.55c0,2.04 -0.71,3.64 -2.04,4.71 -1.42,1.07 -3.29,1.78 -5.77,2.31 -2.4,0.53 -5.95,0.8 -10.66,0.8 -4.44,0 -8.08,-0.27 -10.75,-0.8 -2.66,-0.53 -4.62,-1.24 -5.86,-2.31 -1.24,-1.06 -1.87,-2.57 -1.87,-4.71l0 -23.45c-10.21,10.93 -21.59,19.45 -34.2,25.49 -12.61,5.95 -25.94,8.97 -39.97,8.97 -12.35,0 -23.54,-1.6 -33.49,-4.8 -9.95,-3.2 -18.48,-7.91 -25.5,-13.95 -7.01,-6.04 -12.52,-13.59 -16.43,-22.38 -3.91,-8.88 -5.86,-18.92 -5.86,-30.2 0,-13.23 2.66,-24.69 8.08,-34.37 5.33,-9.77 13.06,-17.85 23.19,-24.25 10.04,-6.39 22.38,-11.28 36.95,-14.48 14.57,-3.2 31,-4.79 49.21,-4.79l32.33 0 0 -18.3c0,-8.97 -0.98,-16.96 -2.84,-23.98 -1.96,-6.93 -4.98,-12.7 -9.24,-17.32 -4.26,-4.62 -9.77,-8.08 -16.52,-10.39 -6.75,-2.4 -15.1,-3.56 -24.96,-3.56 -10.57,0 -20.07,1.25 -28.42,3.82 -8.44,2.58 -15.81,5.33 -22.12,8.44 -6.31,3.11 -11.64,5.86 -15.9,8.44 -4.17,2.57 -7.37,3.82 -9.41,3.82 -1.42,0 -2.66,-0.36 -3.64,-1.06 -1.07,-0.62 -1.95,-1.69 -2.75,-3.11 -0.8,-1.33 -1.33,-3.11 -1.69,-5.24 -0.35,-2.22 -0.53,-4.53 -0.53,-7.2 0,-4.26 0.27,-7.73 0.89,-10.21 0.62,-2.49 2.13,-4.88 4.44,-7.11 2.31,-2.22 6.39,-4.89 12.08,-7.99 5.68,-3.02 12.34,-5.86 19.81,-8.44 7.37,-2.49 15.54,-4.62 24.43,-6.31 8.79,-1.69 17.76,-2.49 26.73,-2.49 16.79,0 31.09,1.87 42.9,5.69 11.81,3.82 21.32,9.5 28.6,16.88 7.28,7.37 12.52,16.52 15.81,27.45 3.29,10.93 4.98,23.71 4.98,38.28l0 158.11zm-42.64 -107.3l-36.69 0c-11.72,0 -21.94,0.98 -30.64,3.02 -8.62,1.95 -15.81,4.97 -21.59,8.88 -5.69,3.91 -9.86,8.53 -12.61,14.03 -2.66,5.51 -4,11.81 -4,18.92 0,12.17 3.82,21.85 11.55,29.04 7.73,7.19 18.48,10.84 32.42,10.84 11.19,0 21.67,-2.84 31.26,-8.61 9.59,-5.69 19.72,-14.48 30.29,-26.29l0 -49.83z"/>
    <path class="fil3" d="M6533.12 2125.58c0,1.42 -0.35,2.57 -1.07,3.55 -0.71,0.89 -1.78,1.78 -3.38,2.49 -1.6,0.62 -3.73,1.15 -6.57,1.51 -2.75,0.36 -6.31,0.54 -10.66,0.54 -4.26,0 -7.73,-0.18 -10.48,-0.54 -2.84,-0.36 -5.06,-0.89 -6.66,-1.51 -1.69,-0.71 -2.84,-1.6 -3.46,-2.49 -0.62,-0.98 -0.89,-2.13 -0.89,-3.55l0 -347.57c0,-1.42 0.27,-2.66 0.89,-3.64 0.62,-1.06 1.77,-1.95 3.46,-2.66 1.6,-0.62 3.82,-1.16 6.66,-1.51 2.76,-0.35 6.22,-0.53 10.48,-0.53 4.35,0 7.91,0.18 10.66,0.53 2.84,0.35 4.97,0.89 6.57,1.51 1.6,0.71 2.66,1.6 3.38,2.66 0.71,0.98 1.07,2.22 1.07,3.64l0 347.57z"/>
   </g>
  </g>
 </g>
</svg>
