<?xml version="1.0" encoding="UTF-8"?>
<!DOCTYPE svg PUBLIC "-//W3C//DTD SVG 1.1//EN" "http://www.w3.org/Graphics/SVG/1.1/DTD/svg11.dtd">
<!-- Creator: CorelDRAW -->
<svg xmlns="http://www.w3.org/2000/svg" xml:space="preserve" width="2.42159in" height="1.08804in" version="1.1" style="shape-rendering:geometricPrecision; text-rendering:geometricPrecision; image-rendering:optimizeQuality; fill-rule:evenodd; clip-rule:evenodd"
viewBox="0 0 687.88 309.07"
 xmlns:xlink="http://www.w3.org/1999/xlink"
 xmlns:xodm="http://www.corel.com/coreldraw/odm/2003">
 <defs>
  <style type="text/css">
   <![CDATA[
    .fil2 {fill:#201E1E}
    .fil1 {fill:#005BB5}
    .fil0 {fill:white}
    .fil4 {fill:white}
    .fil3 {fill:#FFFB00;fill-rule:nonzero}
   ]]>
  </style>
 </defs>
 <g id="Capa_x0020_1">
  <metadata id="CorelCorpID_0Corel-Layer"/>
  <g id="_1658574361184">
   <path class="fil0" d="M611.53 268.83c-22.9,8.95 -47.08,15.57 -71.04,20.82 -30.39,6.65 -61.36,11.21 -92.3,14.3 -35.05,3.5 -70.34,5.12 -105.56,5.12 -32.56,0 -65.16,-1.38 -97.59,-4.36 -29.04,-2.66 -58.08,-6.59 -86.7,-12.24 -24.23,-4.79 -48.51,-10.84 -71.85,-18.94 -4.25,-1.48 -8.53,-3.04 -12.8,-4.7l-68.3 0c-2.97,0 -5.4,-2.42 -5.4,-5.4l0 -218.43c0,-2.97 2.42,-5.4 5.4,-5.4l69.94 0c3.72,-1.43 7.45,-2.78 11.16,-4.07 23.34,-8.1 47.62,-14.16 71.85,-18.94 28.62,-5.65 57.65,-9.58 86.7,-12.24 32.43,-2.97 65.03,-4.36 97.59,-4.36 35.22,0 70.51,1.62 105.56,5.12 30.94,3.09 61.91,7.65 92.3,14.31 23.39,5.12 47,11.56 69.41,20.18l72.58 0c2.97,0 5.4,2.42 5.4,5.4l0 218.43c0,2.97 -2.42,5.4 -5.4,5.4l-70.95 0zm-413.81 0c11.82,2.44 23.7,4.47 35.5,6.18 36.04,5.23 72.7,7.55 109.11,7.55 36.41,0 73.06,-2.32 109.1,-7.55 11.8,-1.71 23.68,-3.74 35.5,-6.18l-289.22 0zm286.1 -229.22c-10.79,-2.16 -21.62,-3.99 -32.39,-5.55 -36.04,-5.23 -72.7,-7.55 -109.1,-7.55 -36.41,0 -73.06,2.32 -109.11,7.55 -10.76,1.56 -21.59,3.39 -32.38,5.55l282.98 0z"/>
   <g>
    <path class="fil1" d="M661.83 163.03l0 0 0 72c-47.67,40.05 -172.59,68.64 -319.2,68.64 -134.96,0 -251.54,-24.22 -306.4,-59.32l0 -81.32 35.96 0c-7.89,8.91 -12.14,18.35 -12.14,28.14 0,53.45 126.38,96.78 282.29,96.78 155.9,0 282.29,-43.33 282.29,-96.78 0,-9.79 -4.26,-19.24 -12.14,-28.14l49.35 0z"/>
    <path class="fil1" d="M661.83 146.04l0 -0 0 -72c-47.67,-40.06 -172.59,-68.64 -319.2,-68.64 -134.96,0 -251.54,24.22 -306.4,59.32l0 81.33 35.96 0c-7.89,-8.91 -12.14,-18.36 -12.14,-28.15 0,-53.45 126.38,-96.78 282.29,-96.78 155.9,0 282.29,43.33 282.29,96.78 0,9.79 -4.26,19.24 -12.14,28.15l49.35 0z"/>
    <g>
     <polygon class="fil1" points="5.4,45 682.48,45 682.48,263.43 5.4,263.43 "/>
     <path class="fil2" d="M51.37 117.74l42.89 0c1.43,0 2.66,0.81 3.22,2.13 0.56,1.32 0.3,2.76 -0.69,3.8l-12.1 12.66c-0.69,0.72 -1.54,1.08 -2.53,1.08l-50.61 0c-1.93,0 -3.5,-1.57 -3.5,-3.5l0 -56.51c0,-1.26 0.61,-2.35 1.69,-3l16.32 -9.86c1.11,-0.67 2.4,-0.69 3.53,-0.05 1.13,0.64 1.78,1.75 1.78,3.05l0 50.21zm117.68 3.46l-25.91 0 0 12.8c0,1.27 -0.62,2.36 -1.72,3.01l-16.32 9.69c-1.11,0.66 -2.4,0.67 -3.52,0.03 -1.12,-0.64 -1.77,-1.75 -1.77,-3.04l0 -53.72c0,-0.95 0.33,-1.76 0.99,-2.44l12.29 -12.66c0.69,-0.71 1.53,-1.06 2.51,-1.06l40.99 0c0.98,0 1.83,0.36 2.51,1.06l12.29 12.66c0.66,0.68 0.99,1.49 0.99,2.44l0 43.93c0,1.93 -1.57,3.5 -3.5,3.5l-16.32 0c-1.93,0 -3.5,-1.57 -3.5,-3.5l0 -12.71zm90.98 -27.72l0 40.43c0,1.27 -0.62,2.35 -1.7,3l-16.32 9.78c-1.11,0.67 -2.4,0.68 -3.53,0.04 -1.13,-0.64 -1.78,-1.75 -1.78,-3.05l0 -50.21 -12.54 0c-1,0 -1.86,-0.37 -2.54,-1.09l-12.01 -12.66c-0.98,-1.04 -1.24,-2.48 -0.68,-3.79 0.56,-1.32 1.79,-2.12 3.22,-2.12l72.43 0c1.43,0 2.65,0.8 3.22,2.12 0.56,1.32 0.31,2.76 -0.68,3.79l-12.01 12.66c-0.69,0.72 -1.54,1.09 -2.54,1.09l-12.54 0zm75.02 43.52l-16.32 9.7c-1.11,0.66 -2.4,0.67 -3.52,0.03 -1.13,-0.64 -1.77,-1.75 -1.77,-3.05l0 -66.38c0,-1.93 1.57,-3.5 3.5,-3.5l16.32 0c1.93,0 3.5,1.57 3.5,3.5l0 56.67c0,1.27 -0.62,2.36 -1.71,3.01zm54.79 -28.47l0 25.37c0,1.27 -0.62,2.35 -1.7,3l-16.32 9.78c-1.11,0.67 -2.4,0.68 -3.53,0.04 -1.13,-0.64 -1.78,-1.75 -1.78,-3.05l0 -66.38c0,-1.93 1.57,-3.5 3.5,-3.5l11.64 0c0.88,0 1.63,0.28 2.29,0.85l33.27 28.76 0 -26.11c0,-1.93 1.57,-3.5 3.5,-3.5l16.32 0c1.93,0 3.5,1.57 3.5,3.5l0 56.59c0,1.93 -1.57,3.5 -3.5,3.5l-12.36 0c-0.87,0 -1.62,-0.28 -2.29,-0.85l-32.55 -28.03zm155.44 14.92l-12.29 12.87c-0.69,0.72 -1.54,1.08 -2.53,1.08l-45.02 0c-0.99,0 -1.85,-0.36 -2.53,-1.08l-12.29 -12.87c-0.65,-0.68 -0.97,-1.48 -0.97,-2.42l0 -30.85c0,-0.94 0.32,-1.74 0.97,-2.42l12.29 -12.87c0.69,-0.72 1.54,-1.08 2.53,-1.08l45.02 0c0.99,0 1.85,0.36 2.53,1.08l12.29 12.87c0.65,0.68 0.97,1.48 0.97,2.42l0 30.85c0,0.94 -0.32,1.74 -0.97,2.42zm82.53 -5.71l1.04 -1.26 -1.16 -1.52 -39.48 0c-1.17,0 -2.18,-0.52 -2.86,-1.47l-11.9 -16.74c-0.88,-1.23 -0.88,-2.81 -0.01,-4.05l12.29 -17.41c0.68,-0.96 1.69,-1.48 2.86,-1.48l62.71 0c1.43,0 2.66,0.81 3.22,2.13 0.56,1.32 0.3,2.76 -0.69,3.8l-12.1 12.66c-0.69,0.72 -1.54,1.08 -2.53,1.08l-39.41 0 -1.14 1.4 1.2 1.57 39.53 0c1.16,0 2.17,0.51 2.85,1.46l11.92 16.6c0.89,1.23 0.89,2.82 0.01,4.07l-12.29 17.36c-0.68,0.96 -1.69,1.48 -2.86,1.48l-62.71 0c-1.43,0 -2.65,-0.8 -3.22,-2.12 -0.56,-1.32 -0.31,-2.76 0.68,-3.79l12.01 -12.66c0.69,-0.72 1.54,-1.09 2.54,-1.09l39.5 0zm-458.77 -16.02l0 -8.25 -25.91 0 0 8.25 25.91 0zm353.89 16.02l0 -24.26 -29.94 0 0 24.26 29.94 0z"/>
     <path class="fil3" d="M94.26 121.24l-12.1 12.66 -50.61 0 0 -56.51 16.32 -9.86 0 53.72 46.39 0zm94.61 12.66l-16.32 0 0 -16.21 -32.92 0 0 16.31 -16.32 9.69 0 -53.72 12.29 -12.66 40.99 0 12.29 12.66 0 43.93zm-16.32 -28.68l0 -15.25 -32.92 0 0 15.25 32.92 0zm112.04 -27.91l-12.01 12.66 -16.05 0 0 43.93 -16.32 9.78 0 -53.72 -16.05 0 -12.01 -12.66 72.43 0zm48.68 56.67l-16.32 9.7 0 -66.38 16.32 0 0 56.67zm103.78 -0.08l-12.36 0 -38.34 -33.01 0 33.01 -16.32 9.78 0 -66.38 11.64 0 39.06 33.76 0 -33.76 16.32 0 0 56.59zm105.71 -12.87l-12.29 12.87 -45.02 0 -12.29 -12.87 0 -30.85 12.29 -12.87 45.02 0 12.29 12.87 0 30.85zm-16.32 0.21l0 -31.27 -36.95 0 0 31.27 36.95 0zm124.87 -4.7l-12.29 17.36 -62.71 0 12.01 -12.66 41.15 0 3.85 -4.68 -3.9 -5.1 -41.21 0 -11.9 -16.74 12.29 -17.41 62.71 0 -12.1 12.66 -41.08 0 -3.94 4.84 3.94 5.13 41.26 0 11.92 16.59z"/>
     <polygon class="fil4" points="11.82,159.54 676.06,159.54 676.06,257.01 11.82,257.01 "/>
     <path class="fil2" d="M69.87 214.68l-5.73 8.52c-0.67,1 -1.7,1.55 -2.91,1.55l-6.32 0c-1.2,0 -2.24,-0.55 -2.91,-1.55l-5.67 -8.47 0 10.85c0,1.25 -0.6,2.32 -1.66,2.98l-9.78 6.05c-1.11,0.69 -2.41,0.72 -3.55,0.08 -1.14,-0.64 -1.8,-1.76 -1.8,-3.06l0 -41.05c0,-1.93 1.57,-3.5 3.5,-3.5l11.01 0c1.2,0 2.23,0.55 2.91,1.55l11.15 16.55 11.08 -16.54c0.67,-1 1.71,-1.55 2.91,-1.55l11.05 0c1.93,0 3.5,1.57 3.5,3.5l0 35c0,1.93 -1.57,3.5 -3.5,3.5l-9.78 0c-1.93,0 -3.5,-1.57 -3.5,-3.5l0 -10.89zm42.07 -0.44l12.72 0 0 -23.67c0,-1.93 1.57,-3.5 3.5,-3.5l9.78 0c1.93,0 3.5,1.57 3.5,3.5l0 27.04c0,0.92 -0.31,1.71 -0.93,2.38l-7.36 7.96c-0.69,0.74 -1.56,1.12 -2.57,1.12l-24.56 0c-1.01,0 -1.88,-0.38 -2.57,-1.12l-7.36 -7.95c-0.62,-0.67 -0.93,-1.46 -0.93,-2.38l0 -33.1c0,-1.31 0.66,-2.43 1.8,-3.06 1.14,-0.63 2.44,-0.6 3.55,0.09l9.78 6.1c1.06,0.66 1.65,1.73 1.65,2.97l0 23.62zm54.85 0l24.3 0c1.42,0 2.64,0.8 3.21,2.1 0.57,1.31 0.33,2.74 -0.64,3.78l-7.25 7.83c-0.69,0.74 -1.56,1.12 -2.57,1.12l-30.33 0c-1.93,0 -3.5,-1.57 -3.5,-3.5l0 -34.95c0,-1.24 0.59,-2.31 1.65,-2.97l9.78 -6.1c1.11,-0.69 2.41,-0.73 3.55,-0.09 1.14,0.63 1.8,1.76 1.8,3.06l0 29.72zm49.57 -12.33l0 23.66c0,1.25 -0.6,2.32 -1.66,2.98l-9.78 6.05c-1.11,0.69 -2.41,0.72 -3.55,0.08 -1.14,-0.64 -1.8,-1.76 -1.8,-3.06l0 -29.71 -6.11 0c-1.02,0 -1.89,-0.38 -2.58,-1.13l-7.2 -7.83c-0.96,-1.05 -1.2,-2.48 -0.63,-3.78 0.57,-1.3 1.79,-2.09 3.21,-2.09l43.4 0c1.42,0 2.64,0.79 3.21,2.09 0.57,1.3 0.33,2.73 -0.63,3.78l-7.2 7.83c-0.69,0.75 -1.56,1.13 -2.58,1.13l-6.11 0zm38.01 26.7l-9.78 6c-1.11,0.68 -2.41,0.71 -3.54,0.07 -1.14,-0.64 -1.79,-1.75 -1.79,-3.06l0 -41.05c0,-1.93 1.57,-3.5 3.5,-3.5l9.78 0c1.93,0 3.5,1.57 3.5,3.5l0 35.05c0,1.25 -0.6,2.33 -1.67,2.98zm17.68 -13.87c-0.44,-0.25 -0.82,-0.61 -1.13,-1.06l-7.13 -10.35c-0.84,-1.22 -0.84,-2.75 -0.01,-3.97l7.36 -10.77c0.67,-0.98 1.7,-1.53 2.89,-1.53l37.58 0c1.42,0 2.64,0.8 3.21,2.1 0.57,1.31 0.33,2.74 -0.64,3.78l-7.25 7.83c-0.25,0.27 -0.53,0.5 -0.83,0.67 0.49,0.25 0.91,0.63 1.25,1.11l7.14 10.26c0.85,1.22 0.85,2.76 0.01,3.98l-7.36 10.74c-0.67,0.98 -1.7,1.52 -2.89,1.52l-37.58 0c-1.42,0 -2.64,-0.79 -3.21,-2.09 -0.57,-1.3 -0.33,-2.73 0.63,-3.78l7.2 -7.83c0.23,-0.25 0.49,-0.46 0.76,-0.63zm87.62 -13.67l0.2 0c1.42,0 2.64,0.8 3.21,2.1 0.57,1.31 0.33,2.74 -0.64,3.78l-6.59 7.12c-0.05,0.06 -0.11,0.11 -0.16,0.17l7.76 0c1.42,0 2.64,0.8 3.21,2.1 0.57,1.31 0.33,2.74 -0.64,3.78l-7.25 7.83c-0.69,0.74 -1.56,1.12 -2.57,1.12l-30.33 0c-1.93,0 -3.5,-1.57 -3.5,-3.5l0 -35c0,-1.93 1.57,-3.5 3.5,-3.5l38.73 0c1.42,0 2.64,0.79 3.21,2.09 0.57,1.3 0.33,2.73 -0.63,3.78l-7.2 7.83c-0.1,0.11 -0.2,0.2 -0.3,0.3zm46.21 17.31l-0.95 -0.99 -13.7 0 0 8.18c0,1.25 -0.6,2.32 -1.66,2.98l-9.78 6.05c-1.11,0.69 -2.41,0.72 -3.55,0.08 -1.14,-0.64 -1.8,-1.76 -1.8,-3.06l0 -41.05c0,-1.93 1.57,-3.5 3.5,-3.5l33.84 0c1.19,0 2.22,0.54 2.89,1.53l7.36 10.8c0.83,1.22 0.83,2.75 -0.01,3.96l-4.01 5.82 3.7 3.99c0.62,0.67 0.93,1.46 0.93,2.38l0 10.02c0,1.93 -1.57,3.5 -3.5,3.5l-9.78 0c-1.93,0 -3.5,-1.57 -3.5,-3.5l0 -7.19zm45.03 -11.56l9.05 -17.83c0.61,-1.21 1.77,-1.92 3.12,-1.92l10 0c1.25,0 2.33,0.6 2.98,1.66 0.66,1.06 0.71,2.29 0.15,3.41l-17.58 35c-0.61,1.21 -1.77,1.93 -3.13,1.93l-9.12 0c-1.36,0 -2.52,-0.72 -3.13,-1.93l-17.58 -35c-0.56,-1.12 -0.51,-2.35 0.15,-3.41 0.66,-1.06 1.73,-1.66 2.98,-1.66l9.94 0c1.35,0 2.51,0.71 3.12,1.92l9.06 17.83zm47.81 21.79l-9.78 6c-1.11,0.68 -2.41,0.71 -3.54,0.07 -1.14,-0.64 -1.79,-1.75 -1.79,-3.06l0 -41.05c0,-1.93 1.57,-3.5 3.5,-3.5l9.78 0c1.93,0 3.5,1.57 3.5,3.5l0 35.05c0,1.25 -0.6,2.33 -1.67,2.98zm26.85 -26.7l0 12.33 24.3 0c1.42,0 2.64,0.8 3.21,2.1 0.57,1.31 0.33,2.74 -0.64,3.78l-7.25 7.83c-0.69,0.74 -1.56,1.12 -2.57,1.12l-22.97 0c-1,0 -1.87,-0.37 -2.55,-1.1l-7.36 -7.83c-0.64,-0.68 -0.95,-1.47 -0.95,-2.4l0 -19.18c0,-0.91 0.31,-1.7 0.93,-2.37l7.36 -7.99c0.69,-0.75 1.56,-1.13 2.58,-1.13l31.37 0c1.42,0 2.64,0.79 3.21,2.09 0.57,1.3 0.33,2.73 -0.63,3.78l-7.2 7.83c-0.69,0.75 -1.56,1.13 -2.58,1.13l-18.25 0zm71.64 -0.84l0.2 0c1.42,0 2.64,0.8 3.21,2.1 0.57,1.31 0.33,2.74 -0.64,3.78l-6.59 7.12c-0.05,0.06 -0.11,0.11 -0.16,0.17l7.76 0c1.42,0 2.64,0.8 3.21,2.1 0.57,1.31 0.33,2.74 -0.64,3.78l-7.25 7.83c-0.69,0.74 -1.56,1.12 -2.57,1.12l-30.33 0c-1.93,0 -3.5,-1.57 -3.5,-3.5l0 -35c0,-1.93 1.57,-3.5 3.5,-3.5l38.73 0c1.42,0 2.64,0.79 3.21,2.09 0.57,1.3 0.33,2.73 -0.63,3.78l-7.2 7.83c-0.1,0.11 -0.2,0.2 -0.3,0.3zm17.02 13.67c-0.44,-0.25 -0.82,-0.61 -1.13,-1.06l-7.13 -10.35c-0.84,-1.22 -0.84,-2.75 -0.01,-3.97l7.36 -10.77c0.67,-0.98 1.7,-1.53 2.89,-1.53l37.58 0c1.42,0 2.64,0.8 3.21,2.1 0.57,1.31 0.33,2.74 -0.64,3.78l-7.25 7.83c-0.25,0.27 -0.53,0.5 -0.83,0.67 0.49,0.25 0.91,0.63 1.25,1.11l7.14 10.26c0.85,1.22 0.85,2.76 0.01,3.98l-7.36 10.74c-0.67,0.98 -1.7,1.52 -2.89,1.52l-37.58 0c-1.42,0 -2.64,-0.79 -3.21,-2.09 -0.57,-1.3 -0.33,-2.73 0.63,-3.78l7.2 -7.83c0.23,-0.25 0.49,-0.46 0.76,-0.63zm-209.36 -12.66l-0.12 -0.17 -13.5 0 0 0.53 13.38 0 0.24 -0.36z"/>
     <path class="fil3" d="M83.15 225.56l-9.78 0 0 -22.36 -12.14 18.03 -6.32 0 -12.09 -18.03 0 22.36 -9.78 6.05 0 -41.05 11.01 0 14.07 20.87 13.98 -20.87 11.05 0 0 35zm54.79 -7.96l-7.36 7.96 -24.56 0 -7.36 -7.95 0 -33.1 9.78 6.1 0 27.12 19.72 0 0 -27.17 9.78 0 0 27.04zm53.14 0.13l-7.25 7.83 -30.33 0 0 -34.95 9.78 -6.1 0 33.22 27.8 0zm38.58 -27.17l-7.2 7.83 -9.61 0 0 27.17 -9.78 6.05 0 -33.22 -9.61 0 -7.2 -7.83 43.4 0zm22.87 35.05l-9.78 6 0 -41.05 9.78 0 0 35.05zm59.08 -10.79l-7.36 10.74 -37.58 0 7.2 -7.83 24.66 0 2.31 -2.9 -2.34 -3.15 -24.7 0 -7.13 -10.35 7.36 -10.77 37.58 0 -7.25 7.83 -24.61 0 -2.36 2.99 2.36 3.17 24.72 0 7.14 10.26zm52.98 -24.26l-7.2 7.83 -21.76 0 0 6.17 24.23 0 -6.59 7.12 -17.64 0 0 6.05 27.8 0 -7.25 7.83 -30.33 0 0 -35 38.73 0zm54.57 35l-9.78 0 0 -8.59 -2.95 -3.09 -18.7 0 0 11.69 -9.78 6.05 0 -41.05 33.84 0 7.36 10.8 -5.6 8.13 5.6 6.05 0 10.02zm-10.06 -23.54l-2.55 -3.63 -18.83 0 0 7.53 18.75 0 2.62 -3.91zm63.97 -11.46l-17.58 35 -9.12 0 -17.58 -35 9.94 0 12.18 23.98 12.17 -23.98 10 0zm23.81 35.05l-9.78 6 0 -41.05 9.78 0 0 35.05zm54.13 -35.05l-7.2 7.83 -21.76 0 0 19.34 27.8 0 -7.25 7.83 -22.97 0 -7.36 -7.83 0 -19.18 7.36 -7.99 31.37 0zm51.11 0l-7.2 7.83 -21.76 0 0 6.17 24.23 0 -6.59 7.12 -17.64 0 0 6.05 27.8 0 -7.25 7.83 -30.33 0 0 -35 38.73 0zm51.66 24.26l-7.36 10.74 -37.58 0 7.2 -7.83 24.66 0 2.31 -2.9 -2.34 -3.15 -24.7 0 -7.13 -10.35 7.36 -10.77 37.58 0 -7.25 7.83 -24.61 0 -2.36 2.99 2.36 3.17 24.72 0 7.14 10.26z"/>
    </g>
   </g>
  </g>
 </g>
</svg>
