<?xml version="1.0" encoding="UTF-8"?>
<!DOCTYPE svg PUBLIC "-//W3C//DTD SVG 1.1//EN" "http://www.w3.org/Graphics/SVG/1.1/DTD/svg11.dtd">
<!-- Creator: CorelDRAW -->
<svg xmlns="http://www.w3.org/2000/svg" xml:space="preserve" width="53.7447in" height="53.7447in" version="1.1" style="shape-rendering:geometricPrecision; text-rendering:geometricPrecision; image-rendering:optimizeQuality; fill-rule:evenodd; clip-rule:evenodd"
viewBox="0 0 24893.56 24893.56"
 xmlns:xlink="http://www.w3.org/1999/xlink"
 xmlns:xodm="http://www.corel.com/coreldraw/odm/2003">
 <defs>
  <style type="text/css">
   <![CDATA[
    .str0 {stroke:black;stroke-width:3.17;stroke-miterlimit:22.926}
    .fil8 {fill:none}
    .fil2 {fill:black}
    .fil0 {fill:black}
    .fil1 {fill:white}
    .fil3 {fill:black;fill-rule:nonzero}
    .fil7 {fill:#972130;fill-rule:nonzero}
    .fil6 {fill:#981E32;fill-rule:nonzero}
    .fil4 {fill:#EAAB00;fill-rule:nonzero}
    .fil5 {fill:white;fill-rule:nonzero}
   ]]>
  </style>
 </defs>
 <g id="Capa_x0020_1">
  <metadata id="CorelCorpID_0Corel-Layer"/>
  <g id="_1659182332176">
   <path class="fil0" d="M12446.78 0c6873.94,0 12446.79,5572.83 12446.79,12446.78 0,6873.94 -5572.85,12446.78 -12446.79,12446.78 -6873.93,0 -12446.78,-5572.85 -12446.78,-12446.78 0,-6873.94 5572.84,-12446.78 12446.78,-12446.78z"/>
   <path class="fil1" d="M12446.78 673.3c6502.31,0 11773.48,5271.16 11773.48,11773.48 0,6502.31 -5271.17,11773.48 -11773.48,11773.48 -6502.31,0 -11773.48,-5271.17 -11773.48,-11773.48 0,-6502.32 5271.17,-11773.48 11773.48,-11773.48z"/>
   <path class="fil2" d="M12446.78 1007.52c6317.72,0 11439.25,5121.52 11439.25,11439.26 0,6317.73 -5121.53,11439.25 -11439.25,11439.25 -6317.74,0 -11439.26,-5121.52 -11439.26,-11439.25 0,-6317.74 5121.52,-11439.26 11439.26,-11439.26z"/>
   <path class="fil1" d="M12446.78 4275.67c4512.79,0 8171.12,3658.33 8171.12,8171.12 0,4512.77 -3658.33,8171.09 -8171.12,8171.09 -4512.78,0 -8171.1,-3658.32 -8171.1,-8171.09 0,-4512.79 3658.32,-8171.12 8171.1,-8171.12z"/>
   <path class="fil3" d="M12611.54 4983.41l0 7513.43 -7646.3 0c-0.16,-21.21 -0.8,-42.29 -0.8,-63.55 0,-4115.81 3336.52,-7452.42 7452.37,-7452.42 65.1,0 130.01,0.86 194.73,2.53z"/>
   <path class="fil4" d="M6445.94 7973.13l0 4523.7 2055.25 0 0 -6405.02c629.03,-389.25 1320.12,-687.77 2055.18,-876.8l0 7281.82 2055.19 0 0 -1370.12 -5651.84 -3767.91c-181.85,195.36 -353.59,400.25 -513.77,614.34zm-766.71 1272.28l4877.14 3251.42 -5591.13 0c-0.16,-21.19 -0.8,-42.29 -0.8,-63.53 0,-1140.69 256.66,-2221.34 714.79,-3187.88z"/>
   <path class="fil5" d="M19868.43 12496.84l-7256.89 0 0 -7513.43c4025.84,103.26 7257.69,3399.19 7257.69,7449.89 0,21.26 -0.63,42.34 -0.8,63.55z"/>
   <path class="fil6" d="M18675.33 8386.43l-6063.77 0 0 4110.42 6165.56 0 0 -3948.99c-33.23,-54.3 -67.21,-108.08 -101.79,-161.42z"/>
   <path class="fil6" d="M18777.13 11921.39c290.6,0 526.12,-235.54 526.12,-526.12l0 -263.06 452.58 0c-63.47,-360.39 -152.98,-711.75 -266.23,-1052.3l-186.35 0 0 -499.24c-148.99,-359.3 -325.13,-704.44 -526.12,-1032.83l0 3373.55z"/>
   <path class="fil5" d="M18777.13 11921.39c-290.58,0 -526.12,-235.54 -526.12,-526.12l0 -263.06 -509.68 0c-290.58,0 -526.13,-235.59 -526.13,-526.14 0,-290.57 235.55,-526.16 526.13,-526.16l509.68 0 0 -1167.32 -3271.85 0 0 509.69c0,290.54 -235.62,526.11 -526.12,526.11 -290.63,0 -526.17,-235.58 -526.17,-526.11l0 -509.69 -460.33 0c-290.58,0 -526.12,-235.58 -526.12,-526.16l5734.93 0c34.57,53.35 68.56,107.13 101.8,161.41l0 3373.55z"/>
   <path class="fil6" d="M18251.01 7796.64l0 63.65 -3271.85 0 0 -509.68c0,-290.56 -235.62,-526.12 -526.12,-526.12 -290.64,0 -526.17,235.56 -526.17,526.12l0 509.68 -460.33 0c-290.59,0 -526.12,235.58 -526.12,526.14l5734.92 0c-131.99,-203.66 -273.65,-400.45 -424.32,-589.79z"/>
   <path class="fil5" d="M4965.24 12496.84l7646.3 0 0 7386.34c-64.71,1.66 -129.63,2.52 -194.74,2.52 -4094.6,0 -7417.36,-3302.34 -7451.56,-7388.86z"/>
   <path class="fil6" d="M6445.95 12496.83l6165.61 0 0 4110.42 -6369.36 0c65.74,97.07 133.63,192.52 203.75,286.25l0 -4396.67z"/>
   <path class="fil6" d="M6972.08 17521.1l0 -387.72 3271.89 0 0 509.69c0,290.59 235.54,526.12 526.12,526.12 290.55,0 526.12,-235.54 526.12,-526.12l0 -509.69 460.41 0c290.52,0 526.1,-235.58 526.1,-526.11l-5836.76 0 0 286.24c163.81,218.93 339.73,428.21 526.12,627.6z"/>
   <path class="fil5" d="M6242.21 16607.27l203.74 0 0 286.24c-70.11,-93.72 -138,-189.19 -203.74,-286.24z"/>
   <path class="fil5" d="M6445.95 13072.3c290.55,0 526.12,235.58 526.12,526.11l0 263.06 509.69 0c290.59,0 526.12,235.59 526.12,526.12 0,290.58 -235.54,526.16 -526.12,526.16l-509.69 0 0 1167.32 3271.89 0 0 -509.7c0,-290.52 235.55,-526.11 526.13,-526.11 290.55,0 526.12,235.59 526.12,526.11l0 509.7 460.4 0c290.54,0 526.1,235.62 526.1,526.17l-5836.76 0 0 -3534.95z"/>
   <path class="fil6" d="M6445.95 13072.3c-290.59,0 -526.12,235.58 -526.12,526.11l0 263.06 -509.68 0c-107.71,0 -207.84,32.39 -291.23,87.93 68.18,329.83 158.5,651.52 268.68,963.84 7.47,0.32 14.99,0.52 22.55,0.52l509.68 0 0 1167.32 -2.54 0c101.28,180.08 209.49,355.75 324.91,526.17l203.75 0 0 -3534.95z"/>
   <path class="fil3" d="M12611.54 12496.84l7256.88 0c-33.66,4021.54 -3252.18,7283.61 -7256.88,7386.34l0 -7386.34z"/>
   <path class="fil4" d="M12611.55 19883.18l0 -6016.19 2055.19 1370.12 0 4302.57c-651,205.92 -1340.52,325.16 -2055.19,343.5zm4110.38 -1366.18l0 -6020.19 2055.19 0 0 3821.97c156.99,-256.42 298.89,-523.07 424.51,-798.7l-4534.89 -3023.27 0 2740.29 3282.86 2188.57c-367.47,407.05 -779.18,773.41 -1227.67,1091.32z"/>
   <path class="fil6" d="M12446.77 19949.51c-4137.02,0 -7502.72,-3365.72 -7502.72,-7502.73 0,-4137.03 3365.7,-7502.74 7502.72,-7502.74 4137.03,0 7502.75,3365.71 7502.75,7502.74 0,4137.01 -3365.72,7502.73 -7502.75,7502.73zm0 -15423.25c-4367.35,0 -7920.51,3553.17 -7920.51,7920.52 0,4367.39 3553.16,7920.51 7920.51,7920.51 4367.41,0 7920.52,-3553.11 7920.52,-7920.51 0,-4367.34 -3553.11,-7920.52 -7920.52,-7920.52z"/>
   <path class="fil3" d="M10263.43 18152.37c-5.06,-17.35 -6.72,-35.46 -4.86,-53.61l409.97 -4108.15c7.25,-71.96 67.18,-126.17 139.37,-126.17l3857.2 0c1909.62,-114.62 2941.52,-1149.35 3150.93,-3163.28 103.1,-992.55 -68.09,-1756.62 -508.86,-2270.89 -440.52,-513.98 -1168.76,-800.09 -2164.64,-850.48l-3642.85 0 0 -0.59 -4335.23 0c-799.76,908.25 -1377.87,2179.72 -1644.92,2838.01 417.58,-414.58 983.95,-601.65 1327.97,-681.54l16.15 -3.85 7860.45 -0.84c7.24,0 14.57,0.55 21.58,1.63 326.15,49.71 559.92,168.42 694.86,352.75 121.67,166.18 162.51,383.6 121.29,646.21 -86.34,550.13 -430.86,837.74 -997.46,833.37l-3612.9 13.88 0.18 -2.22 -2656.69 0 -611.58 6152.06c175.83,162.78 1412.96,1254.53 3337.67,1638.33 -343.69,-269.2 -602.57,-682.45 -757.62,-1214.62z"/>
   <path class="fil5" d="M12446.77 19690.31c-347.03,0 -688.26,-25.06 -1022.39,-72.51 31.61,-17.41 55.99,-46.98 66.51,-84.77 18.39,-65.58 -12.94,-134.61 -74.36,-164.17 -553.13,-266.21 -821.02,-830.5 -948.81,-1262.26l402.45 -4033.27 3794.91 0 8.82 -0.22c2004.18,-120.23 3131.25,-1247.4 3349.94,-3350.29 109.21,-1051.89 -78.51,-1868.92 -558.06,-2428.46 -479.67,-559.67 -1258.67,-870.32 -2315.43,-923.28l-3441.8 -0.15 0 -0.59 -4423.34 0c1314.84,-1336.71 3142.95,-2167.01 5161.55,-2167.01 3994.1,0 7243.52,3249.42 7243.52,7243.47 0,3994.1 -3249.42,7243.53 -7243.52,7243.53zm-7243.47 -7243.53c0,-514.98 54.41,-1017.37 157.04,-1502.24 20.28,-11.83 37.92,-28.83 50.59,-50.5 355.54,-610.27 1074.44,-858.82 1477.18,-953.32l4339.23 0 93.85 -0.84 3397.98 0c266.5,41.37 452.49,131.83 552.81,268.87 87.69,119.77 115.77,284.74 83.5,490.42 -70.97,452.26 -320.71,662.82 -790.61,656.89l-3385.11 13.04 0.13 -1.41 -2947.23 0c-72.33,0 -132.25,54.27 -139.41,126.28l-617.88 6215.87c-1398.16,-1321.38 -2272.06,-3192.01 -2272.06,-5263.07zm2480.11 5281.87l611.53 -6152.07 2656.76 0 -0.24 2.24 3612.89 -13.88c566.62,4.36 911.14,-283.26 997.47,-833.37 41.23,-262.61 0.38,-479.99 -121.29,-646.22 -134.94,-184.32 -368.67,-303.02 -694.85,-352.74 -7.02,-1.07 -14.35,-1.63 -21.54,-1.63l-7860.49 0.84 -16.16 3.85c-343.97,79.89 -910.33,266.96 -1327.98,681.53 267.06,-658.28 845.18,-1929.72 1644.98,-2838l4335.19 0 0 0.59 3642.84 0c995.89,50.38 1724.17,336.51 2164.64,850.47 440.77,514.29 611.99,1278.35 508.86,2270.94 -209.39,2013.89 -1241.26,3048.63 -3150.93,3163.23l-3857.16 0c-72.23,0 -132.14,54.22 -139.39,126.18l-409.98 4108.14c-1.86,18.16 -0.19,36.26 4.87,53.62 155.11,532.16 413.98,945.42 757.62,1214.62 -1924.7,-383.76 -3161.83,-1475.55 -3337.63,-1638.34zm4763.36 -12784.61c-4137.02,0 -7502.72,3365.7 -7502.72,7502.73 0,4137.03 3365.7,7502.74 7502.72,7502.74 4137.03,0 7502.75,-3365.71 7502.75,-7502.74 0,-4137.03 -3365.72,-7502.73 -7502.75,-7502.73z"/>
   <path class="fil5" d="M3877.69 18205.38l-339.16 218.44c-66.11,-54.53 -116.93,-108.57 -151.71,-162.61 -120.87,-187.65 -148.21,-384.88 -82.53,-592.46 65.92,-207.23 213.38,-384.83 443.02,-532.74 213.22,-137.31 427.04,-191.87 641.71,-163.27 214.44,28.2 379.5,132.12 495.18,311.73 45.15,70.1 77.03,140.47 96.03,210.87l-339.89 218.89c-19.53,-75.23 -46.55,-140.45 -82.06,-195.58 -54.06,-83.96 -137.92,-129.13 -250.68,-135.03 -112.76,-5.88 -228.5,29.39 -347.5,106.03 -128.51,82.77 -212.14,175.87 -250.65,279.7 -38.26,104.2 -27.52,202.66 32.67,296.09 29.37,45.64 74.52,92.5 135.56,139.94zm789.38 -204.2l243.08 278.92 -567.66 494.7c-29.46,25.68 -48.02,53.95 -55.34,84.53 -7.66,30.87 -1.23,58.08 19.6,81.98 46.78,53.69 109.79,46.02 188.36,-22.45l552.27 -481.29 243.07 278.91 -511.03 445.36c-129.97,113.25 -255.4,169.58 -377.21,168.61 -121.82,-0.97 -232.37,-58.42 -332.22,-173.03 -111.25,-127.66 -156.35,-250.78 -135.65,-368.46 21.01,-117.98 84.54,-222.89 189.95,-314.75l542.78 -473.02zm379.79 1596.34c40.13,141.2 80.53,231.09 121.13,269.66 22.03,20.93 45.98,32.93 71.52,35.05 25.57,2.72 46,-3.65 61.24,-19.69 16.44,-17.31 22.12,-35.89 17.31,-55.42 -4.79,-19.53 -30.11,-84.93 -76.86,-195.85 -36.98,-89.05 -51.54,-166.4 -43.39,-231.71 8.18,-65.33 39.79,-126.35 94.22,-183.63 77.48,-81.53 169.5,-122.27 276.13,-121.61 106.28,0.37 203.18,42.13 290.67,125.28 84.68,80.48 156.55,212.88 215.3,397.52l-284.82 92.96c-32.98,-125.4 -75.12,-212.18 -126.12,-260.65 -44.38,-42.17 -83.46,-45.17 -117.26,-9.6 -16.45,17.33 -22.33,39.89 -18.24,67.74 4.41,28.14 20.53,70.42 49,126.81 53.97,104.62 80.19,194.24 79.32,268.3 -0.89,74.04 -29.57,141.43 -86.71,201.55 -81.96,86.24 -177.94,129.24 -288.49,129.61 -110.26,0.66 -210.55,-41.95 -300.25,-127.21 -97.28,-92.42 -168.84,-225.13 -214.42,-398.43l280.7 -110.67zm1574.94 -86.74l291.06 228.42 -192.49 245.27 113.07 88.73 -190.07 242.21 -115.12 -90.35 -532.43 678.41 -289 -226.79 534.03 -680.47 -110.33 -86.6 188.47 -240.15 110.33 86.59 192.48 -245.27zm816.71 881.71c146.56,84.03 229.83,196.34 250.74,337.96 20.53,141.42 -19.16,298.85 -118.73,472.53 -97.4,169.89 -212.33,278.68 -345.16,326.18 -132.84,47.46 -269.62,31.13 -410.13,-49.44 -134.88,-77.3 -214.27,-185.91 -238.96,-326.18 -24.69,-140.31 10.7,-293.7 105.95,-459.83 99.57,-173.67 214.98,-287.68 346.26,-342.08 131.3,-54.37 268.03,-40.55 410.04,40.86zm-456.47 801.46c41.82,23.97 84.7,22.53 127.67,-4.39 43.56,-27.08 92.34,-87.72 146.32,-181.88 53.57,-93.45 80.39,-164.68 81.63,-214 0.89,-49.54 -19.23,-86.1 -60.3,-109.64 -40.68,-23.32 -82.14,-22.57 -123.97,1.49 -42.42,24.24 -91.19,84.88 -146.92,182.08 -97.83,170.65 -106.18,279.48 -24.43,326.35zm1458.63 -231.77l-52.23 133.91c142.57,-76.3 264.49,-94.94 365.62,-55.48 121.77,47.49 175.8,140.8 162.31,280.52 81.01,-43.93 151.17,-72.03 210.58,-83.35 59.81,-11.16 121.48,-4.35 185.4,20.58 160.2,62.5 197,205.96 109.41,430.5l-308.81 791.7 -345.09 -134.6 251.08 -643.65c41.02,-105.18 27.39,-170.61 -40.58,-197.14 -69.57,-27.14 -124.4,10.66 -164.8,114.23l-252.02 646.09 -344.67 -134.45 258.48 -662.66c15.63,-40.05 19.26,-76.86 10.91,-110.4 -8.51,-33.15 -27.35,-55.42 -56.46,-66.77 -30.75,-12 -60.32,-9.08 -88.72,8.73 -28.53,18.23 -51.27,48.99 -68.14,92.28l-257.55 660.23 -343.86 -134.15 425.28 -1090.25 343.86 134.14zm1893.84 60l442.31 77.21c178.83,31.22 311.99,101.64 399.45,211.67 87.89,110.12 117.86,244.06 90.29,401.91 -14.19,81.28 -47.53,156.14 -100.03,224.55 -52.56,68.84 -119.83,115.72 -201.41,141.14l171.56 807.55 -401.25 -70.06 -174.12 -815.48 -6.01 -1.03 -133 761.86 -379.86 -66.32 292.07 -1673.01zm323.4 389.71l-69.28 396.98c168.21,26.27 262.78,-18.04 282.79,-132.69 13.52,-77.41 3.56,-136.47 -29.54,-176.62 -32.67,-40.09 -94.12,-69.32 -183.96,-87.66zm1463.75 1146.57l311.71 6.7c-65.14,261.38 -216.43,389.72 -453.91,384.61 -148.48,-3.19 -264.46,-62.14 -348.44,-176.88 -84.42,-114.32 -124.04,-271.09 -119.77,-469.49 3.99,-184.95 50.15,-332.06 139.38,-441.76 88.81,-109.73 205.05,-162.8 348.3,-159.74 86.4,1.86 168.74,30.56 247.47,86.12 78.28,55.55 134.91,128.43 169.47,218.21 34.56,89.78 51.93,230.44 52.17,422l-616.91 -13.28c1.47,174.2 47.78,262.06 139.39,264.02 31.24,0.68 59.7,-10 84.51,-32.49 25.27,-22.47 40.67,-51.67 46.65,-88.03zm-261.03 -344.4l268.32 5.78c-0.84,-82.11 -10.81,-143.14 -30.37,-183.08 -19.58,-39.95 -51.28,-60.17 -95.55,-61.13 -49.05,-1.06 -84.64,17.29 -106.73,55.04 -22.09,37.76 -33.83,98.73 -35.66,183.39zm1252.75 -499.87l18.65 142.53c88.26,-135.49 186.18,-210.5 293.81,-224.58 129.61,-16.97 221.87,38.83 277.27,167.8 49.86,-77.48 97.84,-135.88 144.48,-174.39 47.07,-38.56 104.39,-62.28 172.43,-71.17 170.51,-22.31 271.79,85.74 303.07,324.71l110.26 842.61 -367.27 48.07 -89.65 -685.04c-14.64,-111.94 -58.08,-162.74 -130.41,-153.28 -74.05,9.69 -103.93,69.21 -89.51,179.44l89.97 687.61 -366.84 48.01 -92.29 -705.27c-5.58,-42.63 -20.1,-76.63 -43.57,-102.03 -23.4,-24.96 -50.63,-35.42 -81.63,-31.35 -32.72,4.27 -57.24,21.06 -73.55,50.33 -16.26,29.73 -21.38,67.63 -15.33,113.69l91.94 702.69 -365.98 47.9 -151.84 -1160.38 365.98 -47.9zm1890.31 -416.03c162.47,-46.24 301.02,-27.45 417.01,56.48 115.58,84.04 200.56,222.36 255.39,414.89 53.62,188.35 51.25,346.59 -7.5,474.85 -58.75,128.24 -165.96,214.75 -321.74,259.1 -149.52,42.57 -282.68,23.58 -400.36,-56.67 -117.66,-80.29 -202.77,-212.72 -255.2,-396.89 -54.83,-192.56 -55.86,-354.78 -3.13,-486.74 52.75,-131.95 158.09,-220.18 315.54,-265.02zm255.06 886.37c46.35,-13.2 75.27,-44.91 85.99,-94.47 11.02,-50.08 1.66,-127.33 -28.06,-231.75 -29.48,-103.58 -61.75,-172.49 -96.18,-207.84 -34.85,-35.23 -75.08,-46.35 -120.59,-33.4 -45.1,12.83 -73.52,43.05 -85.51,89.8 -12.25,47.29 -2.92,124.54 27.77,232.3 53.85,189.2 125.94,271.17 216.57,245.35zm775.83 -1907.27l335.16 -151.46 738.19 1633.47 -337.53 152.55 -63.31 -140.07 -4.74 2.14c-21.87,150.92 -79.9,248.15 -174.07,290.71 -98.93,44.7 -202.29,29 -309.69,-47.3 -107.23,-75.95 -200.28,-200.66 -278.6,-373.98 -77.79,-172.13 -109.16,-323.79 -93.91,-454.56 15.81,-130.58 74.07,-218.85 174.97,-264.45 92.2,-41.66 200.83,-26.91 325.76,43.88l-312.22 -690.91zm493.56 1092.15c-79.41,-175.69 -161.26,-244.01 -246.35,-205.57 -87.45,39.53 -88.95,152.18 -4.73,338.57 37.39,82.71 78.05,141.04 121.96,175.99 44.12,34.38 86.77,42.28 128.71,23.31 38.37,-17.34 58.13,-54.85 58.89,-113.31 0.9,-58.08 -18.78,-131.16 -58.47,-219zm1292.88 -452.37l262.13 -168.82c92.24,253.08 38.63,444.11 -161.08,572.73 -124.85,80.39 -254,96.43 -387.77,48.29 -133.91,-47.54 -254.47,-155.32 -361.9,-322.15 -100.16,-155.54 -144.2,-303.31 -131.61,-444.15 12.23,-140.63 78.88,-249.65 199.35,-327.23 72.66,-46.78 156.97,-69.06 253.3,-67.07 95.96,2.27 183.68,30.98 262.54,86.08 78.85,55.1 171.96,161.95 279.29,320.62l-518.77 334.09c98.65,143.57 186.2,190.49 263.25,140.87 26.27,-16.94 43.89,-41.69 51.88,-74.21 8.35,-32.76 4.77,-65.58 -10.6,-99.06zm-409.01 -139.47l225.63 -145.29c-46.62,-67.6 -89.03,-112.58 -127.58,-134.75 -38.56,-22.18 -76.16,-21.21 -113.4,2.77 -41.25,26.56 -60.48,61.67 -57.67,105.32 2.78,43.67 27.18,100.76 73.03,171.96zm147.37 -1423.1l291.05 -228.41 1106.67 1410.13 -291.05 228.41 -1106.67 -1410.13zm739.47 -247.89c-37.55,-39.19 -55.59,-85.65 -54.44,-139.68 1.16,-54.02 20.85,-99.37 59.42,-136.32 39.18,-37.55 85.95,-55.9 139.98,-54.75 54.03,1.16 99.67,21.17 137.23,60.36 36.96,38.57 55.01,85.02 54.16,139.37 -0.86,54.35 -21.18,100.28 -60.37,137.83 -37.94,36.37 -84.07,54.12 -138.42,52.65 -54.63,-1.17 -100.6,-20.88 -137.56,-59.45zm250.59 246.42l267.14 -255.97 809.68 844.96 -267.13 255.98 -809.69 -844.97zm805.43 -819.41l119.75 104.49 4.29 -4.91c-42.34,-151.61 -22.35,-274.24 59.57,-368.15 53.39,-61.18 116.22,-92.24 188.8,-92.87 72.31,-0.28 143.32,29.95 213.01,90.75l683.5 596.4 -243.22 278.78 -543.49 -474.21c-30.1,-26.27 -60.92,-40.48 -92.5,-43.25 -31.24,-2.49 -56.77,6.95 -76.48,29.53 -51.67,59.22 -40.02,121.83 34.58,186.91l533.98 465.93 -242.67 278.14 -881.8 -769.42 242.67 -278.11zm1888.34 -564.29l-140.64 -89.57c50.65,117.72 49.14,218.72 -4.05,302.21 -67.4,105.85 -164.22,160.03 -289.81,162.42 -125.6,2.38 -269.16,-47.87 -431.03,-150.96 -157.88,-100.54 -263.84,-208.2 -317.55,-322.71 -53.47,-114.9 -48.84,-221.6 14.61,-321.23 56.45,-88.63 148.71,-134.88 276.83,-138.78l2.8 -4.4 -104.02 -66.24 198.74 -312.05 914.21 582.23c83.5,53.18 153.64,118.46 209.84,195.95 56.19,77.5 81.81,167.41 77.2,270.03 -4.96,102.37 -36.21,198.31 -93.13,287.69 -56.92,89.36 -134.37,158.44 -232.51,206.62 -98.14,48.2 -210.77,48.02 -338.01,0.46l177.74 -279.11c70.35,-0.51 121.04,-24.32 151.6,-72.3 26.12,-41.03 31.7,-85.35 17.57,-133.49 -13.53,-48.26 -43.87,-87.13 -90.38,-116.77zm-518.26 -330.06c-159.7,-101.72 -265.21,-112.29 -316.06,-32.43 -25.19,39.56 -25.61,83.06 -1.25,130.48 23.76,47.57 70.01,92.98 138.87,136.85 180.21,114.75 296.89,130.39 350.3,46.51 51.8,-81.32 -5.22,-175.28 -171.86,-281.41z"/>
   <path class="fil7" d="M3728.52 8222.54l-308.21 -174.84 487.82 -859.92c23.67,-41.75 58.91,-69.65 106.74,-81.3 47.04,-14.53 91.61,-8.65 134.7,15.8 42.2,23.94 70.12,59.16 83.15,107.78 13.15,46.25 7.29,90.82 -16.38,132.54l-487.82 859.94zm-1235.9 229.46l1805.15 1024.02 399.38 -704 -440.29 -249.75 587.72 -1036.05c216.04,-369.1 80.68,-863.56 -294.87,-1069.32 -370.65,-217.53 -862.7,-78.99 -1070.02,295.04l-987.07 1740.06zm2990.87 -4124.14c-593.35,508.5 -933.32,1095.37 -420.87,1690.91l97.89 114.7c506.61,598.42 1140.63,356.07 1736.04,-150.05 592.54,-507.83 931.09,-1095.57 420.08,-1690.22l-97.92 -114.71c-509.01,-596.38 -1140.85,-357.95 -1735.23,149.37zm1184.24 452.63c224.06,255.19 50.36,484.59 -198.39,702.43 -255.38,212.43 -509.22,347.96 -726.05,86.6l-33.2 -38.89c-223.02,-254 -49.31,-483.39 200.61,-702.24 254.21,-211.44 508.02,-346.96 723.83,-86.8l33.2 38.9zm2995.28 -455.1l-530.82 -1314.18 892.24 -360.38 -246.46 -610.16 -2534.98 1023.93 246.45 610.14 892.26 -360.39 530.82 1314.17 750.49 -303.13zm2379.87 -2565.6c-781.39,7.76 -1419.17,238.49 -1409.82,1024.08l1.18 150.81c3.04,784.06 644.41,1006.26 1425.82,1001.67 780.36,-7.76 1417.61,-240.06 1408.77,-1024.07l-1.18 -150.8c-6.19,-784.05 -643.36,-1007.85 -1424.78,-1001.69zm615.69 1108.27c7.43,339.51 -273.11,403.44 -603.68,410.25 -332.21,-1.58 -613.73,-61.05 -611.67,-400.64l-0.41 -51.15c-7.41,-337.92 273.15,-401.85 605.27,-408.7 330.65,1.6 612.16,61.08 610.08,399.09l0.42 51.15zm1105.31 926.82l757.78 284.42 389.65 -1038.17 369.6 1323.13 378.64 142.1 1149.39 -753.03 -389.65 1038.17 757.75 284.4 730.38 -1945.99 -947.32 -355.55 -1124.44 688.03 -393.07 -1257.59 -948.32 -355.93 -730.39 1946zm5630.44 1421.87l-212.8 641.52 -415.38 -390.33 628.19 -251.19zm-2171.97 -18.61l664 623.94 362.13 -145.94 757.39 711.69 -123.14 370.5 663.99 623.94 609.62 -2275.04 -701.25 -658.94 -2232.74 749.85zm3898.16 3497.58c-214.42,33.4 -368.97,-146.45 -502.59,-390.09 -155.27,-291.9 -235.83,-568.24 63.25,-726.85l44.38 -24.34c297.32,-168.46 484.22,49.57 646.88,337.42 133.61,243.65 202.81,468.5 60.15,632.73l399.06 727.71c587.53,-380.52 475.93,-1020.51 117.77,-1676.85 -377.24,-681.34 -883.45,-1136.2 -1568.96,-756.67l-132.68 72.77c-690.85,375.26 -579.93,1046.89 -206.82,1730.5 359.51,655.59 839.6,1093.5 1478.62,801.39l-399.05 -727.71z"/>
   <polygon class="fil1" points="2808.65,12134.46 3082.88,13114.7 4108.1,13149.8 3252.55,13716.61 3530.6,14695.77 2727.6,14065.84 1874.24,14635.89 2233.5,13679.76 1428.05,13052.92 2453.09,13091.94 "/>
   <polygon class="fil8 str0" points="2808.65,12134.46 3082.88,13114.7 4108.1,13149.8 3252.55,13716.61 3530.6,14695.77 2727.6,14065.84 1874.24,14635.89 2233.5,13679.76 1428.05,13052.92 2453.09,13091.94 "/>
   <polygon class="fil1" points="22352.3,12186.58 22626.53,13166.82 23651.75,13201.92 22796.2,13768.73 23074.24,14747.89 22271.25,14117.96 21417.89,14688.01 21777.15,13731.89 20971.7,13105.04 21996.73,13144.06 "/>
   <polygon class="fil8 str0" points="22352.3,12186.58 22626.53,13166.82 23651.75,13201.92 22796.2,13768.73 23074.24,14747.89 22271.25,14117.96 21417.89,14688.01 21777.15,13731.89 20971.7,13105.04 21996.73,13144.06 "/>
  </g>
 </g>
</svg>
