<?xml version="1.0" encoding="UTF-8"?>
<!DOCTYPE svg PUBLIC "-//W3C//DTD SVG 1.1//EN" "http://www.w3.org/Graphics/SVG/1.1/DTD/svg11.dtd">
<!-- Creator: CorelDRAW -->
<svg xmlns="http://www.w3.org/2000/svg" xml:space="preserve" width="3.28007in" height="1.48401in" version="1.1" style="shape-rendering:geometricPrecision; text-rendering:geometricPrecision; image-rendering:optimizeQuality; fill-rule:evenodd; clip-rule:evenodd"
viewBox="0 0 775.92 351.05"
 xmlns:xlink="http://www.w3.org/1999/xlink"
 xmlns:xodm="http://www.corel.com/coreldraw/odm/2003">
 <defs>
  <style type="text/css">
   <![CDATA[
    .fil0 {fill:white}
    .fil4 {fill:#FEFEFE;fill-rule:nonzero}
    .fil2 {fill:#373435;fill-rule:nonzero}
    .fil1 {fill:#FBB24A;fill-rule:nonzero}
    .fil3 {fill:#F58848;fill-rule:nonzero}
   ]]>
  </style>
 </defs>
 <g id="Capa_x0020_1">
  <metadata id="CorelCorpID_0Corel-Layer"/>
  <g id="_1658574389408">
   <path class="fil0" d="M585.22 27.59l190.7 259.71 -11.05 6.18 -0.14 4.64c-0.03,1.08 -0.07,2.16 -0.09,3.23 -0.02,0.76 -0.03,1.52 -0.03,2.28 0,0.23 -0,0.48 0.01,0.71l1.07 9.94 -2.73 0.73c0.54,0.83 1.03,1.69 1.48,2.58 1.54,3.05 2.32,6.38 2.32,9.8 0,3.44 -0.71,6.81 -2.19,9.92 -1.49,3.13 -3.67,5.81 -6.39,7.95 -2.64,2.08 -5.68,3.53 -8.9,4.47 -3.23,0.94 -6.6,1.32 -9.96,1.32 -2.31,0 -4.67,-0.1 -6.95,-0.5 -0.49,-0.08 -0.98,-0.18 -1.47,-0.28l-23.89 0 -21.35 0 -2.05 0 -37.43 0 -31.03 0c-2.39,0.47 -4.81,0.72 -7.27,0.72 -2.25,0 -4.47,-0.24 -6.64,-0.72l-30.87 0 -39.77 -0 -17.69 0 -39.84 0 -8 0 -67.34 0 -5.45 0 -14.97 0c-0.11,0 -0.22,-0 -0.33,0l-39.77 -0 -33.37 0c-2.39,0.47 -4.81,0.72 -7.26,0.72 -2.25,0 -4.47,-0.24 -6.64,-0.72l-37.63 0 -39.84 0 -33.91 0c-2.57,0.55 -5.2,0.78 -7.83,0.78 -2.31,0 -4.67,-0.1 -6.95,-0.5 -0.49,-0.08 -0.98,-0.18 -1.47,-0.28l-18.43 0 -54.2 0 -19.27 0 -17.81 0 -5.54 0 -46.68 0 0 -24.15 6.22 -1.22 0 -33.19 -6.22 -1.11 0 -4.68 -0.39 0 0 -24.16 6.22 -1.22 0 -33.19 -6.22 -1.11 0 -24.33 5.5 0 0 -38.05 162.63 0 140.92 -150.59 7.67 -8.2 4.74 -5.07 5.05 4.73 8.21 7.68 133.99 125.4 84.24 -114.65 15 -19.54 17.26 23.97z"/>
   <g>
    <path class="fil1" d="M323.3 101.16c-16.63,17.75 -33.26,35.52 -49.89,53.27 35.55,-0.06 71.1,-0.14 106.65,-0.2 -18.92,-17.69 -37.83,-35.38 -56.75,-53.07z"/>
    <polygon class="fil1" points="577.71,180.77 602.62,180.77 602.62,209.08 577.71,209.08 "/>
    <polygon class="fil1" points="549.65,180.77 574.56,180.77 574.56,209.08 549.65,209.08 "/>
    <polygon class="fil1" points="577.71,212.18 602.62,212.18 602.62,264.59 577.71,264.59 "/>
    <polygon class="fil1" points="549.58,212.18 574.49,212.18 574.49,264.59 549.58,264.59 "/>
    <path class="fil2" d="M34.86 271.48l0 2.6 -23.03 0 0 -2.6 5.2 -1.02c0.06,-0.06 0.24,-0.48 0.55,-1.25 0.31,-0.77 0.47,-1.75 0.47,-2.92l0 -44.85c0,-0.56 -0.06,-1.09 -0.19,-1.59 -0.12,-0.49 -0.25,-0.93 -0.37,-1.29 -0.19,-0.44 -0.34,-0.87 -0.46,-1.3l-5.2 -0.93 0 -2.6 22.28 0c2.97,0 5.81,0.23 8.5,0.7 2.69,0.46 5.06,1.27 7.1,2.41 2.04,1.15 3.67,2.7 4.88,4.64 1.21,1.95 1.81,4.41 1.81,7.38 0,3.22 -0.65,5.93 -1.95,8.13 -1.3,2.2 -3.05,3.99 -5.24,5.38 -2.2,1.39 -4.71,2.4 -7.52,3.02 -2.82,0.62 -5.71,0.93 -8.68,0.93 -0.56,-0.68 -0.96,-1.3 -1.21,-1.86 -0.13,-0.25 -0.19,-0.49 -0.19,-0.74 2.1,-0.24 4.02,-0.6 5.76,-1.07 1.73,-0.46 3.22,-1.22 4.46,-2.28 1.24,-1.05 2.2,-2.46 2.88,-4.22 0.68,-1.76 1.02,-4.1 1.02,-7.01 0,-3.34 -0.98,-6.13 -2.93,-8.36 -1.95,-2.23 -4.88,-3.34 -8.77,-3.34l-5.48 0 0 48.85c0,1.17 0.15,2.17 0.46,2.97 0.19,0.43 0.37,0.84 0.56,1.21l5.29 1.02z"/>
    <path class="fil2" d="M90.78 272.26l0 1.82 -16.12 0 0 -1.82 3.64 -0.71c0.04,-0.04 0.17,-0.34 0.39,-0.88 0.22,-0.54 0.33,-1.22 0.33,-2.05l0 -31.4c0,-0.39 -0.04,-0.76 -0.13,-1.11 -0.09,-0.34 -0.17,-0.65 -0.26,-0.91 -0.13,-0.31 -0.24,-0.61 -0.33,-0.91l-3.64 -0.65 0 -1.82 15.6 0c2.34,0 4.46,0.19 6.37,0.55 1.91,0.37 3.54,0.97 4.91,1.79 1.36,0.82 2.42,1.91 3.18,3.25 0.76,1.34 1.14,3.01 1.14,5.01 0,1.91 -0.42,3.5 -1.27,4.77 -0.84,1.28 -1.84,2.31 -2.99,3.09 -1.15,0.78 -2.29,1.36 -3.41,1.72 -1.13,0.37 -1.97,0.61 -2.54,0.75 1.08,0.39 2.04,0.99 2.86,1.79 0.83,0.8 1.56,1.72 2.21,2.73 0.65,1.02 1.23,2.11 1.72,3.28 0.5,1.17 0.99,2.32 1.46,3.44 0.39,1 0.8,1.98 1.24,2.96 0.43,0.97 0.91,1.85 1.43,2.63 0.52,0.78 1.08,1.42 1.69,1.92 0.6,0.5 1.26,0.74 1.95,0.74l-0.65 1.82 -6.63 0c-1.3,0 -2.36,-0.5 -3.18,-1.5 -0.83,-1 -1.53,-2.23 -2.11,-3.7 -0.58,-1.47 -1.11,-3.08 -1.56,-4.84 -0.45,-1.75 -0.96,-3.37 -1.53,-4.84 -0.56,-1.47 -1.23,-2.71 -2.02,-3.71 -0.78,-0.99 -1.75,-1.49 -2.92,-1.49l-1.11 -2.15c1.22,-0.08 2.42,-0.32 3.61,-0.71 1.19,-0.39 2.25,-0.95 3.19,-1.69 0.93,-0.74 1.68,-1.67 2.24,-2.79 0.56,-1.13 0.85,-2.47 0.85,-4.03 0,-1.17 -0.21,-2.25 -0.62,-3.25 -0.41,-1 -0.99,-1.87 -1.72,-2.6 -0.74,-0.74 -1.66,-1.33 -2.77,-1.76 -1.1,-0.43 -2.33,-0.65 -3.67,-0.65l-3.25 0 0 34.26c0,0.83 0.11,1.52 0.33,2.08 0.13,0.3 0.26,0.58 0.39,0.84l3.7 0.71z"/>
    <path class="fil2" d="M155.2 267.06c-0.13,0.73 -0.26,1.5 -0.39,2.28 -0.09,0.69 -0.16,1.44 -0.23,2.24 -0.06,0.8 -0.09,1.63 -0.09,2.5l-30.55 0 0 -1.75 3.58 -0.72c0.04,-0.04 0.17,-0.33 0.39,-0.88 0.21,-0.54 0.32,-1.22 0.32,-2.05l0 -31.4c0,-0.39 -0.05,-0.76 -0.13,-1.1 -0.08,-0.35 -0.17,-0.65 -0.26,-0.91 -0.13,-0.3 -0.24,-0.61 -0.32,-0.91l-3.58 -0.84 0 -1.69 27.56 0c0.04,0.96 0.13,1.92 0.26,2.9 0.13,0.97 0.26,1.85 0.39,2.63 0.18,0.91 0.35,1.79 0.52,2.66 -0.57,0 -1.03,-0.02 -1.4,-0.07 -0.37,-0.04 -0.66,-0.11 -0.87,-0.19 -0.26,-0.09 -0.48,-0.2 -0.65,-0.33 -0.09,-0.35 -0.19,-0.71 -0.33,-1.1 -0.22,-0.69 -0.52,-1.3 -0.91,-1.82 -0.31,-0.43 -0.7,-0.78 -1.2,-1.04 -0.5,-0.26 -1.02,-0.47 -1.56,-0.62 -0.54,-0.15 -1.07,-0.26 -1.6,-0.33 -0.52,-0.06 -0.97,-0.1 -1.36,-0.1l-7.15 0 0 16.12 8.84 0c0.91,0 1.47,-0.52 1.69,-1.56 0.22,-1.04 0.37,-2.45 0.45,-4.22l2.21 0.33 0 13.39 -2.21 0.07c-0.09,-1.6 -0.25,-2.92 -0.49,-3.94 -0.24,-1.02 -0.79,-1.53 -1.66,-1.53l-8.84 0 0 18.46 10.07 0c0.39,0 0.85,-0.02 1.4,-0.07 0.54,-0.04 1.09,-0.12 1.66,-0.23 0.56,-0.11 1.1,-0.28 1.59,-0.52 0.5,-0.24 0.9,-0.57 1.2,-1.01 0.39,-0.52 0.65,-1.17 0.78,-1.95 0.09,-0.39 0.15,-0.8 0.19,-1.24l2.67 0.52z"/>
    <path class="fil2" d="M175.48 240.28c0,0.74 0.21,1.47 0.62,2.21 0.41,0.73 0.96,1.46 1.66,2.17 0.69,0.72 1.48,1.41 2.37,2.08 0.89,0.67 1.81,1.33 2.76,1.99 1.3,0.86 2.62,1.8 3.97,2.79 1.34,1 2.54,2.08 3.61,3.25 1.06,1.17 1.94,2.44 2.63,3.8 0.69,1.36 1.04,2.85 1.04,4.45 0,1.78 -0.35,3.39 -1.04,4.85 -0.7,1.45 -1.7,2.7 -3.02,3.73 -1.32,1.04 -2.95,1.84 -4.88,2.41 -1.93,0.56 -4.15,0.84 -6.66,0.84 -2.04,0 -3.69,-0.11 -4.94,-0.32 -1.26,-0.22 -2.25,-0.48 -2.99,-0.78 -0.82,-0.35 -1.45,-0.74 -1.89,-1.17 0,-1.17 0.02,-2.3 0.07,-3.38 0,-0.86 0.01,-1.75 0.03,-2.63 0.02,-0.89 -0.01,-1.51 -0.1,-1.86 0.47,-0.04 0.91,-0.04 1.3,0 0.39,0.05 0.69,0.11 0.91,0.2 0.26,0.09 0.48,0.19 0.65,0.32 0.04,0.52 0.17,1.18 0.39,1.98 0.22,0.8 0.6,1.58 1.14,2.34 0.54,0.76 1.27,1.39 2.21,1.92 0.93,0.52 2.15,0.78 3.67,0.78 2.25,0 4.04,-0.71 5.36,-2.15 1.32,-1.43 1.98,-3.25 1.98,-5.46 0,-1.21 -0.25,-2.32 -0.75,-3.31 -0.5,-1 -1.16,-1.93 -1.98,-2.8 -0.82,-0.87 -1.76,-1.68 -2.83,-2.44 -1.06,-0.76 -2.13,-1.53 -3.22,-2.31 -1.17,-0.78 -2.32,-1.59 -3.44,-2.44 -1.13,-0.84 -2.13,-1.73 -2.99,-2.67 -0.87,-0.93 -1.57,-1.93 -2.11,-2.99 -0.54,-1.06 -0.81,-2.2 -0.81,-3.41 0,-1.78 0.43,-3.36 1.3,-4.74 0.87,-1.39 1.98,-2.57 3.35,-3.54 1.36,-0.97 2.9,-1.71 4.61,-2.21 1.71,-0.5 3.43,-0.74 5.17,-0.74 1.64,0 3.06,0.12 4.25,0.36 1.19,0.24 2.18,0.51 2.96,0.81 0.91,0.34 1.67,0.73 2.27,1.17 -0.04,1.34 -0.08,2.45 -0.09,3.31 -0.02,0.87 -0.03,1.72 -0.03,2.57 0,0.84 0.02,1.46 0.06,1.86 -0.48,0.13 -0.91,0.18 -1.3,0.16 -0.39,-0.02 -0.71,-0.08 -0.97,-0.16 -0.31,-0.09 -0.59,-0.22 -0.85,-0.39 0,-0.82 -0.11,-1.65 -0.32,-2.47 -0.22,-0.82 -0.6,-1.57 -1.14,-2.24 -0.54,-0.67 -1.3,-1.22 -2.28,-1.62 -0.97,-0.41 -2.22,-0.62 -3.74,-0.62 -1.6,0 -3,0.51 -4.19,1.53 -1.19,1.02 -1.79,2.67 -1.79,4.97z"/>
    <path class="fil2" d="M244.45 231.83c0,0.87 0.03,1.72 0.1,2.57 0.06,0.84 0.14,1.59 0.23,2.24 0.13,0.78 0.26,1.52 0.39,2.21 -0.82,0.3 -1.52,0.52 -2.08,0.65 -0.31,0.08 -0.57,0.13 -0.78,0.13 -0.04,-0.43 -0.11,-0.85 -0.19,-1.24 -0.09,-0.34 -0.17,-0.69 -0.26,-1.04 -0.09,-0.35 -0.24,-0.63 -0.45,-0.84 -0.61,-0.87 -1.44,-1.43 -2.5,-1.69 -1.06,-0.26 -2.24,-0.39 -3.54,-0.39l-6.18 0 0 34.25c0,0.82 0.11,1.52 0.33,2.08 0.13,0.31 0.26,0.59 0.39,0.85l3.77 0.71 0 1.75 -16.18 0 0 -1.75c-0.09,0 -0.05,-0.02 0.13,-0.07 0.18,-0.04 0.52,-0.12 1.04,-0.23 0.52,-0.11 1.3,-0.25 2.34,-0.42 0.05,-0.05 0.18,-0.34 0.39,-0.88 0.21,-0.54 0.33,-1.23 0.33,-2.05l0 -34.25 -6.17 0c-1.34,0 -2.51,0.13 -3.51,0.39 -1,0.26 -1.8,0.83 -2.41,1.69 -0.22,0.21 -0.36,0.5 -0.42,0.84 -0.06,0.35 -0.14,0.7 -0.23,1.04 -0.09,0.39 -0.13,0.81 -0.13,1.24 -0.26,0 -0.56,-0.05 -0.91,-0.13 -0.31,-0.09 -0.64,-0.16 -1.01,-0.23 -0.37,-0.07 -0.73,-0.19 -1.07,-0.36 0.09,-0.69 0.19,-1.43 0.33,-2.21 0.09,-0.65 0.17,-1.39 0.26,-2.24 0.08,-0.84 0.13,-1.72 0.13,-2.63l37.9 0z"/>
    <path class="fil2" d="M276.49 272.26l0 1.82 -16.12 0 0 -1.82 3.64 -0.71c0.04,-0.04 0.17,-0.34 0.39,-0.88 0.22,-0.54 0.33,-1.22 0.33,-2.05l0 -31.4c0,-0.39 -0.04,-0.76 -0.13,-1.11 -0.09,-0.34 -0.17,-0.65 -0.26,-0.91 -0.13,-0.31 -0.24,-0.61 -0.33,-0.91l-3.64 -0.65 0 -1.82 16.12 0 0 1.82 -3.77 0.71c-0.13,0.26 -0.24,0.54 -0.33,0.85 -0.22,0.56 -0.33,1.23 -0.33,2.01l0 31.4c0,0.83 0.11,1.52 0.33,2.08 0.13,0.3 0.26,0.58 0.39,0.84l3.7 0.71z"/>
    <path class="fil2" d="M332.46 256.21l0.19 1.63c-0.22,0.08 -0.5,0.17 -0.84,0.26 -0.35,0.09 -0.7,0.17 -1.04,0.26 -0.43,0.13 -0.85,0.21 -1.24,0.26l0 13.26c-1.17,0.56 -2.49,1.06 -3.96,1.49 -1.3,0.35 -2.86,0.68 -4.68,0.98 -1.82,0.3 -3.9,0.46 -6.24,0.46 -3.38,0 -6.54,-0.57 -9.49,-1.72 -2.95,-1.15 -5.52,-2.71 -7.71,-4.68 -2.19,-1.97 -3.92,-4.29 -5.2,-6.95 -1.28,-2.67 -1.92,-5.51 -1.92,-8.55 0,-3.03 0.64,-5.88 1.92,-8.55 1.27,-2.67 3.01,-4.98 5.2,-6.96 2.19,-1.97 4.76,-3.53 7.71,-4.68 2.94,-1.15 6.11,-1.72 9.49,-1.72 2.47,0 4.88,0.34 7.22,1.01 2.34,0.67 4.48,1.61 6.43,2.83 -0.09,0.05 -0.19,0.44 -0.29,1.17 -0.11,0.73 -0.21,1.59 -0.29,2.57 -0.08,0.98 -0.14,1.94 -0.16,2.89 -0.02,0.95 0.05,1.62 0.23,2.01 -0.34,0 -0.69,-0.02 -1.04,-0.07 -0.3,-0.04 -0.61,-0.1 -0.94,-0.16 -0.32,-0.06 -0.66,-0.16 -1,-0.29 -0.26,-1.69 -0.8,-3.22 -1.63,-4.61 -0.35,-0.56 -0.78,-1.13 -1.3,-1.69 -0.52,-0.56 -1.15,-1.06 -1.89,-1.5 -0.74,-0.43 -1.59,-0.78 -2.57,-1.04 -0.97,-0.26 -2.07,-0.39 -3.28,-0.39 -2.29,0 -4.4,0.5 -6.31,1.5 -1.91,1 -3.55,2.35 -4.94,4.06 -1.39,1.71 -2.47,3.74 -3.25,6.07 -0.78,2.35 -1.17,4.86 -1.17,7.54 0,2.69 0.39,5.19 1.17,7.51 0.78,2.32 1.86,4.35 3.25,6.11 1.39,1.75 3.03,3.13 4.94,4.12 1.91,1 4.01,1.5 6.31,1.5 0.7,0 1.51,-0.07 2.44,-0.19 0.94,-0.13 1.81,-0.33 2.64,-0.58 0.82,-0.26 1.52,-0.55 2.08,-0.88 0.56,-0.33 0.84,-0.68 0.84,-1.07l0 -7.8c0,-1.43 -0.29,-2.33 -0.88,-2.7 -0.58,-0.37 -1.68,-0.51 -3.28,-0.42l0 -2.28 14.49 0z"/>
    <path class="fil2" d="M376.07 267.06c-0.13,0.73 -0.26,1.5 -0.39,2.28 -0.09,0.69 -0.16,1.44 -0.23,2.24 -0.07,0.8 -0.1,1.63 -0.1,2.5l-30.55 0 0 -1.75 3.58 -0.72c0.04,-0.04 0.17,-0.33 0.39,-0.88 0.21,-0.54 0.32,-1.22 0.32,-2.05l0 -31.4c0,-0.39 -0.05,-0.76 -0.13,-1.1 -0.08,-0.35 -0.17,-0.65 -0.26,-0.91 -0.13,-0.3 -0.24,-0.61 -0.32,-0.91l-3.58 -0.84 0 -1.69 27.56 0c0.04,0.96 0.13,1.92 0.26,2.9 0.13,0.97 0.26,1.85 0.39,2.63 0.17,0.91 0.35,1.79 0.52,2.66 -0.57,0 -1.03,-0.02 -1.4,-0.07 -0.37,-0.04 -0.66,-0.11 -0.87,-0.19 -0.26,-0.09 -0.48,-0.2 -0.65,-0.33 -0.09,-0.35 -0.19,-0.71 -0.32,-1.1 -0.22,-0.69 -0.52,-1.3 -0.91,-1.82 -0.31,-0.43 -0.7,-0.78 -1.2,-1.04 -0.5,-0.26 -1.02,-0.47 -1.56,-0.62 -0.54,-0.15 -1.07,-0.26 -1.59,-0.33 -0.52,-0.06 -0.98,-0.1 -1.36,-0.1l-7.15 0 0 16.12 8.84 0c0.91,0 1.47,-0.52 1.69,-1.56 0.22,-1.04 0.37,-2.45 0.45,-4.22l2.21 0.33 0 13.39 -2.21 0.07c-0.09,-1.6 -0.25,-2.92 -0.48,-3.94 -0.24,-1.02 -0.8,-1.53 -1.66,-1.53l-8.84 0 0 18.46 10.07 0c0.39,0 0.85,-0.02 1.4,-0.07 0.54,-0.04 1.09,-0.12 1.66,-0.23 0.56,-0.11 1.1,-0.28 1.59,-0.52 0.5,-0.24 0.9,-0.57 1.2,-1.01 0.39,-0.52 0.65,-1.17 0.78,-1.95 0.09,-0.39 0.15,-0.8 0.2,-1.24l2.66 0.52z"/>
    <path class="fil2" d="M35.24 335.84l0 2.6 -23.03 0 0 -2.6 5.2 -1.02c0.06,-0.06 0.24,-0.48 0.56,-1.25 0.31,-0.78 0.46,-1.75 0.46,-2.93l0 -44.85c0,-0.56 -0.06,-1.08 -0.19,-1.58 -0.12,-0.49 -0.25,-0.93 -0.37,-1.29 -0.19,-0.43 -0.34,-0.87 -0.46,-1.3l-5.2 -0.93 0 -2.6 22.29 0c3.34,0 6.37,0.26 9.1,0.79 2.72,0.53 5.06,1.38 7.01,2.56 1.95,1.18 3.47,2.73 4.55,4.64 1.08,1.92 1.62,4.3 1.62,7.15 0,2.73 -0.6,5 -1.81,6.82 -1.21,1.83 -2.63,3.3 -4.27,4.41 -1.64,1.11 -3.27,1.94 -4.87,2.46 -1.61,0.52 -2.82,0.88 -3.62,1.07 1.55,0.56 2.91,1.41 4.09,2.56 1.17,1.14 2.23,2.45 3.15,3.9 0.93,1.45 1.75,3.02 2.46,4.69 0.71,1.67 1.41,3.31 2.09,4.92 0.56,1.42 1.14,2.83 1.76,4.23 0.62,1.39 1.3,2.64 2.04,3.76 0.74,1.11 1.54,2.03 2.41,2.74 0.87,0.71 1.8,1.07 2.78,1.07l-0.93 2.6 -9.47 0c-1.86,0 -3.38,-0.71 -4.55,-2.14 -1.18,-1.42 -2.18,-3.19 -3.02,-5.29 -0.83,-2.1 -1.58,-4.41 -2.23,-6.92 -0.65,-2.51 -1.37,-4.81 -2.18,-6.92 -0.8,-2.1 -1.76,-3.86 -2.87,-5.29 -1.12,-1.42 -2.51,-2.14 -4.18,-2.14l-1.58 -3.06c1.73,-0.13 3.45,-0.47 5.15,-1.02 1.7,-0.56 3.22,-1.36 4.55,-2.42 1.33,-1.05 2.4,-2.38 3.2,-3.99 0.8,-1.61 1.21,-3.53 1.21,-5.76 0,-1.67 -0.29,-3.22 -0.88,-4.64 -0.59,-1.42 -1.41,-2.66 -2.46,-3.71 -1.05,-1.05 -2.37,-1.89 -3.95,-2.51 -1.58,-0.62 -3.33,-0.93 -5.24,-0.93l-4.64 0 0 48.94c0,1.18 0.15,2.17 0.46,2.97 0.19,0.43 0.37,0.84 0.56,1.21l5.29 1.02z"/>
    <path class="fil2" d="M132.78 331.42c-0.13,0.73 -0.26,1.49 -0.39,2.28 -0.09,0.69 -0.16,1.44 -0.23,2.24 -0.06,0.8 -0.09,1.63 -0.09,2.5l-30.55 0 0 -1.76 3.57 -0.71c0.04,-0.04 0.17,-0.33 0.39,-0.88 0.22,-0.54 0.33,-1.22 0.33,-2.05l0 -31.4c0,-0.39 -0.05,-0.76 -0.13,-1.1 -0.09,-0.35 -0.17,-0.65 -0.26,-0.91 -0.13,-0.3 -0.24,-0.61 -0.33,-0.91l-3.57 -0.84 0 -1.69 27.56 0c0.04,0.95 0.12,1.92 0.26,2.89 0.13,0.98 0.26,1.85 0.39,2.64 0.17,0.91 0.35,1.8 0.52,2.66 -0.57,0 -1.03,-0.02 -1.4,-0.07 -0.37,-0.04 -0.66,-0.11 -0.88,-0.19 -0.26,-0.09 -0.48,-0.19 -0.65,-0.32 -0.09,-0.35 -0.19,-0.72 -0.33,-1.1 -0.22,-0.69 -0.52,-1.3 -0.91,-1.82 -0.31,-0.43 -0.71,-0.78 -1.2,-1.04 -0.5,-0.26 -1.02,-0.47 -1.56,-0.62 -0.54,-0.15 -1.07,-0.26 -1.59,-0.32 -0.52,-0.06 -0.97,-0.1 -1.36,-0.1l-7.15 0 0 16.12 8.84 0c0.91,0 1.47,-0.52 1.69,-1.56 0.21,-1.04 0.37,-2.45 0.45,-4.23l2.21 0.32 0 13.39 -2.21 0.07c-0.09,-1.6 -0.25,-2.91 -0.49,-3.93 -0.24,-1.02 -0.79,-1.53 -1.66,-1.53l-8.84 0 0 18.46 10.08 0c0.39,0 0.85,-0.02 1.4,-0.07 0.54,-0.04 1.09,-0.12 1.66,-0.23 0.56,-0.11 1.09,-0.29 1.59,-0.52 0.5,-0.24 0.9,-0.57 1.2,-1.01 0.39,-0.52 0.65,-1.17 0.78,-1.95 0.08,-0.39 0.15,-0.8 0.19,-1.24l2.67 0.52z"/>
    <path class="fil2" d="M167.69 304.64c0,0.74 0.21,1.47 0.62,2.21 0.41,0.74 0.96,1.47 1.66,2.18 0.69,0.72 1.48,1.41 2.37,2.08 0.89,0.67 1.81,1.33 2.76,1.99 1.3,0.86 2.62,1.8 3.97,2.79 1.34,1 2.54,2.08 3.61,3.25 1.06,1.17 1.94,2.44 2.63,3.8 0.69,1.36 1.04,2.85 1.04,4.45 0,1.78 -0.35,3.39 -1.04,4.84 -0.69,1.45 -1.7,2.7 -3.02,3.74 -1.32,1.04 -2.95,1.84 -4.87,2.4 -1.93,0.56 -4.15,0.85 -6.66,0.85 -2.03,0 -3.69,-0.11 -4.94,-0.33 -1.26,-0.22 -2.25,-0.48 -2.99,-0.78 -0.83,-0.35 -1.45,-0.74 -1.89,-1.17 0,-1.17 0.02,-2.3 0.06,-3.38 0,-0.87 0.01,-1.75 0.03,-2.63 0.02,-0.89 -0.01,-1.51 -0.09,-1.86 0.48,-0.04 0.91,-0.04 1.3,0 0.39,0.05 0.7,0.11 0.91,0.19 0.26,0.09 0.48,0.2 0.65,0.33 0.04,0.52 0.17,1.18 0.39,1.98 0.22,0.8 0.6,1.58 1.14,2.34 0.54,0.76 1.28,1.39 2.21,1.92 0.93,0.52 2.15,0.78 3.67,0.78 2.25,0 4.04,-0.71 5.36,-2.15 1.32,-1.43 1.98,-3.25 1.98,-5.46 0,-1.22 -0.25,-2.32 -0.75,-3.32 -0.5,-1 -1.16,-1.93 -1.98,-2.8 -0.83,-0.86 -1.77,-1.68 -2.83,-2.43 -1.06,-0.76 -2.13,-1.53 -3.21,-2.31 -1.17,-0.78 -2.32,-1.59 -3.44,-2.44 -1.13,-0.84 -2.13,-1.73 -2.99,-2.66 -0.87,-0.93 -1.57,-1.93 -2.11,-2.99 -0.54,-1.06 -0.81,-2.2 -0.81,-3.41 0,-1.78 0.43,-3.36 1.3,-4.74 0.87,-1.39 1.98,-2.57 3.35,-3.54 1.36,-0.97 2.9,-1.71 4.61,-2.21 1.71,-0.5 3.43,-0.74 5.17,-0.74 1.64,0 3.06,0.12 4.25,0.36 1.19,0.24 2.18,0.51 2.96,0.81 0.91,0.34 1.67,0.73 2.27,1.16 -0.04,1.35 -0.08,2.45 -0.1,3.31 -0.02,0.87 -0.03,1.73 -0.03,2.57 0,0.84 0.02,1.46 0.07,1.85 -0.48,0.13 -0.91,0.19 -1.3,0.16 -0.39,-0.02 -0.71,-0.08 -0.97,-0.16 -0.31,-0.09 -0.59,-0.22 -0.85,-0.39 0,-0.82 -0.11,-1.65 -0.32,-2.47 -0.22,-0.82 -0.6,-1.57 -1.13,-2.24 -0.54,-0.67 -1.3,-1.21 -2.28,-1.63 -0.97,-0.41 -2.22,-0.61 -3.74,-0.61 -1.6,0 -3,0.51 -4.19,1.53 -1.19,1.02 -1.79,2.67 -1.79,4.97z"/>
    <path class="fil2" d="M251.28 296.19c0,0.87 0.03,1.72 0.1,2.56 0.07,0.85 0.14,1.59 0.23,2.25 0.13,0.78 0.26,1.52 0.39,2.21 -0.82,0.31 -1.52,0.52 -2.08,0.65 -0.31,0.08 -0.57,0.13 -0.78,0.13 -0.04,-0.43 -0.11,-0.85 -0.2,-1.24 -0.08,-0.34 -0.17,-0.69 -0.26,-1.04 -0.09,-0.35 -0.24,-0.63 -0.45,-0.84 -0.61,-0.87 -1.44,-1.43 -2.5,-1.69 -1.06,-0.26 -2.24,-0.39 -3.54,-0.39l-6.18 0 0 34.25c0,0.83 0.11,1.52 0.33,2.08 0.13,0.31 0.26,0.59 0.39,0.85l3.77 0.71 0 1.75 -16.18 0 0 -1.75c-0.09,0 -0.05,-0.02 0.13,-0.07 0.17,-0.04 0.52,-0.12 1.04,-0.23 0.52,-0.11 1.3,-0.25 2.34,-0.42 0.04,-0.05 0.17,-0.34 0.39,-0.88 0.22,-0.54 0.33,-1.23 0.33,-2.05l0 -34.25 -6.18 0c-1.34,0 -2.51,0.13 -3.51,0.39 -1,0.26 -1.8,0.83 -2.41,1.69 -0.22,0.21 -0.35,0.5 -0.42,0.84 -0.06,0.35 -0.14,0.7 -0.23,1.04 -0.09,0.39 -0.13,0.81 -0.13,1.24 -0.26,0 -0.57,-0.05 -0.91,-0.13 -0.31,-0.09 -0.64,-0.16 -1.01,-0.23 -0.37,-0.07 -0.73,-0.19 -1.07,-0.36 0.09,-0.69 0.19,-1.43 0.33,-2.21 0.09,-0.65 0.18,-1.39 0.26,-2.24 0.09,-0.84 0.13,-1.72 0.13,-2.63l37.9 0z"/>
    <path class="fil2" d="M311.99 316.47c0,-2.38 -0.29,-4.68 -0.88,-6.89 -0.58,-2.21 -1.46,-4.17 -2.63,-5.88 -1.17,-1.71 -2.61,-3.08 -4.32,-4.1 -1.71,-1.02 -3.7,-1.53 -5.95,-1.53 -1.91,0 -3.7,0.49 -5.37,1.46 -1.66,0.97 -3.13,2.33 -4.39,4.06 -1.26,1.73 -2.24,3.76 -2.96,6.08 -0.71,2.32 -1.07,4.8 -1.07,7.44 0,1.95 0.28,4.06 0.84,6.33 0.56,2.28 1.4,4.37 2.5,6.27 1.1,1.91 2.5,3.5 4.16,4.78 1.66,1.27 3.6,1.92 5.81,1.92 1.82,0 3.59,-0.43 5.3,-1.3 1.71,-0.87 3.23,-2.15 4.55,-3.83 1.32,-1.69 2.38,-3.78 3.19,-6.27 0.8,-2.49 1.2,-5.34 1.2,-8.55zm-12.74 -21.12c2.99,0 5.79,0.49 8.39,1.46 2.6,0.97 4.85,2.38 6.76,4.22 1.91,1.84 3.4,4.07 4.48,6.7 1.08,2.62 1.62,5.56 1.62,8.81 0,3.64 -0.7,6.87 -2.11,9.68 -1.41,2.82 -3.24,5.18 -5.49,7.08 -2.25,1.91 -4.81,3.36 -7.67,4.36 -2.86,1 -5.74,1.49 -8.65,1.49 -2.56,0 -5.05,-0.5 -7.47,-1.49 -2.43,-1 -4.6,-2.44 -6.53,-4.32 -1.93,-1.89 -3.47,-4.19 -4.64,-6.89 -1.17,-2.71 -1.76,-5.79 -1.76,-9.26 0,-3.25 0.63,-6.22 1.88,-8.91 1.26,-2.68 2.94,-4.99 5.04,-6.92 2.1,-1.93 4.55,-3.41 7.34,-4.45 2.8,-1.04 5.73,-1.56 8.81,-1.56z"/>
    <path class="fil2" d="M365.16 336.62l0 1.82 -16.12 0 0 -1.82 3.64 -0.71c0.04,-0.04 0.17,-0.34 0.39,-0.88 0.22,-0.54 0.33,-1.22 0.33,-2.05l0 -31.4c0,-0.39 -0.04,-0.76 -0.13,-1.11 -0.09,-0.35 -0.17,-0.65 -0.26,-0.91 -0.13,-0.3 -0.24,-0.6 -0.32,-0.91l-3.64 -0.65 0 -1.82 15.6 0c2.34,0 4.46,0.19 6.37,0.56 1.9,0.37 3.54,0.96 4.91,1.78 1.36,0.83 2.42,1.91 3.18,3.25 0.76,1.34 1.14,3.01 1.14,5.01 0,1.91 -0.42,3.5 -1.27,4.77 -0.84,1.28 -1.84,2.31 -2.99,3.09 -1.15,0.78 -2.29,1.36 -3.41,1.72 -1.13,0.37 -1.97,0.61 -2.54,0.75 1.08,0.39 2.04,0.99 2.86,1.78 0.83,0.81 1.56,1.72 2.21,2.73 0.65,1.02 1.23,2.12 1.72,3.29 0.5,1.17 0.99,2.32 1.46,3.44 0.39,1 0.8,1.98 1.24,2.96 0.43,0.98 0.91,1.86 1.43,2.64 0.52,0.78 1.08,1.42 1.69,1.92 0.6,0.5 1.25,0.75 1.95,0.75l-0.65 1.82 -6.63 0c-1.3,0 -2.36,-0.5 -3.18,-1.5 -0.83,-1 -1.53,-2.23 -2.11,-3.7 -0.58,-1.47 -1.11,-3.09 -1.56,-4.84 -0.45,-1.75 -0.97,-3.37 -1.53,-4.84 -0.56,-1.47 -1.23,-2.71 -2.02,-3.71 -0.78,-0.99 -1.75,-1.49 -2.93,-1.49l-1.1 -2.15c1.22,-0.08 2.42,-0.32 3.61,-0.71 1.19,-0.39 2.25,-0.95 3.18,-1.69 0.93,-0.73 1.68,-1.66 2.24,-2.79 0.56,-1.13 0.85,-2.47 0.85,-4.03 0,-1.17 -0.21,-2.25 -0.62,-3.25 -0.41,-1 -0.99,-1.87 -1.72,-2.6 -0.74,-0.74 -1.66,-1.33 -2.77,-1.76 -1.1,-0.43 -2.33,-0.65 -3.67,-0.65l-3.25 0 0 34.26c0,0.83 0.11,1.52 0.33,2.08 0.13,0.3 0.26,0.58 0.39,0.84l3.7 0.71z"/>
    <path class="fil2" d="M435.3 319.72c-0.61,-1.95 -1.24,-3.88 -1.89,-5.79 -0.57,-1.64 -1.16,-3.36 -1.79,-5.16 -0.63,-1.8 -1.2,-3.39 -1.72,-4.78 -0.91,2.64 -1.88,5.26 -2.89,7.86 -1.02,2.6 -1.98,5.23 -2.89,7.87l11.18 0zm12.48 12.48c0.3,0.78 0.58,1.42 0.84,1.92 0.26,0.5 0.57,0.91 0.94,1.23 0.37,0.33 0.83,0.58 1.4,0.78 0.56,0.19 1.32,0.36 2.28,0.49l0 1.82 -17.23 0 0 -1.76c1,0 1.86,-0.12 2.6,-0.38 0.61,-0.22 1.1,-0.58 1.49,-1.07 0.39,-0.5 0.41,-1.23 0.07,-2.18 -0.65,-1.78 -1.31,-3.58 -1.98,-5.43 -0.67,-1.84 -1.33,-3.63 -1.98,-5.36l-13 0c-0.7,1.73 -1.36,3.51 -2.01,5.33 -0.65,1.82 -1.28,3.64 -1.89,5.46 -0.26,0.78 -0.29,1.39 -0.1,1.82 0.19,0.43 0.52,0.78 0.97,1.04 0.46,0.26 1,0.44 1.63,0.52 0.63,0.08 1.23,0.15 1.79,0.19l0 1.82 -14.04 0 0 -1.82c0.56,0.08 1.15,0.02 1.75,-0.19 0.52,-0.22 1.08,-0.57 1.69,-1.07 0.6,-0.5 1.17,-1.31 1.69,-2.44 2.77,-5.85 5.35,-11.92 7.74,-18.2 2.38,-6.28 4.74,-12.39 7.08,-18.33 0.52,-0.13 1.02,-0.28 1.49,-0.45 0.44,-0.13 0.89,-0.25 1.37,-0.36 0.47,-0.11 0.91,-0.16 1.3,-0.16l14.11 36.79z"/>
    <path class="fil2" d="M511.87 296.19c0,0.87 0.03,1.72 0.1,2.56 0.06,0.85 0.14,1.59 0.23,2.25 0.13,0.78 0.26,1.52 0.39,2.21 -0.82,0.31 -1.52,0.52 -2.08,0.65 -0.3,0.08 -0.56,0.13 -0.78,0.13 -0.04,-0.43 -0.11,-0.85 -0.19,-1.24 -0.09,-0.34 -0.17,-0.69 -0.26,-1.04 -0.09,-0.35 -0.24,-0.63 -0.45,-0.84 -0.61,-0.87 -1.44,-1.43 -2.5,-1.69 -1.06,-0.26 -2.24,-0.39 -3.54,-0.39l-6.18 0 0 34.25c0,0.83 0.11,1.52 0.32,2.08 0.13,0.31 0.26,0.59 0.39,0.85l3.77 0.71 0 1.75 -16.18 0 0 -1.75c-0.09,0 -0.05,-0.02 0.13,-0.07 0.18,-0.04 0.52,-0.12 1.04,-0.23 0.52,-0.11 1.3,-0.25 2.34,-0.42 0.05,-0.05 0.18,-0.34 0.39,-0.88 0.21,-0.54 0.32,-1.23 0.32,-2.05l0 -34.25 -6.17 0c-1.34,0 -2.51,0.13 -3.51,0.39 -1,0.26 -1.8,0.83 -2.41,1.69 -0.22,0.21 -0.36,0.5 -0.42,0.84 -0.06,0.35 -0.14,0.7 -0.22,1.04 -0.09,0.39 -0.13,0.81 -0.13,1.24 -0.26,0 -0.57,-0.05 -0.91,-0.13 -0.31,-0.09 -0.64,-0.16 -1.01,-0.23 -0.37,-0.07 -0.73,-0.19 -1.07,-0.36 0.09,-0.69 0.2,-1.43 0.33,-2.21 0.09,-0.65 0.17,-1.39 0.26,-2.24 0.08,-0.84 0.13,-1.72 0.13,-2.63l37.9 0z"/>
    <path class="fil2" d="M558.54 336.62l0 1.82 -16.12 0 0 -1.82 3.64 -0.71c0.05,-0.04 0.17,-0.34 0.39,-0.88 0.22,-0.54 0.32,-1.22 0.32,-2.05l0 -31.4c0,-0.39 -0.04,-0.76 -0.13,-1.11 -0.09,-0.35 -0.17,-0.65 -0.26,-0.91 -0.13,-0.3 -0.24,-0.6 -0.33,-0.91l-3.64 -0.65 0 -1.82 16.12 0 0 1.82 -3.77 0.71c-0.13,0.26 -0.24,0.54 -0.33,0.84 -0.22,0.56 -0.33,1.23 -0.33,2.02l0 31.4c0,0.83 0.11,1.52 0.33,2.08 0.13,0.3 0.26,0.58 0.39,0.84l3.7 0.71z"/>
    <path class="fil2" d="M623.28 316.47c0,-2.38 -0.29,-4.68 -0.87,-6.89 -0.59,-2.21 -1.46,-4.17 -2.63,-5.88 -1.17,-1.71 -2.61,-3.08 -4.32,-4.1 -1.71,-1.02 -3.69,-1.53 -5.94,-1.53 -1.91,0 -3.7,0.49 -5.36,1.46 -1.67,0.97 -3.14,2.33 -4.39,4.06 -1.26,1.73 -2.25,3.76 -2.96,6.08 -0.71,2.32 -1.07,4.8 -1.07,7.44 0,1.95 0.28,4.06 0.84,6.33 0.56,2.28 1.4,4.37 2.5,6.27 1.1,1.91 2.49,3.5 4.16,4.78 1.67,1.27 3.61,1.92 5.82,1.92 1.82,0 3.58,-0.43 5.3,-1.3 1.71,-0.87 3.23,-2.15 4.55,-3.83 1.32,-1.69 2.38,-3.78 3.18,-6.27 0.8,-2.49 1.2,-5.34 1.2,-8.55zm-12.74 -21.12c2.99,0 5.79,0.49 8.39,1.46 2.6,0.97 4.85,2.38 6.76,4.22 1.91,1.84 3.4,4.07 4.48,6.7 1.08,2.62 1.63,5.56 1.63,8.81 0,3.64 -0.71,6.87 -2.11,9.68 -1.41,2.82 -3.24,5.18 -5.49,7.08 -2.26,1.91 -4.81,3.36 -7.67,4.36 -2.86,1 -5.74,1.49 -8.65,1.49 -2.56,0 -5.05,-0.5 -7.47,-1.49 -2.43,-1 -4.61,-2.44 -6.54,-4.32 -1.93,-1.89 -3.47,-4.19 -4.64,-6.89 -1.17,-2.71 -1.76,-5.79 -1.76,-9.26 0,-3.25 0.63,-6.22 1.89,-8.91 1.25,-2.68 2.93,-4.99 5.04,-6.92 2.1,-1.93 4.55,-3.41 7.34,-4.45 2.8,-1.04 5.73,-1.56 8.81,-1.56z"/>
    <path class="fil2" d="M700.18 296.19l0 1.82c-0.48,0.04 -1.01,0.08 -1.59,0.13 -0.58,0.04 -1.13,0.16 -1.62,0.35 -0.5,0.2 -0.92,0.53 -1.27,1.01 -0.35,0.48 -0.52,1.19 -0.52,2.15l0 36.79 -3.77 0 -25.35 -32.3 0 26.91c0,0.78 0.18,1.4 0.55,1.86 0.37,0.45 0.82,0.81 1.36,1.07 0.54,0.26 1.15,0.43 1.82,0.52 0.67,0.09 1.33,0.15 1.98,0.19l0 1.75 -13.78 0 0 -1.75c0.56,0 1.13,-0.02 1.72,-0.07 0.58,-0.04 1.09,-0.18 1.53,-0.42 0.43,-0.24 0.79,-0.61 1.07,-1.11 0.28,-0.5 0.42,-1.18 0.42,-2.05l0 -30.09c0,-0.83 -0.2,-1.53 -0.58,-2.12 -0.39,-0.59 -0.83,-1.07 -1.3,-1.46 -0.52,-0.48 -1.13,-0.87 -1.82,-1.17 -0.22,-0.26 -0.36,-0.5 -0.42,-0.71 -0.07,-0.22 -0.14,-0.43 -0.23,-0.65 -0.09,-0.22 -0.13,-0.43 -0.13,-0.65l8.97 0 24.63 31.46 0 -26c0,-0.78 -0.17,-1.41 -0.52,-1.88 -0.35,-0.48 -0.78,-0.84 -1.3,-1.08 -0.52,-0.24 -1.11,-0.4 -1.79,-0.49 -0.67,-0.08 -1.33,-0.15 -1.98,-0.19l0 -1.82 13.91 0z"/>
    <path class="fil2" d="M736.26 304.64c0,0.74 0.21,1.47 0.62,2.21 0.41,0.74 0.96,1.47 1.66,2.18 0.69,0.72 1.48,1.41 2.37,2.08 0.89,0.67 1.81,1.33 2.76,1.99 1.3,0.86 2.62,1.8 3.97,2.79 1.34,1 2.54,2.08 3.61,3.25 1.06,1.17 1.94,2.44 2.63,3.8 0.69,1.36 1.04,2.85 1.04,4.45 0,1.78 -0.35,3.39 -1.04,4.84 -0.69,1.45 -1.7,2.7 -3.02,3.74 -1.32,1.04 -2.95,1.84 -4.88,2.4 -1.93,0.56 -4.15,0.85 -6.66,0.85 -2.04,0 -3.69,-0.11 -4.94,-0.33 -1.26,-0.22 -2.25,-0.48 -2.99,-0.78 -0.83,-0.35 -1.45,-0.74 -1.89,-1.17 0,-1.17 0.02,-2.3 0.07,-3.38 0,-0.87 0.01,-1.75 0.03,-2.63 0.02,-0.89 -0.01,-1.51 -0.1,-1.86 0.48,-0.04 0.91,-0.04 1.3,0 0.39,0.05 0.69,0.11 0.91,0.19 0.26,0.09 0.47,0.2 0.65,0.33 0.04,0.52 0.17,1.18 0.39,1.98 0.21,0.8 0.59,1.58 1.13,2.34 0.54,0.76 1.28,1.39 2.21,1.92 0.93,0.52 2.15,0.78 3.67,0.78 2.25,0 4.04,-0.71 5.36,-2.15 1.32,-1.43 1.98,-3.25 1.98,-5.46 0,-1.22 -0.25,-2.32 -0.75,-3.32 -0.5,-1 -1.16,-1.93 -1.98,-2.8 -0.82,-0.86 -1.76,-1.68 -2.83,-2.43 -1.06,-0.76 -2.13,-1.53 -3.22,-2.31 -1.17,-0.78 -2.31,-1.59 -3.44,-2.44 -1.13,-0.84 -2.13,-1.73 -2.99,-2.66 -0.87,-0.93 -1.57,-1.93 -2.11,-2.99 -0.54,-1.06 -0.81,-2.2 -0.81,-3.41 0,-1.78 0.43,-3.36 1.3,-4.74 0.87,-1.39 1.98,-2.57 3.35,-3.54 1.36,-0.97 2.9,-1.71 4.61,-2.21 1.71,-0.5 3.43,-0.74 5.17,-0.74 1.65,0 3.07,0.12 4.26,0.36 1.19,0.24 2.18,0.51 2.96,0.81 0.91,0.34 1.67,0.73 2.28,1.16 -0.04,1.35 -0.08,2.45 -0.09,3.31 -0.02,0.87 -0.03,1.73 -0.03,2.57 0,0.84 0.02,1.46 0.06,1.85 -0.48,0.13 -0.91,0.19 -1.3,0.16 -0.39,-0.02 -0.71,-0.08 -0.98,-0.16 -0.3,-0.09 -0.58,-0.22 -0.84,-0.39 0,-0.82 -0.11,-1.65 -0.32,-2.47 -0.22,-0.82 -0.6,-1.57 -1.14,-2.24 -0.54,-0.67 -1.3,-1.21 -2.28,-1.63 -0.97,-0.41 -2.22,-0.61 -3.74,-0.61 -1.6,0 -3,0.51 -4.19,1.53 -1.19,1.02 -1.79,2.67 -1.79,4.97z"/>
    <polygon class="fil1" points="322.02,16.72 173.26,175.68 17.33,175.68 17.33,206.33 205.47,206.33 206.06,206.87 206.56,206.33 206.68,206.33 206.68,206.2 324.14,80.69 450.32,198.78 481.25,165.73 "/>
    <polygon class="fil3" points="431.91,181.55 437.01,176.11 438.49,177.5 433.39,182.94 "/>
    <polygon class="fil3" points="421.82,172.11 430.25,163.09 431.74,164.48 423.3,173.49 "/>
    <polygon class="fil3" points="411.73,162.66 416.82,157.21 418.3,158.6 413.21,164.05 "/>
    <polygon class="fil3" points="401.63,153.21 410.07,144.2 411.55,145.59 403.11,154.6 "/>
    <polygon class="fil3" points="391.54,143.77 396.63,138.32 398.11,139.71 393.02,145.15 "/>
    <polygon class="fil3" points="381.44,134.32 389.87,125.31 391.36,126.69 382.92,135.7 "/>
    <polygon class="fil3" points="371.35,124.87 376.44,119.42 377.92,120.81 372.83,126.26 "/>
    <polygon class="fil3" points="361.25,115.43 369.68,106.41 371.17,107.8 362.73,116.81 "/>
    <polygon class="fil3" points="351.16,105.98 356.25,100.53 357.74,101.92 352.64,107.36 "/>
    <polygon class="fil3" points="341.06,96.53 349.49,87.52 350.98,88.91 342.54,97.91 "/>
    <polygon class="fil3" points="300.26,88.14 301.65,86.66 310.66,95.09 309.27,96.57 "/>
    <polygon class="fil3" points="294.57,101.75 295.96,100.26 301.22,105.19 299.83,106.67 "/>
    <polygon class="fil3" points="285.12,111.85 286.51,110.36 291.77,115.28 290.38,116.77 "/>
    <polygon class="fil3" points="271.92,118.42 273.31,116.94 282.32,125.38 280.93,126.86 "/>
    <polygon class="fil3" points="266.23,132.03 267.62,130.55 272.87,135.47 271.49,136.95 "/>
    <polygon class="fil3" points="253.03,138.61 254.41,137.13 263.43,145.57 262.04,147.05 "/>
    <polygon class="fil3" points="247.34,152.22 248.72,150.74 253.98,155.66 252.59,157.14 "/>
    <polygon class="fil3" points="234.13,158.8 235.52,157.32 244.54,165.75 243.15,167.24 "/>
    <polygon class="fil3" points="228.44,172.41 229.83,170.93 235.09,175.85 233.7,177.33 "/>
    <polygon class="fil3" points="215.24,178.99 216.63,177.51 225.64,185.94 224.25,187.43 "/>
    <polygon class="fil3" points="321,16.75 323.03,16.68 325.15,80.66 323.13,80.73 "/>
    <polygon class="fil1" points="575.65,34.55 567.65,23.44 562.41,30.26 376.33,283.51 392.79,292.71 567.39,54.91 741.99,292.71 758.46,283.51 "/>
    <path class="fil2" d="M721.7 286.61l-150.53 -205.76c-1.14,-1.75 -2.28,-3.5 -3.42,-5.24 -1.27,1.76 -2.54,3.52 -3.81,5.27l-146.65 205.14 7.25 3.95 143.06 -200.12 146.88 200.78 7.21 -4.01z"/>
    <polygon class="fil4" points="347.94,124.19 324.39,152.48 324.39,102.18 323.3,101.16 323.3,101.16 322.22,102.31 322.22,152.35 300.17,125.86 298.67,127.46 321.05,154.34 325.68,154.33 349.53,125.67 "/>
   </g>
  </g>
 </g>
</svg>
