<?xml version="1.0" encoding="UTF-8"?>
<!DOCTYPE svg PUBLIC "-//W3C//DTD SVG 1.1//EN" "http://www.w3.org/Graphics/SVG/1.1/DTD/svg11.dtd">
<!-- Creator: CorelDRAW -->
<svg xmlns="http://www.w3.org/2000/svg" xml:space="preserve" width="0.905354in" height="0.905354in" version="1.1" style="shape-rendering:geometricPrecision; text-rendering:geometricPrecision; image-rendering:optimizeQuality; fill-rule:evenodd; clip-rule:evenodd"
viewBox="0 0 130.02 130.02"
 xmlns:xlink="http://www.w3.org/1999/xlink"
 xmlns:xodm="http://www.corel.com/coreldraw/odm/2003">
 <defs>
  <style type="text/css">
   <![CDATA[
    .fil0 {fill:black}
    .fil2 {fill:url(#id0)}
    .fil1 {fill:url(#id1)}
   ]]>
  </style>
  <linearGradient id="id0" gradientUnits="userSpaceOnUse" x1="23.24" y1="63.18" x2="101.24" y2="60.4">
   <stop offset="0" style="stop-opacity:1; stop-color:#805711"/>
   <stop offset="0.121569" style="stop-opacity:1; stop-color:#947025"/>
   <stop offset="0.278431" style="stop-opacity:1; stop-color:#CCB260"/>
   <stop offset="0.4" style="stop-opacity:1; stop-color:#C6A864"/>
   <stop offset="0.568627" style="stop-opacity:1; stop-color:#FEF3B3"/>
   <stop offset="0.690196" style="stop-opacity:1; stop-color:#CCB260"/>
   <stop offset="0.788235" style="stop-opacity:1; stop-color:#9E8241"/>
   <stop offset="0.870588" style="stop-opacity:1; stop-color:#A37B26"/>
   <stop offset="0.909804" style="stop-opacity:1; stop-color:#C09838"/>
   <stop offset="1" style="stop-opacity:1; stop-color:#866400"/>
  </linearGradient>
  <linearGradient id="id1" gradientUnits="userSpaceOnUse" xlink:href="#id0" x1="-19.02" y1="71.54" x2="129.03" y2="65.32">
  </linearGradient>
 </defs>
 <g id="Capa_x0020_1">
  <metadata id="CorelCorpID_0Corel-Layer"/>
  <g id="_1659739168224">
   <path class="fil0" d="M65.01 0c35.9,0 65.01,29.11 65.01,65.01 0,35.9 -29.11,65.01 -65.01,65.01 -35.9,0 -65.01,-29.11 -65.01,-65.01 0,-35.9 29.11,-65.01 65.01,-65.01z"/>
   <path class="fil1" d="M65.01 1c35.34,0 64.01,28.66 64.01,64.01 0,35.34 -28.66,64.01 -64.01,64.01 -35.35,0 -64.01,-28.66 -64.01,-64.01 0,-35.34 28.66,-64.01 64.01,-64.01zm-49.74 83.71l1.24 2.78 1.35 -0.02c0.33,-0 0.57,-0.04 0.7,-0.1 0.11,-0.05 0.18,-0.14 0.22,-0.28 0.04,-0.14 -0.01,-0.39 -0.14,-0.74l0.2 -0.09 1.01 2.26 -0.2 0.09c-0.19,-0.27 -0.34,-0.44 -0.46,-0.49 -0.25,-0.1 -0.68,-0.15 -1.3,-0.14l-7.02 0.11 -0.08 -0.19 4.85 -5.15c0.39,-0.41 0.62,-0.73 0.69,-0.96 0.07,-0.23 0.05,-0.49 -0.06,-0.79l0.2 -0.09 1.26 2.83 -0.2 0.09c-0.14,-0.28 -0.27,-0.45 -0.4,-0.52 -0.12,-0.06 -0.25,-0.07 -0.36,-0.02 -0.16,0.07 -0.37,0.25 -0.64,0.54l-0.84 0.89zm-0.32 0.32l0 0 -2.36 2.5 3.45 -0.04 -1.1 -2.46zm-6.25 -2.6l-0.44 -2.08 4.76 -5.92 -4.43 0.94c-0.47,0.1 -0.76,0.22 -0.85,0.35 -0.13,0.17 -0.16,0.41 -0.1,0.71l0.05 0.27 -0.21 0.05 -0.57 -2.67 0.21 -0.04 0.06 0.27c0.07,0.33 0.21,0.53 0.44,0.63 0.14,0.06 0.42,0.04 0.85,-0.05l6.47 -1.38 0.04 0.2 -5.11 6.38 4.73 -1.01c0.47,-0.1 0.75,-0.21 0.85,-0.34 0.13,-0.18 0.16,-0.41 0.1,-0.71l-0.06 -0.27 0.21 -0.05 0.57 2.67 -0.21 0.05 -0.06 -0.27c-0.07,-0.33 -0.22,-0.54 -0.44,-0.63 -0.14,-0.06 -0.42,-0.04 -0.85,0.05l-5.34 1.14c-0.21,0.28 -0.35,0.48 -0.41,0.62 -0.06,0.13 -0.1,0.32 -0.12,0.55 -0.01,0.12 0.01,0.29 0.06,0.51l-0.21 0.04zm-2.41 -16.38l1.83 -0.22 0.02 0.22c-0.32,0.07 -0.55,0.14 -0.68,0.22 -0.21,0.14 -0.37,0.31 -0.46,0.51 -0.09,0.21 -0.13,0.47 -0.11,0.79l0.08 1.1 5.98 -0.42c0.48,-0.03 0.78,-0.11 0.89,-0.22 0.15,-0.16 0.22,-0.39 0.2,-0.69l-0.02 -0.27 0.21 -0.01 0.23 3.32 -0.21 0.01 -0.02 -0.28c-0.02,-0.33 -0.14,-0.56 -0.35,-0.68 -0.13,-0.08 -0.41,-0.1 -0.85,-0.07l-5.98 0.42 0.07 0.94c0.03,0.37 0.07,0.62 0.13,0.77 0.09,0.2 0.24,0.36 0.46,0.48 0.22,0.13 0.5,0.19 0.86,0.2l0.02 0.22 -1.84 0.04 -0.45 -6.39zm0.01 -5.84c0.09,-1.01 0.55,-1.86 1.39,-2.53 0.84,-0.68 1.83,-0.96 2.98,-0.86 1.19,0.1 2.14,0.56 2.86,1.38 0.72,0.82 1.03,1.76 0.94,2.82 -0.09,1.08 -0.56,1.95 -1.39,2.61 -0.83,0.67 -1.85,0.94 -3.07,0.84 -1.24,-0.11 -2.22,-0.62 -2.93,-1.54 -0.62,-0.79 -0.88,-1.7 -0.79,-2.72zm0.41 0.15l0 0c-0.06,0.7 0.15,1.29 0.63,1.75 0.6,0.58 1.52,0.93 2.77,1.04 1.28,0.11 2.28,-0.08 3.02,-0.56 0.56,-0.37 0.87,-0.9 0.93,-1.59 0.06,-0.74 -0.17,-1.37 -0.7,-1.89 -0.53,-0.53 -1.42,-0.85 -2.65,-0.95 -1.34,-0.12 -2.36,0.06 -3.06,0.53 -0.56,0.38 -0.87,0.94 -0.94,1.68zm5.69 -7.82l0.82 -2.87 0.84 0.24 -0.82 2.88 -0.84 -0.24zm4.86 -5.51l-0.19 -0.09 0.12 -0.27c0.14,-0.3 0.14,-0.56 0.01,-0.77 -0.08,-0.13 -0.32,-0.29 -0.72,-0.48l-4.6 -2.14c-0.44,-0.21 -0.75,-0.29 -0.9,-0.24 -0.22,0.07 -0.39,0.23 -0.51,0.5l-0.12 0.27 -0.2 -0.09 1.35 -2.89c0.5,-1.06 0.99,-1.81 1.49,-2.26 0.5,-0.44 1.11,-0.7 1.83,-0.78 0.72,-0.07 1.45,0.06 2.19,0.41 0.99,0.46 1.68,1.15 2.06,2.06 0.43,1.02 0.32,2.22 -0.33,3.6l-1.48 3.18zm0.43 -2.27l0 0c0.31,-0.4 0.53,-0.75 0.67,-1.05 0.38,-0.81 0.41,-1.62 0.09,-2.42 -0.32,-0.8 -0.97,-1.43 -1.94,-1.88 -0.98,-0.46 -1.88,-0.55 -2.7,-0.28 -0.82,0.27 -1.42,0.83 -1.81,1.67 -0.15,0.31 -0.26,0.7 -0.35,1.15l6.05 2.82zm-0.88 -13.6c0.6,-0.82 1.43,-1.31 2.5,-1.46 1.06,-0.15 2.06,0.12 3,0.8 0.96,0.7 1.54,1.59 1.74,2.66 0.19,1.07 -0.02,2.04 -0.65,2.9 -0.63,0.88 -1.48,1.38 -2.53,1.53 -1.05,0.14 -2.07,-0.14 -3.06,-0.86 -1.01,-0.73 -1.58,-1.67 -1.72,-2.82 -0.12,-1 0.12,-1.91 0.73,-2.74zm0.28 0.34l0 0c-0.41,0.57 -0.53,1.18 -0.36,1.83 0.21,0.81 0.83,1.58 1.84,2.32 1.04,0.75 2,1.11 2.88,1.07 0.67,-0.03 1.21,-0.33 1.62,-0.89 0.43,-0.6 0.56,-1.26 0.38,-1.98 -0.18,-0.73 -0.77,-1.45 -1.78,-2.18 -1.09,-0.79 -2.05,-1.16 -2.89,-1.12 -0.67,0.03 -1.23,0.35 -1.67,0.96zm11.98 -2.65l-6.72 -2.76 3.58 3.83c0.33,0.35 0.57,0.54 0.73,0.56 0.21,0.02 0.43,-0.08 0.66,-0.28l0.2 -0.19 0.15 0.16 -2 1.86 -0.15 -0.16 0.2 -0.19c0.24,-0.23 0.35,-0.46 0.31,-0.7 -0.02,-0.15 -0.18,-0.38 -0.48,-0.71l-3.5 -3.75c-0.24,-0.25 -0.44,-0.41 -0.6,-0.47 -0.11,-0.05 -0.25,-0.05 -0.41,-0 -0.16,0.04 -0.35,0.17 -0.59,0.39l-0.15 -0.16 1.63 -1.52 6.27 2.55 -2.14 -6.4 1.63 -1.52 0.15 0.16 -0.2 0.19c-0.25,0.23 -0.35,0.46 -0.31,0.71 0.02,0.15 0.18,0.38 0.48,0.71l3.5 3.75c0.33,0.35 0.57,0.54 0.74,0.55 0.21,0.02 0.43,-0.07 0.66,-0.28l0.2 -0.19 0.15 0.16 -2.44 2.27 -0.15 -0.16 0.2 -0.19c0.24,-0.23 0.35,-0.46 0.31,-0.7 -0.02,-0.15 -0.18,-0.38 -0.48,-0.71l-3.58 -3.84 2.29 6.89 -0.14 0.13zm7.14 -6.08l0.12 0.17 -2.75 1.93 -0.12 -0.17 0.23 -0.16c0.27,-0.19 0.41,-0.4 0.42,-0.64 0,-0.15 -0.13,-0.42 -0.4,-0.81l-2.91 -4.15c-0.23,-0.32 -0.4,-0.53 -0.51,-0.6 -0.09,-0.06 -0.2,-0.08 -0.34,-0.07 -0.19,0.02 -0.36,0.09 -0.52,0.19l-0.23 0.16 -0.12 -0.18 2.75 -1.93 0.12 0.18 -0.23 0.16c-0.26,0.18 -0.4,0.39 -0.41,0.63 -0.01,0.16 0.12,0.43 0.39,0.81l2.91 4.15c0.23,0.33 0.4,0.53 0.51,0.6 0.09,0.06 0.2,0.08 0.34,0.06 0.19,-0.02 0.36,-0.08 0.51,-0.19l0.23 -0.16zm-3.81 -6.82l1.84 -1.06 7.1 2.7 -2.26 -3.92c-0.24,-0.42 -0.44,-0.65 -0.59,-0.7 -0.21,-0.07 -0.44,-0.03 -0.71,0.13l-0.24 0.14 -0.11 -0.19 2.37 -1.37 0.11 0.19 -0.24 0.14c-0.29,0.17 -0.44,0.37 -0.46,0.61 -0.01,0.15 0.09,0.41 0.31,0.79l3.31 5.73 -0.18 0.11 -7.64 -2.89 2.42 4.19c0.24,0.42 0.44,0.65 0.59,0.7 0.21,0.07 0.44,0.02 0.71,-0.13l0.24 -0.14 0.11 0.18 -2.37 1.37 -0.11 -0.19 0.24 -0.14c0.29,-0.17 0.45,-0.37 0.47,-0.62 0.01,-0.15 -0.09,-0.42 -0.31,-0.8l-2.73 -4.73c-0.33,-0.12 -0.57,-0.18 -0.71,-0.2 -0.14,-0.02 -0.33,0 -0.57,0.05 -0.11,0.03 -0.27,0.09 -0.47,0.21l-0.11 -0.19zm15.87 -7.55l0.96 2.29 -0.19 0.06c-0.39,-0.52 -0.78,-0.88 -1.19,-1.08 -0.58,-0.28 -1.22,-0.31 -1.92,-0.09 -0.95,0.31 -1.55,0.92 -1.8,1.83 -0.21,0.77 -0.17,1.59 0.11,2.47 0.23,0.71 0.58,1.32 1.05,1.81 0.47,0.5 0.97,0.81 1.5,0.94 0.54,0.13 1.04,0.12 1.51,-0.04 0.27,-0.09 0.53,-0.21 0.76,-0.36 0.24,-0.15 0.45,-0.34 0.64,-0.55l-0.7 -2.16c-0.12,-0.37 -0.23,-0.61 -0.32,-0.71 -0.09,-0.1 -0.21,-0.16 -0.35,-0.18 -0.14,-0.02 -0.36,0.02 -0.66,0.11l-0.07 -0.21 2.89 -0.94 0.07 0.21 -0.14 0.04c-0.29,0.09 -0.45,0.25 -0.5,0.48 -0.03,0.16 0.02,0.44 0.15,0.84l0.74 2.28c-0.35,0.37 -0.71,0.67 -1.09,0.91 -0.38,0.24 -0.82,0.44 -1.32,0.6 -1.44,0.47 -2.69,0.36 -3.74,-0.32 -0.79,-0.51 -1.33,-1.22 -1.62,-2.13 -0.21,-0.66 -0.26,-1.34 -0.14,-2.04 0.14,-0.84 0.48,-1.55 1,-2.15 0.44,-0.5 1.04,-0.87 1.78,-1.11 0.27,-0.09 0.53,-0.15 0.76,-0.17 0.24,-0.03 0.58,-0.03 1.04,-0.02 0.23,0.01 0.38,0 0.45,-0.02 0.07,-0.02 0.12,-0.07 0.15,-0.15 0.03,-0.08 0.02,-0.22 -0.03,-0.41l0.2 -0.07zm6.64 -1.5c1,-0.18 1.94,0.05 2.81,0.68 0.87,0.63 1.41,1.52 1.61,2.66 0.21,1.18 0.01,2.22 -0.59,3.12 -0.6,0.91 -1.43,1.45 -2.49,1.64 -1.06,0.19 -2.03,-0.03 -2.88,-0.66 -0.86,-0.63 -1.39,-1.54 -1.6,-2.74 -0.22,-1.23 0.03,-2.3 0.73,-3.22 0.61,-0.8 1.41,-1.29 2.43,-1.47zm-0.04 0.43l0 0c-0.69,0.12 -1.2,0.48 -1.53,1.06 -0.41,0.73 -0.5,1.71 -0.29,2.94 0.22,1.26 0.66,2.18 1.32,2.77 0.51,0.44 1.1,0.61 1.78,0.49 0.72,-0.13 1.27,-0.52 1.65,-1.17 0.37,-0.65 0.45,-1.58 0.24,-2.8 -0.23,-1.32 -0.67,-2.26 -1.3,-2.82 -0.51,-0.44 -1.13,-0.6 -1.87,-0.47zm14.95 1.94l2.43 0.17 -0.01 0.21c-0.34,0 -0.59,0.06 -0.76,0.17 -0.17,0.11 -0.44,0.46 -0.82,1.05 -0.38,0.59 -0.8,1.13 -1.26,1.63 0.31,0.43 0.6,0.73 0.86,0.91 0.26,0.18 0.52,0.28 0.8,0.3 0.27,0.02 0.5,-0.04 0.69,-0.17 0.19,-0.13 0.34,-0.33 0.44,-0.61l0.2 0.17c-0.18,0.53 -0.44,0.92 -0.77,1.15 -0.33,0.24 -0.71,0.34 -1.13,0.31 -0.32,-0.02 -0.63,-0.13 -0.94,-0.32 -0.31,-0.19 -0.65,-0.51 -1,-0.94 -0.51,0.39 -0.96,0.65 -1.35,0.79 -0.39,0.14 -0.81,0.19 -1.24,0.16 -0.64,-0.04 -1.13,-0.25 -1.48,-0.61 -0.35,-0.37 -0.51,-0.78 -0.47,-1.25 0.03,-0.46 0.23,-0.92 0.6,-1.36 0.37,-0.44 1.03,-0.88 1.99,-1.31 -0.15,-0.41 -0.25,-0.75 -0.3,-1.01 -0.05,-0.26 -0.06,-0.51 -0.05,-0.74 0.05,-0.66 0.32,-1.14 0.83,-1.45 0.4,-0.24 0.83,-0.35 1.32,-0.31 0.46,0.03 0.82,0.19 1.09,0.48 0.27,0.29 0.39,0.64 0.36,1.03 -0.03,0.41 -0.19,0.76 -0.49,1.05 -0.3,0.29 -0.82,0.59 -1.55,0.91 0.43,0.9 0.88,1.73 1.36,2.5 0.73,-0.76 1.12,-1.42 1.16,-1.97 0.01,-0.18 -0.03,-0.34 -0.14,-0.48 -0.08,-0.11 -0.19,-0.18 -0.35,-0.21l0.01 -0.21zm-2.21 -0l0 0c0.49,-0.19 0.87,-0.43 1.12,-0.7 0.26,-0.27 0.4,-0.58 0.42,-0.94 0.02,-0.28 -0.05,-0.51 -0.21,-0.71 -0.16,-0.19 -0.36,-0.3 -0.62,-0.32 -0.33,-0.02 -0.6,0.08 -0.78,0.3 -0.19,0.22 -0.29,0.44 -0.31,0.67 -0.01,0.19 0.01,0.4 0.05,0.64 0.05,0.24 0.15,0.59 0.31,1.06zm0.64 3.67l0 0c-0.46,-0.73 -0.78,-1.26 -0.95,-1.59 -0.17,-0.33 -0.36,-0.74 -0.56,-1.23 -0.48,0.23 -0.85,0.5 -1.1,0.8 -0.26,0.3 -0.4,0.64 -0.42,1.02 -0.03,0.41 0.08,0.78 0.32,1.11 0.24,0.33 0.59,0.51 1.04,0.54 0.24,0.02 0.48,-0.02 0.71,-0.09 0.23,-0.08 0.55,-0.27 0.96,-0.55zm12.52 0.88l-2.93 -0.79 -0.84 1.06c-0.21,0.26 -0.33,0.46 -0.37,0.61 -0.03,0.11 -0,0.23 0.08,0.35 0.09,0.12 0.31,0.24 0.67,0.36l-0.06 0.21 -2.39 -0.64 0.05 -0.21c0.33,0.03 0.56,0.01 0.67,-0.05 0.24,-0.13 0.55,-0.43 0.93,-0.92l4.34 -5.52 0.2 0.05 0.95 7.01c0.08,0.57 0.18,0.94 0.31,1.14 0.13,0.2 0.35,0.35 0.66,0.45l-0.05 0.21 -2.99 -0.8 0.06 -0.21c0.3,0.07 0.52,0.07 0.65,0.01 0.13,-0.06 0.21,-0.15 0.24,-0.27 0.04,-0.16 0.04,-0.44 -0.02,-0.84l-0.17 -1.21zm-0.04 -0.46l0 0 -0.46 -3.41 -2.14 2.71 2.6 0.7zm10.68 -1.04l-1.1 2.48 -0.2 -0.09c0.15,-0.5 0.2,-0.93 0.16,-1.29 -0.04,-0.35 -0.17,-0.68 -0.4,-0.98 -0.23,-0.3 -0.51,-0.52 -0.83,-0.67 -0.37,-0.16 -0.72,-0.19 -1.06,-0.07 -0.34,0.12 -0.57,0.32 -0.7,0.6 -0.1,0.22 -0.11,0.45 -0.04,0.7 0.1,0.36 0.46,0.95 1.09,1.75 0.51,0.66 0.84,1.14 1,1.44 0.16,0.3 0.25,0.61 0.26,0.93 0.02,0.32 -0.04,0.62 -0.17,0.91 -0.24,0.54 -0.66,0.92 -1.26,1.12 -0.6,0.21 -1.23,0.16 -1.89,-0.13 -0.21,-0.09 -0.4,-0.2 -0.57,-0.31 -0.1,-0.07 -0.3,-0.23 -0.59,-0.5 -0.29,-0.27 -0.49,-0.42 -0.58,-0.46 -0.09,-0.04 -0.17,-0.05 -0.24,-0.01 -0.07,0.03 -0.16,0.12 -0.26,0.28l-0.2 -0.09 1.09 -2.46 0.2 0.09c-0.14,0.56 -0.19,1 -0.14,1.32 0.04,0.32 0.18,0.64 0.43,0.95 0.24,0.31 0.56,0.55 0.94,0.72 0.44,0.2 0.84,0.24 1.2,0.12 0.36,-0.12 0.61,-0.34 0.75,-0.65 0.08,-0.18 0.11,-0.38 0.09,-0.6 -0.02,-0.22 -0.09,-0.46 -0.23,-0.7 -0.09,-0.17 -0.37,-0.56 -0.83,-1.18 -0.46,-0.62 -0.77,-1.08 -0.94,-1.4 -0.17,-0.32 -0.26,-0.63 -0.29,-0.94 -0.03,-0.31 0.03,-0.61 0.16,-0.9 0.23,-0.51 0.62,-0.87 1.18,-1.07 0.56,-0.2 1.15,-0.16 1.76,0.11 0.38,0.17 0.74,0.44 1.08,0.82 0.16,0.18 0.28,0.28 0.36,0.32 0.09,0.04 0.18,0.05 0.26,0.02 0.08,-0.03 0.18,-0.12 0.29,-0.27l0.2 0.09zm6.63 3.92l-1.44 2.3 -0.18 -0.11c0.22,-0.48 0.33,-0.9 0.34,-1.25 0.01,-0.36 -0.08,-0.7 -0.26,-1.03 -0.19,-0.33 -0.43,-0.59 -0.73,-0.78 -0.34,-0.21 -0.69,-0.29 -1.04,-0.22 -0.35,0.07 -0.61,0.24 -0.78,0.5 -0.13,0.2 -0.17,0.43 -0.14,0.69 0.05,0.37 0.33,1 0.83,1.89 0.41,0.72 0.68,1.24 0.79,1.56 0.12,0.32 0.16,0.64 0.13,0.96 -0.03,0.32 -0.12,0.61 -0.29,0.88 -0.31,0.5 -0.78,0.82 -1.4,0.94 -0.62,0.12 -1.24,-0.01 -1.85,-0.4 -0.19,-0.12 -0.37,-0.25 -0.52,-0.38 -0.09,-0.08 -0.26,-0.27 -0.52,-0.57 -0.25,-0.3 -0.42,-0.48 -0.51,-0.53 -0.08,-0.05 -0.16,-0.07 -0.24,-0.05 -0.08,0.02 -0.18,0.1 -0.3,0.24l-0.18 -0.11 1.43 -2.28 0.18 0.11c-0.21,0.53 -0.32,0.96 -0.33,1.29 -0,0.33 0.09,0.66 0.29,1 0.2,0.34 0.47,0.62 0.83,0.84 0.41,0.25 0.8,0.35 1.17,0.28 0.37,-0.07 0.65,-0.25 0.83,-0.54 0.1,-0.16 0.16,-0.36 0.18,-0.58 0.01,-0.22 -0.03,-0.47 -0.13,-0.73 -0.07,-0.18 -0.28,-0.6 -0.65,-1.28 -0.37,-0.67 -0.62,-1.18 -0.74,-1.52 -0.12,-0.34 -0.17,-0.66 -0.15,-0.97 0.02,-0.31 0.11,-0.6 0.29,-0.87 0.3,-0.48 0.74,-0.77 1.32,-0.89 0.58,-0.11 1.16,0 1.72,0.36 0.35,0.22 0.67,0.54 0.96,0.96 0.13,0.2 0.24,0.32 0.31,0.36 0.08,0.05 0.17,0.07 0.25,0.05 0.09,-0.02 0.19,-0.09 0.32,-0.23l0.18 0.11zm5.15 4c0.78,0.65 1.21,1.52 1.28,2.59 0.07,1.07 -0.26,2.05 -1,2.94 -0.77,0.91 -1.69,1.43 -2.77,1.55 -1.08,0.12 -2.03,-0.16 -2.85,-0.85 -0.83,-0.7 -1.28,-1.57 -1.35,-2.63 -0.07,-1.06 0.29,-2.06 1.07,-2.99 0.8,-0.95 1.78,-1.46 2.94,-1.52 1,-0.05 1.9,0.25 2.69,0.92zm-0.36 0.25l0 0c-0.54,-0.45 -1.14,-0.61 -1.8,-0.49 -0.82,0.16 -1.63,0.72 -2.44,1.67 -0.82,0.98 -1.25,1.91 -1.27,2.79 -0.01,0.67 0.24,1.23 0.77,1.67 0.57,0.47 1.22,0.65 1.95,0.51 0.74,-0.13 1.5,-0.67 2.3,-1.62 0.86,-1.03 1.3,-1.97 1.32,-2.81 0.01,-0.68 -0.27,-1.25 -0.84,-1.73zm9.04 8.73l-1.86 1.92 -0.12 -0.13c0.43,-0.71 0.63,-1.35 0.6,-1.91 -0.04,-0.57 -0.26,-1.08 -0.68,-1.54 -0.35,-0.39 -0.76,-0.65 -1.24,-0.78 -0.48,-0.14 -1.01,-0.1 -1.6,0.11 -0.59,0.21 -1.21,0.6 -1.85,1.18 -0.53,0.47 -0.91,0.97 -1.14,1.49 -0.24,0.52 -0.3,1.04 -0.2,1.57 0.1,0.53 0.35,1.01 0.74,1.44 0.34,0.38 0.72,0.64 1.14,0.78 0.42,0.14 1.03,0.17 1.83,0.09l0.03 0.21c-0.78,0.17 -1.47,0.18 -2.06,0 -0.59,-0.17 -1.13,-0.53 -1.61,-1.06 -0.87,-0.97 -1.19,-2.04 -0.95,-3.21 0.18,-0.88 0.63,-1.64 1.35,-2.29 0.58,-0.52 1.23,-0.87 1.96,-1.05 0.72,-0.18 1.42,-0.16 2.1,0.06 0.68,0.22 1.27,0.59 1.75,1.14 0.38,0.42 0.65,0.93 0.81,1.52 0.05,0.18 0.09,0.29 0.14,0.34 0.07,0.08 0.16,0.12 0.26,0.13 0.15,0 0.3,-0.04 0.47,-0.13l0.14 0.15zm-3.51 9.06l-0.18 0.12 -1.83 -2.82 0.18 -0.12 0.15 0.23c0.18,0.27 0.38,0.42 0.62,0.44 0.15,0.01 0.43,-0.11 0.82,-0.37l4.25 -2.76c0.33,-0.22 0.54,-0.38 0.62,-0.49 0.06,-0.08 0.08,-0.2 0.08,-0.34 -0.02,-0.19 -0.07,-0.36 -0.17,-0.52l-0.15 -0.23 0.18 -0.12 1.83 2.82 -0.18 0.12 -0.15 -0.24c-0.17,-0.27 -0.38,-0.41 -0.62,-0.43 -0.16,-0.01 -0.43,0.11 -0.82,0.36l-4.25 2.76c-0.33,0.22 -0.54,0.38 -0.62,0.49 -0.06,0.08 -0.08,0.2 -0.07,0.34 0.01,0.19 0.07,0.36 0.17,0.52l0.15 0.24zm4.92 4.01l-1.38 -2.71 -1.34 0.09c-0.33,0.02 -0.56,0.07 -0.7,0.13 -0.11,0.06 -0.18,0.15 -0.2,0.3 -0.03,0.14 0.03,0.39 0.18,0.74l-0.19 0.1 -1.12 -2.2 0.19 -0.1c0.2,0.26 0.36,0.42 0.49,0.46 0.26,0.09 0.69,0.11 1.3,0.07l7.01 -0.47 0.09 0.18 -4.58 5.4c-0.37,0.43 -0.58,0.77 -0.64,1 -0.06,0.23 -0.02,0.49 0.1,0.79l-0.19 0.1 -1.4 -2.76 0.19 -0.1c0.16,0.27 0.3,0.44 0.43,0.49 0.13,0.06 0.25,0.06 0.36,-0 0.15,-0.08 0.36,-0.27 0.61,-0.57l0.79 -0.94zm0.31 -0.34l0 0 2.22 -2.63 -3.44 0.22 1.22 2.4zm7.88 7.03l-1.71 0.68 -0.07 -0.21c0.29,-0.14 0.49,-0.27 0.6,-0.39 0.17,-0.19 0.28,-0.39 0.31,-0.61 0.04,-0.22 0,-0.49 -0.1,-0.79l-0.36 -1.04 -5.67 1.95c-0.46,0.16 -0.72,0.3 -0.8,0.44 -0.1,0.19 -0.11,0.43 -0.01,0.72l0.09 0.26 -0.2 0.07 -1.08 -3.15 0.2 -0.07 0.09 0.26c0.11,0.31 0.28,0.5 0.51,0.57 0.14,0.04 0.43,-0.01 0.84,-0.15l5.67 -1.95 -0.31 -0.89c-0.12,-0.35 -0.23,-0.58 -0.33,-0.71 -0.13,-0.17 -0.32,-0.28 -0.57,-0.35 -0.24,-0.07 -0.54,-0.06 -0.88,0.03l-0.07 -0.21 1.77 -0.51 2.09 6.06zm0.37 3.96l-3.05 0.59 0.33 1.69c0.08,0.44 0.21,0.72 0.37,0.84 0.21,0.16 0.54,0.21 0.98,0.15l0.04 0.21 -2.68 0.52 -0.04 -0.21c0.37,-0.13 0.59,-0.23 0.69,-0.3 0.12,-0.09 0.2,-0.23 0.25,-0.39 0.05,-0.17 0.04,-0.42 -0.03,-0.74l-0.33 -1.69 -2.54 0.49c-0.34,0.07 -0.55,0.12 -0.61,0.17 -0.07,0.04 -0.12,0.11 -0.15,0.19 -0.03,0.08 -0.02,0.23 0.02,0.44l0.25 1.31c0.09,0.43 0.18,0.74 0.28,0.93 0.1,0.19 0.25,0.35 0.47,0.5 0.28,0.19 0.68,0.36 1.2,0.52l0.05 0.23 -2.06 -0.29 -1.16 -5.94 0.21 -0.04 0.05 0.27c0.04,0.18 0.11,0.35 0.23,0.49 0.08,0.11 0.19,0.17 0.32,0.19 0.13,0.02 0.38,-0.01 0.76,-0.08l5 -0.97c0.49,-0.09 0.78,-0.2 0.88,-0.32 0.12,-0.17 0.16,-0.41 0.09,-0.72l-0.05 -0.27 0.21 -0.04 1.15 5.94 -1.67 0.41 -0.04 -0.22c0.39,-0.16 0.65,-0.3 0.78,-0.43 0.13,-0.13 0.22,-0.29 0.26,-0.5 0.03,-0.16 0,-0.44 -0.07,-0.82l-0.41 -2.11zm1.89 11.25l-2.71 0.09 -0.01 -0.21c0.52,-0.09 0.93,-0.23 1.23,-0.42 0.3,-0.19 0.54,-0.45 0.71,-0.79 0.17,-0.34 0.25,-0.68 0.24,-1.04 -0.01,-0.4 -0.15,-0.73 -0.4,-0.98 -0.25,-0.25 -0.54,-0.38 -0.85,-0.36 -0.24,0.01 -0.45,0.1 -0.64,0.27 -0.28,0.25 -0.65,0.83 -1.1,1.75 -0.37,0.75 -0.65,1.26 -0.85,1.53 -0.2,0.27 -0.44,0.49 -0.72,0.64 -0.28,0.15 -0.58,0.24 -0.89,0.25 -0.59,0.02 -1.11,-0.19 -1.56,-0.64 -0.45,-0.44 -0.68,-1.03 -0.71,-1.76 -0.01,-0.23 0,-0.44 0.03,-0.64 0.01,-0.12 0.08,-0.37 0.18,-0.75 0.11,-0.38 0.16,-0.62 0.16,-0.72 -0,-0.1 -0.04,-0.17 -0.09,-0.23 -0.06,-0.05 -0.18,-0.09 -0.36,-0.11l-0.01 -0.21 2.69 -0.09 0.01 0.22c-0.56,0.12 -0.98,0.27 -1.25,0.45 -0.27,0.18 -0.5,0.45 -0.67,0.8 -0.17,0.36 -0.25,0.74 -0.24,1.16 0.02,0.48 0.16,0.86 0.42,1.13 0.27,0.27 0.57,0.4 0.92,0.39 0.19,-0.01 0.39,-0.07 0.58,-0.18 0.19,-0.11 0.37,-0.28 0.53,-0.51 0.11,-0.15 0.34,-0.58 0.69,-1.26 0.35,-0.68 0.64,-1.17 0.85,-1.46 0.21,-0.29 0.45,-0.52 0.72,-0.67 0.26,-0.16 0.56,-0.24 0.88,-0.25 0.56,-0.02 1.06,0.18 1.48,0.6 0.42,0.42 0.64,0.96 0.67,1.63 0.01,0.42 -0.07,0.86 -0.26,1.34 -0.09,0.22 -0.13,0.37 -0.13,0.46 0,0.1 0.04,0.18 0.1,0.24 0.06,0.06 0.18,0.11 0.36,0.14l0.01 0.21zm-10.12 2.09l0.25 0c0.12,0.4 0.32,0.71 0.59,0.93 0.27,0.22 0.56,0.34 0.87,0.34 0.07,0 0.14,-0.02 0.19,-0.05 0.04,-0.03 0.05,-0.05 0.05,-0.08 0,-0.04 -0.04,-0.14 -0.11,-0.28 -0.03,-0.07 -0.05,-0.14 -0.05,-0.22 0,-0.19 0.06,-0.34 0.18,-0.45 0.11,-0.11 0.27,-0.16 0.47,-0.16 0.19,0 0.35,0.08 0.48,0.23 0.13,0.15 0.2,0.33 0.19,0.53 -0,0.25 -0.12,0.48 -0.34,0.67 -0.23,0.2 -0.52,0.29 -0.89,0.28 -0.4,-0.01 -0.76,-0.15 -1.1,-0.43 -0.34,-0.28 -0.6,-0.72 -0.78,-1.32zm2.33 12.43l-0.08 0.18 -1.93 -1.13 1.37 -5.92 0.21 0.05 -0.07 0.29c-0.07,0.32 -0.02,0.58 0.16,0.77 0.1,0.11 0.37,0.21 0.81,0.31l4.93 1.14c0.48,0.11 0.79,0.13 0.93,0.05 0.2,-0.11 0.33,-0.31 0.4,-0.6l0.07 -0.29 0.21 0.05 -0.8 3.46 -0.21 -0.05c0.1,-0.41 0.13,-0.7 0.08,-0.88 -0.04,-0.18 -0.11,-0.32 -0.22,-0.41 -0.11,-0.09 -0.39,-0.19 -0.84,-0.29l-4.8 -1.11c-0.31,-0.07 -0.53,-0.09 -0.66,-0.06 -0.09,0.03 -0.16,0.08 -0.22,0.17 -0.06,0.08 -0.15,0.37 -0.26,0.87l-0.13 0.56c-0.14,0.59 -0.19,1.01 -0.16,1.27 0.03,0.26 0.13,0.51 0.31,0.75 0.17,0.25 0.48,0.52 0.9,0.83zm-2.27 7.02l-0.1 0.17 -1.82 -1.3 1.88 -5.78 0.2 0.07 -0.09 0.28c-0.1,0.31 -0.07,0.57 0.09,0.78 0.09,0.11 0.35,0.24 0.78,0.38l4.82 1.57c0.46,0.15 0.77,0.2 0.92,0.13 0.21,-0.09 0.36,-0.28 0.45,-0.56l0.09 -0.28 0.2 0.07 -1.1 3.38 -0.2 -0.06c0.13,-0.4 0.19,-0.69 0.16,-0.87 -0.02,-0.19 -0.09,-0.33 -0.18,-0.42 -0.1,-0.1 -0.37,-0.22 -0.81,-0.36l-4.69 -1.52c-0.3,-0.1 -0.52,-0.14 -0.66,-0.11 -0.09,0.02 -0.17,0.07 -0.24,0.15 -0.07,0.08 -0.18,0.36 -0.33,0.84l-0.18 0.55c-0.19,0.57 -0.27,0.99 -0.26,1.24 0.01,0.26 0.09,0.52 0.24,0.78 0.15,0.26 0.43,0.56 0.83,0.9zm-90.18 12.97c1.46,0 2.64,1.18 2.64,2.64 0,1.46 -1.18,2.64 -2.64,2.64 -1.46,0 -2.64,-1.18 -2.64,-2.64 0,-1.46 1.18,-2.64 2.64,-2.64zm83.68 0c1.46,0 2.64,1.18 2.64,2.64 0,1.46 -1.18,2.64 -2.64,2.64 -1.46,0 -2.64,-1.18 -2.64,-2.64 0,-1.46 1.18,-2.64 2.64,-2.64zm-93.5 -4.93l2.3 -1.44 0.11 0.18c-0.41,0.34 -0.69,0.66 -0.86,0.98 -0.17,0.32 -0.24,0.66 -0.22,1.04 0.02,0.38 0.13,0.72 0.32,1.02 0.21,0.34 0.49,0.56 0.84,0.65 0.35,0.09 0.65,0.06 0.92,-0.11 0.2,-0.13 0.34,-0.31 0.42,-0.56 0.12,-0.36 0.14,-1.04 0.08,-2.06 -0.06,-0.83 -0.07,-1.42 -0.03,-1.75 0.04,-0.34 0.14,-0.65 0.3,-0.92 0.16,-0.27 0.38,-0.49 0.64,-0.66 0.5,-0.31 1.06,-0.39 1.67,-0.23 0.61,0.16 1.11,0.55 1.49,1.17 0.12,0.19 0.22,0.38 0.3,0.57 0.05,0.11 0.12,0.36 0.21,0.74 0.1,0.38 0.17,0.62 0.23,0.7 0.05,0.08 0.12,0.13 0.19,0.15 0.08,0.02 0.2,-0.01 0.37,-0.08l0.11 0.18 -2.28 1.42 -0.11 -0.18c0.42,-0.38 0.71,-0.72 0.86,-1.01 0.15,-0.29 0.21,-0.63 0.18,-1.03 -0.03,-0.39 -0.15,-0.77 -0.37,-1.12 -0.25,-0.41 -0.57,-0.67 -0.93,-0.77 -0.36,-0.1 -0.69,-0.06 -0.99,0.12 -0.16,0.1 -0.3,0.25 -0.41,0.44 -0.11,0.19 -0.18,0.43 -0.2,0.71 -0.02,0.19 -0.01,0.67 0.03,1.44 0.04,0.77 0.04,1.33 -0,1.69 -0.04,0.36 -0.14,0.67 -0.29,0.94 -0.15,0.27 -0.36,0.49 -0.64,0.66 -0.48,0.3 -1,0.37 -1.58,0.22 -0.57,-0.15 -1.04,-0.51 -1.39,-1.07 -0.22,-0.35 -0.37,-0.78 -0.44,-1.29 -0.03,-0.23 -0.07,-0.39 -0.12,-0.46 -0.05,-0.08 -0.12,-0.14 -0.21,-0.16 -0.08,-0.02 -0.21,-0 -0.39,0.06l-0.11 -0.18zm101.58 1.7l-2.46 -1.05 0.08 -0.16c0.82,0.15 1.49,0.11 2,-0.13 0.51,-0.24 0.91,-0.63 1.19,-1.18 0.24,-0.46 0.33,-0.94 0.29,-1.44 -0.05,-0.49 -0.27,-0.98 -0.68,-1.46 -0.41,-0.48 -0.99,-0.91 -1.76,-1.3 -0.63,-0.32 -1.23,-0.5 -1.8,-0.53 -0.57,-0.03 -1.08,0.09 -1.53,0.37 -0.46,0.28 -0.82,0.68 -1.08,1.21 -0.23,0.45 -0.34,0.9 -0.32,1.35 0.02,0.45 0.21,1.02 0.57,1.73l-0.18 0.11c-0.44,-0.67 -0.69,-1.31 -0.74,-1.92 -0.05,-0.61 0.09,-1.25 0.42,-1.89 0.59,-1.16 1.48,-1.84 2.66,-2.03 0.88,-0.15 1.76,-0 2.62,0.44 0.7,0.36 1.26,0.84 1.68,1.45 0.42,0.61 0.66,1.27 0.7,1.98 0.04,0.71 -0.1,1.39 -0.43,2.04 -0.26,0.5 -0.63,0.94 -1.13,1.31 -0.15,0.1 -0.24,0.19 -0.27,0.25 -0.05,0.09 -0.05,0.19 -0.03,0.29 0.05,0.14 0.14,0.26 0.29,0.39l-0.09 0.18zm-83.79 14.4l-2.39 -1.87 -1.18 0.65c-0.29,0.16 -0.48,0.3 -0.58,0.42 -0.07,0.09 -0.09,0.21 -0.06,0.35 0.03,0.14 0.19,0.34 0.47,0.59l-0.13 0.17 -1.95 -1.52 0.13 -0.17c0.3,0.16 0.51,0.23 0.64,0.21 0.27,-0.02 0.67,-0.19 1.21,-0.49l6.15 -3.39 0.16 0.12 -1.87 6.83c-0.15,0.55 -0.2,0.94 -0.16,1.17 0.05,0.23 0.19,0.46 0.43,0.67l-0.13 0.17 -2.44 -1.91 0.13 -0.17c0.26,0.18 0.46,0.27 0.6,0.27 0.14,0 0.25,-0.05 0.33,-0.15 0.11,-0.13 0.21,-0.39 0.31,-0.78l0.32 -1.18zm0.14 -0.44l0 0 0.9 -3.32 -3.03 1.66 2.13 1.66zm9.87 4.84c0.43,0.35 0.71,0.7 0.84,1.05 0.17,0.49 0.14,0.96 -0.09,1.41 -0.18,0.35 -0.46,0.62 -0.84,0.83 -0.38,0.21 -0.8,0.28 -1.26,0.23 -0.46,-0.05 -1.08,-0.27 -1.87,-0.67l-3.3 -1.68 0.1 -0.19 0.26 0.13c0.29,0.15 0.55,0.16 0.77,0.04 0.14,-0.08 0.31,-0.31 0.51,-0.71l2.3 -4.52c0.22,-0.43 0.31,-0.73 0.27,-0.9 -0.06,-0.22 -0.22,-0.4 -0.48,-0.53l-0.26 -0.13 0.1 -0.19 3.02 1.54c0.56,0.29 1,0.56 1.29,0.82 0.45,0.39 0.74,0.81 0.85,1.26 0.11,0.45 0.06,0.88 -0.15,1.29 -0.18,0.35 -0.44,0.61 -0.8,0.78 -0.35,0.17 -0.77,0.21 -1.26,0.14zm-2.56 -1.66l0 0c0.12,0.09 0.25,0.18 0.41,0.28 0.16,0.1 0.33,0.19 0.53,0.29 0.5,0.26 0.91,0.4 1.22,0.41 0.31,0.02 0.59,-0.05 0.83,-0.2 0.25,-0.15 0.44,-0.36 0.57,-0.63 0.21,-0.41 0.22,-0.84 0.03,-1.3 -0.19,-0.46 -0.6,-0.85 -1.24,-1.18 -0.34,-0.18 -0.67,-0.3 -0.99,-0.36l-1.37 2.69zm-1.7 3.34l0 0c0.35,0.3 0.72,0.54 1.11,0.74 0.62,0.32 1.17,0.42 1.64,0.31 0.47,-0.11 0.81,-0.38 1.02,-0.79 0.14,-0.27 0.2,-0.57 0.18,-0.9 -0.02,-0.33 -0.16,-0.65 -0.42,-0.96 -0.26,-0.31 -0.64,-0.6 -1.13,-0.85 -0.21,-0.11 -0.4,-0.2 -0.55,-0.27 -0.15,-0.07 -0.28,-0.12 -0.38,-0.15l-1.46 2.87zm13.56 -2.38c0.99,0.26 1.74,0.87 2.26,1.81 0.52,0.94 0.63,1.97 0.33,3.09 -0.31,1.15 -0.93,2.01 -1.86,2.58 -0.93,0.57 -1.91,0.71 -2.95,0.43 -1.04,-0.28 -1.82,-0.89 -2.33,-1.82 -0.51,-0.93 -0.61,-1.99 -0.29,-3.16 0.32,-1.2 1,-2.08 2.02,-2.62 0.89,-0.47 1.83,-0.57 2.82,-0.3zm-0.21 0.38l0 0c-0.68,-0.18 -1.29,-0.08 -1.84,0.32 -0.68,0.49 -1.18,1.34 -1.5,2.55 -0.33,1.24 -0.32,2.26 0.03,3.07 0.27,0.62 0.74,1.01 1.41,1.19 0.71,0.19 1.37,0.07 1.99,-0.36 0.61,-0.43 1.08,-1.24 1.4,-2.44 0.35,-1.3 0.35,-2.33 0.01,-3.11 -0.27,-0.62 -0.77,-1.02 -1.49,-1.22zm13 1.62l-0.01 2.48 -0.2 -0.02c-0.15,-0.63 -0.37,-1.12 -0.67,-1.46 -0.43,-0.49 -1,-0.77 -1.73,-0.83 -1,-0.09 -1.79,0.24 -2.37,0.98 -0.49,0.63 -0.78,1.4 -0.86,2.32 -0.07,0.75 0.02,1.44 0.25,2.08 0.24,0.64 0.57,1.12 1.02,1.45 0.44,0.33 0.91,0.51 1.4,0.56 0.29,0.02 0.57,0.01 0.85,-0.04 0.28,-0.05 0.54,-0.14 0.8,-0.25l0.2 -2.26c0.03,-0.39 0.03,-0.65 -0.02,-0.78 -0.05,-0.13 -0.13,-0.23 -0.25,-0.3 -0.12,-0.08 -0.34,-0.13 -0.65,-0.15l0.02 -0.22 3.03 0.26 -0.02 0.22 -0.14 -0.01c-0.3,-0.03 -0.51,0.06 -0.64,0.25 -0.09,0.14 -0.15,0.41 -0.19,0.83l-0.21 2.39c-0.46,0.2 -0.92,0.34 -1.36,0.41 -0.44,0.07 -0.92,0.09 -1.45,0.04 -1.51,-0.13 -2.62,-0.72 -3.32,-1.75 -0.52,-0.78 -0.74,-1.64 -0.66,-2.59 0.06,-0.69 0.28,-1.33 0.67,-1.93 0.46,-0.72 1.05,-1.25 1.76,-1.59 0.6,-0.28 1.29,-0.39 2.07,-0.32 0.29,0.03 0.54,0.07 0.77,0.14 0.23,0.07 0.55,0.2 0.96,0.39 0.21,0.1 0.35,0.15 0.42,0.16 0.07,0.01 0.14,-0.02 0.2,-0.08 0.06,-0.06 0.1,-0.19 0.13,-0.39l0.21 0.02zm8.57 4.92l-3.02 0.37 -0.38 1.29c-0.09,0.32 -0.13,0.55 -0.11,0.7 0.01,0.12 0.08,0.21 0.21,0.29 0.12,0.08 0.37,0.1 0.75,0.09l0.03 0.21 -2.45 0.3 -0.03 -0.21c0.32,-0.1 0.52,-0.2 0.6,-0.3 0.17,-0.21 0.34,-0.61 0.51,-1.2l1.95 -6.75 0.2 -0.02 3.51 6.15c0.28,0.49 0.52,0.81 0.72,0.94 0.2,0.13 0.46,0.19 0.78,0.17l0.03 0.21 -3.07 0.38 -0.03 -0.21c0.31,-0.05 0.51,-0.13 0.61,-0.23 0.1,-0.1 0.14,-0.21 0.12,-0.34 -0.02,-0.17 -0.13,-0.42 -0.33,-0.77l-0.61 -1.06zm-0.21 -0.41l0 0 -1.71 -2.99 -0.97 3.31 2.68 -0.33zm6.68 2.07l-0.07 -0.2 0.28 -0.1c0.31,-0.11 0.5,-0.29 0.56,-0.53 0.04,-0.15 -0.01,-0.43 -0.16,-0.85l-1.65 -4.8c-0.16,-0.46 -0.31,-0.74 -0.45,-0.82 -0.2,-0.11 -0.44,-0.12 -0.72,-0.02l-0.28 0.1 -0.07 -0.2 3.02 -1.04c1.11,-0.38 2,-0.55 2.66,-0.49 0.66,0.05 1.27,0.31 1.83,0.78 0.55,0.47 0.96,1.08 1.23,1.85 0.36,1.03 0.34,2 -0.05,2.91 -0.44,1.01 -1.38,1.77 -2.82,2.27l-3.32 1.14zm1.93 -1.26l0 0c0.5,-0.06 0.9,-0.14 1.22,-0.25 0.85,-0.29 1.45,-0.83 1.8,-1.62 0.35,-0.79 0.36,-1.69 0.01,-2.71 -0.35,-1.02 -0.91,-1.74 -1.67,-2.13 -0.76,-0.4 -1.58,-0.45 -2.46,-0.15 -0.33,0.11 -0.68,0.3 -1.07,0.55l2.17 6.31zm8.44 -11.34c0.87,-0.52 1.83,-0.65 2.87,-0.37 1.04,0.28 1.86,0.91 2.45,1.91 0.61,1.02 0.8,2.07 0.56,3.13 -0.24,1.06 -0.82,1.87 -1.73,2.42 -0.92,0.56 -1.9,0.69 -2.93,0.42 -1.03,-0.28 -1.85,-0.94 -2.48,-1.99 -0.64,-1.07 -0.8,-2.16 -0.48,-3.27 0.28,-0.97 0.86,-1.71 1.74,-2.24zm0.12 0.42l0 0c-0.6,0.36 -0.95,0.88 -1.05,1.54 -0.12,0.83 0.14,1.78 0.79,2.85 0.66,1.1 1.4,1.8 2.23,2.11 0.63,0.23 1.24,0.17 1.84,-0.18 0.63,-0.38 1,-0.94 1.12,-1.68 0.12,-0.74 -0.14,-1.64 -0.78,-2.7 -0.69,-1.15 -1.43,-1.87 -2.23,-2.17 -0.63,-0.23 -1.27,-0.16 -1.91,0.23zm9.26 -7.01l1.71 2.11 -0.17 0.13c-0.38,-0.36 -0.74,-0.6 -1.07,-0.73 -0.33,-0.13 -0.69,-0.16 -1.06,-0.09 -0.37,0.07 -0.7,0.21 -0.97,0.44 -0.31,0.25 -0.49,0.56 -0.54,0.91 -0.05,0.36 0.02,0.66 0.22,0.9 0.15,0.18 0.35,0.3 0.61,0.35 0.37,0.08 1.05,0.02 2.06,-0.17 0.82,-0.16 1.4,-0.24 1.74,-0.24 0.34,-0.01 0.66,0.06 0.95,0.19 0.29,0.13 0.54,0.32 0.73,0.56 0.37,0.46 0.52,1.01 0.43,1.63 -0.09,0.63 -0.41,1.17 -0.98,1.62 -0.18,0.14 -0.36,0.26 -0.53,0.36 -0.1,0.06 -0.34,0.16 -0.71,0.3 -0.37,0.14 -0.59,0.24 -0.67,0.31 -0.08,0.06 -0.11,0.13 -0.12,0.21 -0.01,0.08 0.04,0.2 0.13,0.36l-0.17 0.13 -1.69 -2.09 0.17 -0.13c0.43,0.37 0.8,0.62 1.11,0.73 0.31,0.11 0.66,0.13 1.04,0.05 0.39,-0.08 0.74,-0.25 1.07,-0.51 0.37,-0.3 0.59,-0.64 0.65,-1.02 0.06,-0.37 -0.02,-0.7 -0.24,-0.97 -0.12,-0.15 -0.29,-0.27 -0.49,-0.36 -0.21,-0.09 -0.45,-0.12 -0.73,-0.12 -0.19,0 -0.66,0.07 -1.42,0.2 -0.76,0.13 -1.32,0.2 -1.68,0.2 -0.36,0 -0.68,-0.05 -0.97,-0.17 -0.28,-0.12 -0.53,-0.3 -0.73,-0.56 -0.35,-0.44 -0.49,-0.95 -0.41,-1.54 0.08,-0.59 0.38,-1.09 0.9,-1.51 0.32,-0.26 0.73,-0.46 1.22,-0.6 0.23,-0.06 0.38,-0.12 0.45,-0.18 0.08,-0.06 0.12,-0.14 0.14,-0.22 0.01,-0.09 -0.03,-0.21 -0.11,-0.38l0.17 -0.14zm-33.34 -84.2c25.5,0 46.18,20.68 46.18,46.19 0,25.5 -20.68,46.18 -46.18,46.18 -25.5,0 -46.19,-20.68 -46.19,-46.18 0,-25.5 20.68,-46.19 46.19,-46.19z"/>
   <path class="fil2" d="M68.91 84.49l0 0c-0.56,-0.27 -1.12,-0.72 -1.69,-0.99 -1.47,1 -4.6,1.98 -7.81,2.21 -2.34,0.76 -3.43,1.85 -1.63,3.05 1.47,0.98 7.39,5.66 7.35,9.19 -0.08,1.71 8.47,1.25 6.63,0 -1.83,-1.34 -3.66,-2.68 -5.49,-4.03 -1.92,-1.99 -4.19,-4.39 -6.11,-6.39 0.8,-0.96 2.69,2.36 4.87,0.96 3.65,-1.56 5.18,-2.02 3.89,-4.01zm-11.21 -44.67c0.76,-3.25 -7.06,-0.19 -7.29,-1.04 0.04,-1.57 0.14,-3.35 1.35,-3.76 1.35,-0.67 3.23,-1.05 3.46,-2.19 0.12,-0.59 1.19,-1.06 1.61,-1.57 -0.64,0.39 -1.24,0.68 -1.59,0.38 -2.85,-2.01 -4.08,-4.66 -3.7,-7.89 1.54,3.23 3.48,5.04 5.77,5.68 4.38,-1.71 5.78,-3.14 10.08,-1.27 -1.26,1.46 -1.05,3.25 0.05,4.32 -0.74,-1.26 -0.54,-3.16 0.32,-4.21 6.11,-0.2 8.56,-3.54 9.95,-8.23 1.3,4.64 -0.09,8.61 -5.95,11.92 0.73,-0.01 1.47,-0.32 2.2,-0.94 6.77,2.59 8.23,8.95 9.52,15.44 5.69,3.52 6.68,9.95 6.68,16.98 -0.04,2.49 0.56,4.48 1.81,5.97 -0.78,6.46 2.4,6.46 2.44,14.38 2.26,3.11 4.52,6.21 6.78,9.32 0.62,1.27 -5.56,1.58 -6.33,-0.36 -0.9,-2.68 -1.81,-5.37 -2.71,-8.05 -2.19,-2.36 -3.67,-5.23 -4.43,-8.59 -1.36,-1.45 -2.71,-2.89 -4.07,-4.34 -0.52,-1.57 1.5,-4.92 3.35,-5.89 -6.24,0.7 -4.65,9.08 -8.78,11.5 -8.3,3.39 -6.56,-9.32 -12.21,-8.04 4.26,0.9 3.58,7.51 6.7,10.58 0.97,0.95 -0.11,2.71 -0.27,4.07 1.92,2.72 3.95,5.1 6.15,6.96 2.12,1.51 -7.14,2.07 -7.05,0.36 -0.33,-2.44 -0.66,-4.88 -0.99,-7.33 -0.93,-0.4 -1.71,-0.94 -2.35,-1.63 -0.52,-4.14 -3.03,-7.15 -5.91,-10.5 -1.26,-1.46 -2.55,-4.47 -1.33,-5.6 -2.51,1.34 -1.57,4.65 -0.08,6.28 2.76,3.01 5.33,6.02 5.78,10.44 -2.28,1.25 -4.18,1.13 -6.75,1.23 -4.32,2.34 -5.06,2.56 -5.92,2.3 -1.59,-0.36 -1.28,-3.59 -1.36,-6.24 -0.42,-2.77 -0.27,-5.55 0.45,-8.32 -1.22,2.73 -1.35,5.66 -1,8.68 -2.72,4.76 -6.87,6.51 -11.03,8.23 -1.8,3.14 -3.11,6.31 -2.62,9.59 0.08,1.23 -4.88,1 -4.59,0.03 1.18,-2.56 2.51,-5.34 3.69,-7.9 0.62,-2.61 0.75,-5.14 3.35,-8.05 1.22,-6.05 3.23,-10.92 6.87,-13.39 1.28,-2.3 1.82,-6.14 -1.95,-6.56 -1.48,-0.27 -4.06,0.02 -5.23,-0.92 -1.46,-1.16 -1.49,-2.29 -1.37,-4.03 -4.58,-1.78 3.86,-5.76 2.5,-9.2 2.57,1.67 4.35,7.46 -0.63,8.92 -0.64,2.22 0.21,3.29 1.45,3.38 3.83,0.28 7.29,0.74 8.01,4.25 5.96,-8.11 9.03,-10.23 10.82,-11.3 5.37,-3.22 9.28,-4.58 5.82,-3.57 -3.4,1.16 -5.47,1.77 -5.43,0.83 0.09,-1.84 0.04,-3.83 0.04,-5.41 -0.18,-1.84 -1.09,-3.36 -2.89,-3.75 -2.15,-0.47 -3.95,-0.44 -6.15,-0.41 -0.53,-0.18 -1.01,-0.45 -1.18,-1.36 -0.58,-0.88 5.4,0.02 6.18,-0.21zm-5.28 -3.95c0.17,-0.13 0.34,-0.19 0.49,-0.2 0.6,-0.04 1.08,0 1.74,-0.14 1.44,-0.32 2.85,-0.75 4.25,-1.19 1.21,-0.39 1.2,-0.52 -0.02,0.23 -1.38,0.86 -4.92,2.65 -6.64,2.7 0.35,-0.07 0.62,-0.38 0.69,-0.69 0.07,-0.31 -0.06,-0.62 -0.52,-0.71zm8.09 -2.32l0 0c1.28,-0.43 1.6,-3.06 4.15,-2.18 -1.15,-0.09 -1.84,0.91 -1.93,1.55 -0.24,1.68 -2.15,1.78 -2.22,0.63zm32.89 48.76l0 0c0.06,-2.87 -0.42,-5.31 -2.41,-6.65 0.37,2.36 1.27,4.54 2.41,6.65zm-12.53 -14.32l0 0c-1.94,-3.52 -2.49,-7.11 -1.02,-10.8 -1.26,3.82 0.7,7.12 2.2,9.68 0.89,1.66 -0.62,2.28 -1.18,1.12zm3.07 -19.55l0 0c-0.62,-0.47 -1.66,0.35 -1.08,1.21 3.98,2.18 5.18,9.88 4.59,14.18 1.47,-3.69 0.44,-12.37 -3.5,-15.39zm-12.57 -7.58l0 0c1.48,-0.24 2.5,2.44 4.79,3.97 1.32,0.88 2.85,0.73 4.16,1.12 2,0.6 2.41,1.22 0.06,1.06 -1.78,-0.12 -3.56,0.12 -4.91,0.51 -1.86,0.54 -1.2,0.97 -1.52,-1.07 -0.33,-2.09 -1.34,-3.33 -2.58,-5.6zm-13.73 -8.19l0 0c0.2,0.82 1.4,1.47 2.26,0.72 1.61,-1 2.81,-2.87 5.36,-2.93 -3.19,-0.65 -7.13,3.57 -7.63,2.21zm-5.15 8.73l0 0c8.27,1.12 16.81,0.06 14.53,-4.04 -0.58,4.04 -9.63,4.13 -14.53,4.04zm-2.5 32.85l0 0c0.54,4.17 -3.09,6.32 -7.25,7.66 7.68,-5.11 6.48,-10.4 7.25,-7.66z"/>
  </g>
 </g>
</svg>
